<svg width="28" height="28" viewBox="0 0 28 28" fill="none" xmlns="http://www.w3.org/2000/svg">
    <path d="M17.9375 18.375C18.6624 18.375 19.25 17.7874 19.25 17.0625C19.25 16.3376 18.6624 15.75 17.9375 15.75C17.2126 15.75 16.625 16.3376 16.625 17.0625C16.625 17.7874 17.2126 18.375 17.9375 18.375Z" fill="#143048" />
    <path d="M10.0625 18.375C10.7874 18.375 11.375 17.7874 11.375 17.0625C11.375 16.3376 10.7874 15.75 10.0625 15.75C9.33763 15.75 8.75 16.3376 8.75 17.0625C8.75 17.7874 9.33763 18.375 10.0625 18.375Z" fill="#143048" />
    <path d="M2.625 21.0001V18.4954C2.625 12.2063 7.67812 7.02196 13.9562 7.00008C15.4537 6.99432 16.9376 7.2843 18.3227 7.85337C19.7078 8.42243 20.967 9.2594 22.0279 10.3162C23.0888 11.3731 23.9306 12.629 24.505 14.0119C25.0793 15.3949 25.375 16.8776 25.375 18.3751V21.0001C25.375 21.2321 25.2828 21.4547 25.1187 21.6188C24.9546 21.7829 24.7321 21.8751 24.5 21.8751H3.5C3.26794 21.8751 3.04538 21.7829 2.88128 21.6188C2.71719 21.4547 2.625 21.2321 2.625 21.0001Z" stroke="#143048" stroke-width="2" stroke-linecap="round" stroke-linejoin="round" />
    <path d="M3.5 6.125L6.90156 9.52656" stroke="#143048" stroke-width="2" stroke-linecap="round" stroke-linejoin="round" />
    <path d="M24.5 6.125L21.1204 9.50469" stroke="#143048" stroke-width="2" stroke-linecap="round" stroke-linejoin="round" />
</svg>
    