<svg width="28" height="28" viewBox="0 0 28 28" fill="none" xmlns="http://www.w3.org/2000/svg">
    <path d="M2.1875 23.625H10.0625C11.1874 23.625 12.287 23.2914 13.2223 22.6665C14.1576 22.0415 14.8866 21.1533 15.3171 20.114C15.7475 19.0748 15.8602 17.9312 15.6407 16.8279C15.4213 15.7247 14.8796 14.7112 14.0842 13.9158C13.2888 13.1204 12.2753 12.5787 11.1721 12.3593C10.0688 12.1398 8.92524 12.2525 7.88599 12.6829C6.84673 13.1134 5.95847 13.8424 5.33352 14.7777C4.70857 15.713 4.375 16.8126 4.375 17.9375C4.375 21.875 2.1875 23.625 2.1875 23.625Z" stroke="black" stroke-width="2" stroke-linecap="round" stroke-linejoin="round" />
    <path d="M12.2937 12.7094C14.3937 9.87656 19.7312 3.39062 24.6093 3.39062C24.6093 8.26875 18.1234 13.6063 15.2906 15.7063" stroke="black" stroke-width="2" stroke-linecap="round" stroke-linejoin="round" />
    <path d="M14.5469 9.90967C16.0289 10.7461 17.2542 11.9714 18.0906 13.4534" stroke="black" stroke-width="2" stroke-linecap="round" stroke-linejoin="round" />
</svg>
    