<svg width="16" height="17" viewBox="0 0 16 17" fill="none" xmlns="http://www.w3.org/2000/svg">
    <path d="M15.68 8.67778C15.68 8.02001 15.6266 7.54001 15.5111 7.04224H8V10.0111H12.4089C12.32 10.7489 11.84 11.86 10.7733 12.6066L10.7584 12.706L13.1332 14.5458L13.2978 14.5622C14.8089 13.1667 15.68 11.1133 15.68 8.67778Z" fill="#4285F4" />
    <path d="M8.00002 16.5C10.16 16.5 11.9733 15.7889 13.2978 14.5623L10.7733 12.6067C10.0978 13.0778 9.1911 13.4067 8.00002 13.4067C5.88448 13.4067 4.08894 12.0112 3.44887 10.0823L3.35506 10.0902L0.885627 12.0014L0.853333 12.0911C2.16887 14.7044 4.8711 16.5 8.00002 16.5Z" fill="#34A853" />
    <path d="M3.44885 10.0822C3.27997 9.58439 3.18223 9.05101 3.18223 8.49993C3.18223 7.94879 3.27997 7.41547 3.43997 6.9177L3.4355 6.81169L0.935121 4.86987L0.853313 4.90879C0.311115 5.99324 0 7.21105 0 8.49993C0 9.78882 0.311115 11.0066 0.853313 12.091L3.44885 10.0822Z" fill="#FBBC05" />
    <path d="M8.00002 3.59331C9.50222 3.59331 10.5155 4.2422 11.0933 4.78446L13.3511 2.58C11.9645 1.29111 10.16 0.5 8.00002 0.5C4.8711 0.5 2.16887 2.29554 0.853333 4.90885L3.43999 6.91777C4.08894 4.98889 5.88448 3.59331 8.00002 3.59331Z" fill="#EB4335" />
</svg>
    