<svg width="253" height="104" viewBox="0 0 253 104" fill="none" xmlns="http://www.w3.org/2000/svg">
    <path d="M15.7249 58.81V46.559C14.4957 45.5489 12.9587 44.9341 11.334 44.9341C7.82119 44.9341 5.75725 47.6131 5.75725 52.6624C5.75725 57.4926 7.68927 60.1711 11.2463 60.1711C12.827 60.1711 14.4517 59.6442 15.7249 58.81ZM22.224 61.9717L17.6132 64.4746L16.1204 61.2249C14.5834 63.1132 12.3001 64.4746 9.35796 64.4746C3.73753 64.4746 0.79541 59.8201 0.79541 52.6187C0.79541 44.8026 4.26445 40.5873 9.79718 40.5873C12.388 40.5873 14.4077 41.5532 15.7249 43.3536V31.8491H20.4674V58.4589L22.224 61.9717Z" fill="white" />
    <path d="M30.4782 49.7645H41.6756C41.4557 46.3394 39.8312 44.7147 36.8012 44.7147C33.5078 44.7147 31.2247 46.6027 30.4782 49.7645ZM45.759 53.0576H30.2146C30.5219 57.0536 33.6399 59.7321 38.5576 59.7321C41.0607 59.7321 43.7832 59.205 45.6273 58.2391L44.1343 63.113C42.5972 63.9475 40.0066 64.4746 37.0205 64.4746C29.9513 64.4746 25.2968 59.6882 25.2968 52.3988C25.2968 45.0657 29.7317 40.5873 36.8012 40.5873C42.6412 40.5873 46.3299 43.9242 46.3299 49.3253C46.3299 50.5547 46.1103 52.0038 45.759 53.0576Z" fill="white" />
    <path d="M57.3069 63.9038L48.3491 41.1583H53.5745L59.4145 57.0539L60.0731 59.0299H60.249L60.9073 57.0539L66.7036 41.1583H71.8411L62.9273 63.9038H57.3069Z" fill="white" />
    <path d="M87.3848 41.2023H97.6598L97.0012 44.8467H86.7262L83.1255 65.3092C82.1154 71.0173 78.2953 73.1689 72.9383 73.1689C70.4793 73.1689 69.3376 72.8177 68.1081 72.5543L68.0201 68.8657C69.2496 69.0853 70.6987 69.2172 72.7187 69.2172C75.9241 69.2172 78.0318 67.9435 78.515 65.265L82.1154 44.8467H74.9582L75.6168 41.2023H82.7742L83.1255 39.0946C84.1356 33.4302 87.9117 31.2784 93.2251 31.2784C95.7278 31.2784 97.0012 31.6299 98.099 31.8932L98.1867 35.6696C96.9575 35.362 95.5081 35.2303 93.4884 35.2303C90.3269 35.2303 88.219 36.5038 87.7358 39.1823L87.3848 41.2023Z" fill="white" />
    <path d="M103.587 49.7645H114.784C114.565 46.3394 112.94 44.7147 109.91 44.7147C106.617 44.7147 104.334 46.6027 103.587 49.7645ZM118.868 53.0576H103.323C103.631 57.0536 106.749 59.7321 111.666 59.7321C114.17 59.7321 116.892 59.205 118.736 58.2391L117.243 63.113C115.706 63.9475 113.115 64.4746 110.129 64.4746C103.06 64.4746 98.4056 59.6882 98.4056 52.3988C98.4056 45.0657 102.841 40.5873 109.91 40.5873C115.75 40.5873 119.439 43.9242 119.439 49.3253C119.439 50.5547 119.219 52.0038 118.868 53.0576Z" fill="white" />
    <path d="M123.961 62.5423L123.653 57.4488C125.673 58.8539 129.362 60.0834 133.226 60.0834C136.168 60.0834 138.276 59.1612 138.276 57.0973C138.276 52.7941 124.136 56.79 124.136 48.0078C124.136 43.9244 127.21 40.4554 134.543 40.4554C139.022 40.4554 142.447 41.5532 142.447 44.2757C142.447 45.1099 142.096 45.8125 141.744 46.4711C139.813 45.5489 136.783 44.8903 134.236 44.8903C130.723 44.8903 128.879 46.2077 128.879 47.6568C128.879 51.4769 143.193 48.1395 143.193 56.7021C143.193 61.4885 138.978 64.4746 132.699 64.4746C128.439 64.4746 125.234 63.1132 123.961 62.5423Z" fill="white" />
    <path d="M167.651 59.0735L166.685 63.5085C165.543 63.9917 163.26 64.4746 161.152 64.4746C155.488 64.4746 153.073 61.5327 153.073 57.3609V45.1539H146.618V41.1582H153.073V34.9229H157.815V41.1582H166.992V45.1539H157.815V55.9121C157.815 58.8542 159.352 60.1713 162.03 60.1713C163.567 60.1713 166.378 59.8201 167.651 59.0735Z" fill="white" />
    <path d="M192.495 61.6774V63.9038H176.974V61.579C183.851 55.7839 188.434 52.4438 188.434 47.8597C188.434 44.5856 186.241 43.1123 183.229 43.1123C180.904 43.1123 178.874 44.127 177.826 44.9786C177.466 44.7492 177.04 44.2909 177.04 43.6031C177.04 41.9007 179.987 40.6236 183.392 40.6236C188.107 40.6236 191.12 43.1123 191.12 47.6305C191.12 53.2624 186.437 56.7986 180.184 61.6774H192.495Z" fill="#FDDE82" />
    <path d="M202.971 50.6427H206.573V54.2115H202.971V50.6427ZM210.568 52.4766C210.568 46.2225 208.538 43.112 204.838 43.112C201.105 43.112 199.075 46.2225 199.075 52.4766C199.075 58.7302 201.105 61.8736 204.838 61.8736C208.538 61.8736 210.568 58.7302 210.568 52.4766ZM196.358 52.4766C196.358 44.6838 199.566 40.6235 204.838 40.6235C210.044 40.6235 213.318 44.6838 213.318 52.4766C213.318 60.2694 210.044 64.3293 204.838 64.3293C199.566 64.3293 196.358 60.2694 196.358 52.4766Z" fill="#FDDE82" />
    <path d="M232.767 61.6774V63.9038H217.246V61.579C224.123 55.7839 228.706 52.4438 228.706 47.8597C228.706 44.5856 226.513 43.1123 223.501 43.1123C221.176 43.1123 219.146 44.127 218.098 44.9786C217.738 44.7492 217.312 44.2909 217.312 43.6031C217.312 41.9007 220.259 40.6236 223.664 40.6236C228.379 40.6236 231.392 43.1123 231.392 47.6305C231.392 53.2624 226.709 56.7986 220.456 61.6774H232.767Z" fill="#FDDE82" />
    <path d="M252.902 61.6774V63.9038H237.382V61.579C244.258 55.7839 248.842 52.4438 248.842 47.8597C248.842 44.5856 246.648 43.1123 243.636 43.1123C241.311 43.1123 239.281 44.127 238.233 44.9786C237.873 44.7492 237.447 44.2909 237.447 43.6031C237.447 41.9007 240.394 40.6236 243.799 40.6236C248.515 40.6236 251.527 43.1123 251.527 47.6305C251.527 53.2624 246.844 56.7986 240.591 61.6774H252.902Z" fill="#FDDE82" />
    <path d="M15.7259 58.8131V46.5693C14.4974 45.5597 12.9613 44.9453 11.3376 44.9453C7.8268 44.9453 5.76384 47.6224 5.76384 52.6692C5.76384 57.4965 7.69489 60.1735 11.2497 60.1735C12.8297 60.1735 14.4534 59.6469 15.7259 58.8131ZM22.2213 61.9729L17.6132 64.4746L16.1211 61.2269C14.5851 63.114 12.303 64.4746 9.3626 64.4746C3.74535 64.4746 0.804932 59.8225 0.804932 52.6253C0.804932 44.8139 4.27177 40.6007 9.80132 40.6007C12.3907 40.6007 14.4094 41.5662 15.7259 43.3655V31.8675H20.4657V58.4621L22.2213 61.9729Z" fill="white" />
    <path d="M30.4709 49.7728H41.6619C41.4423 46.3497 39.8185 44.7259 36.7904 44.7259C33.4987 44.7259 31.2172 46.613 30.4709 49.7728ZM45.7431 53.064H30.2075C30.5146 57.0577 33.6307 59.7348 38.5458 59.7348C41.0473 59.7348 43.7683 59.2081 45.6114 58.2427L44.1194 63.1137C42.5831 63.9479 39.9939 64.4746 37.0096 64.4746C29.9442 64.4746 25.2924 59.6908 25.2924 52.4056C25.2924 45.0767 29.7246 40.6007 36.7904 40.6007C42.6271 40.6007 46.3135 43.9359 46.3135 49.3338C46.3135 50.5625 46.0939 52.0106 45.7431 53.064Z" fill="white" />
    <path d="M57.2845 63.9041L48.3318 41.1715H53.5541L59.3912 57.0578L60.049 59.0328H60.2249L60.883 57.0578L66.6759 41.1715H71.8105L62.9018 63.9041H57.2845Z" fill="white" />
    <path d="M87.3454 41.2152H97.6145L96.9564 44.8577H86.687L83.0885 65.3085C82.0789 71.0134 78.261 73.1638 72.9069 73.1638C70.4494 73.1638 69.3084 72.8128 68.0796 72.5495L67.9917 68.863C69.2204 69.0826 70.6688 69.2143 72.6875 69.2143C75.891 69.2143 77.9977 67.9413 78.4806 65.2645L82.0789 44.8577H74.9256L75.584 41.2152H82.7375L83.0885 39.1086C84.0979 33.4476 87.872 31.2969 93.1822 31.2969C95.6837 31.2969 96.9564 31.6482 98.0534 31.9115L98.1411 35.6857C96.9127 35.3784 95.4641 35.2467 93.4456 35.2467C90.2858 35.2467 88.1791 36.5194 87.6964 39.1965L87.3454 41.2152Z" fill="white" />
    <path d="M103.539 49.7728H114.73C114.51 46.3497 112.886 44.7259 109.858 44.7259C106.566 44.7259 104.285 46.613 103.539 49.7728ZM118.811 53.064H103.275C103.582 57.0577 106.698 59.7348 111.613 59.7348C114.115 59.7348 116.836 59.2081 118.679 58.2427L117.187 63.1137C115.651 63.9479 113.062 64.4746 110.077 64.4746C103.012 64.4746 98.36 59.6908 98.36 52.4056C98.36 45.0767 102.792 40.6007 109.858 40.6007C115.695 40.6007 119.381 43.9359 119.381 49.3338C119.381 50.5625 119.162 52.0106 118.811 53.064Z" fill="white" />
    <path d="M123.901 62.5436L123.593 57.4527C125.612 58.8574 129.299 60.0861 133.16 60.0861C136.101 60.0861 138.207 59.1644 138.207 57.1017C138.207 52.8009 124.076 56.7946 124.076 48.0174C124.076 43.9362 127.148 40.4691 134.477 40.4691C138.953 40.4691 142.376 41.5664 142.376 44.2872C142.376 45.1209 142.025 45.823 141.674 46.4813C139.743 45.5599 136.715 44.9016 134.17 44.9016C130.659 44.9016 128.816 46.218 128.816 47.6663C128.816 51.4842 143.122 48.149 143.122 56.7067C143.122 61.4902 138.909 64.4746 132.634 64.4746C128.377 64.4746 125.173 63.114 123.901 62.5436Z" fill="white" />
    <path d="M167.566 59.0765L166.601 63.509C165.459 63.9917 163.178 64.4746 161.071 64.4746C155.41 64.4746 152.996 61.5342 152.996 57.3648V45.1647H146.545V41.1711H152.996V34.9395H157.736V41.1711H166.908V45.1647H157.736V55.9169C157.736 58.8571 159.272 60.1735 161.949 60.1735C163.485 60.1735 166.294 59.8228 167.566 59.0765Z" fill="white" />
    <path d="M192.396 61.6789V63.9041H176.884V61.5804C183.757 55.7885 188.338 52.4504 188.338 47.8689C188.338 44.5965 186.146 43.1243 183.135 43.1243C180.812 43.1243 178.783 44.1385 177.735 44.9893C177.376 44.7602 176.95 44.3022 176.95 43.6148C176.95 41.9134 179.895 40.637 183.299 40.637C188.011 40.637 191.022 43.1243 191.022 47.6398C191.022 53.2685 186.342 56.8028 180.092 61.6789H192.396Z" fill="#FDDE82" />
    <path d="M202.867 50.6506H206.467V54.2173H202.867V50.6506ZM210.459 52.4834C210.459 46.2327 208.43 43.1243 204.732 43.1243C201.002 43.1243 198.972 46.2327 198.972 52.4834C198.972 58.7336 201.002 61.8751 204.732 61.8751C208.43 61.8751 210.459 58.7336 210.459 52.4834ZM196.257 52.4834C196.257 44.695 199.464 40.637 204.732 40.637C209.935 40.637 213.208 44.695 213.208 52.4834C213.208 60.2718 209.935 64.3293 204.732 64.3293C199.464 64.3293 196.257 60.2718 196.257 52.4834Z" fill="#FDDE82" />
    <path d="M232.645 61.6789V63.9041H217.133V61.5804C224.006 55.7885 228.587 52.4504 228.587 47.8689C228.587 44.5965 226.395 43.1243 223.384 43.1243C221.06 43.1243 219.031 44.1385 217.984 44.9893C217.624 44.7602 217.199 44.3022 217.199 43.6148C217.199 41.9134 220.144 40.637 223.548 40.637C228.26 40.637 231.271 43.1243 231.271 47.6398C231.271 53.2685 226.591 56.8028 220.341 61.6789H232.645Z" fill="#FDDE82" />
    <path d="M252.769 61.6789V63.9041H237.258V61.5804C244.13 55.7885 248.711 52.4504 248.711 47.8689C248.711 44.5965 246.519 43.1243 243.508 43.1243C241.185 43.1243 239.156 44.1385 238.109 44.9893C237.749 44.7602 237.323 44.3022 237.323 43.6148C237.323 41.9134 240.268 40.637 243.672 40.637C248.384 40.637 251.395 43.1243 251.395 47.6398C251.395 53.2685 246.715 56.8028 240.465 61.6789H252.769Z" fill="#FDDE82" />
    <path d="M38.715 11.7896C37.8674 11.304 37.198 10.6344 36.7075 9.78163C36.2165 8.92909 35.9713 7.98763 35.9713 6.95651C35.9713 5.9254 36.2165 4.98321 36.7075 4.13067C37.198 3.27813 37.8674 2.60904 38.715 2.12267C39.5627 1.63704 40.487 1.39423 41.4886 1.39423C42.2718 1.39423 43.0078 1.53298 43.6969 1.81048C44.386 2.08799 44.9537 2.47957 45.4 2.98548L44.4928 3.89298C44.1554 3.47599 43.7216 3.15623 43.1915 2.93369C42.6609 2.71042 42.0932 2.59878 41.4886 2.59878C40.745 2.59878 40.0486 2.77979 39.3993 3.14182C38.7497 3.50384 38.2291 4.0139 37.8376 4.6737C37.446 5.33253 37.2501 6.09371 37.2501 6.95651C37.2501 7.81858 37.446 8.57976 37.8376 9.23883C38.2291 9.89839 38.7497 10.4092 39.3993 10.7705C40.0486 11.1325 40.745 11.3135 41.4886 11.3135C42.2024 11.3135 42.7997 11.2019 43.2806 10.9793C43.7614 10.7561 44.1803 10.461 44.5372 10.0938C44.7949 9.81631 45.0033 9.4797 45.1619 9.08298C45.3206 8.68627 45.4149 8.25487 45.4445 7.78878H41.5184V6.61403H46.6341C46.6837 6.89153 46.7086 7.1495 46.7086 7.38718C46.7086 8.04186 46.6046 8.6787 46.3964 9.29868C46.1881 9.91794 45.8556 10.461 45.4 10.9268C44.3982 11.9877 43.0947 12.5181 41.4886 12.5181C40.487 12.5181 39.5627 12.2753 38.715 11.7896Z" fill="white" />
    <path d="M52.6869 11.0311C53.0736 10.8035 53.3834 10.4788 53.6164 10.0567C53.8492 9.63555 53.9657 9.14747 53.9657 8.59247C53.9657 8.03697 53.8492 7.5489 53.6164 7.12751C53.3834 6.70637 53.0736 6.38148 52.6869 6.15332C52.3005 5.92565 51.8837 5.81132 51.4377 5.81132C51.0011 5.81132 50.59 5.92565 50.2036 6.15332C49.8166 6.38148 49.5066 6.70637 49.2741 7.12751C49.041 7.5489 48.9245 8.03697 48.9245 8.59247C48.9245 9.14747 49.041 9.63555 49.2741 10.0567C49.5066 10.4788 49.8166 10.8035 50.2036 11.0311C50.59 11.2595 51.0011 11.3729 51.4377 11.3729C51.8837 11.3729 52.3005 11.2595 52.6869 11.0311ZM49.4895 12.0056C48.9145 11.6631 48.4657 11.1926 48.1435 10.5922C47.8213 9.99244 47.6606 9.3258 47.6606 8.59247C47.6606 7.8584 47.8213 7.19176 48.1435 6.59205C48.4657 5.99233 48.9145 5.52136 49.4895 5.17888C50.0646 4.83713 50.7141 4.66613 51.4377 4.66613C52.1612 4.66613 52.8135 4.83713 53.3936 5.17888C53.9733 5.52136 54.4242 5.99233 54.7469 6.59205C55.0689 7.19176 55.2299 7.8584 55.2299 8.59247C55.2299 9.3258 55.0689 9.99244 54.7469 10.5922C54.4242 11.1926 53.9733 11.6631 53.3936 12.0056C52.8135 12.3473 52.1612 12.5181 51.4377 12.5181C50.7141 12.5181 50.0646 12.3473 49.4895 12.0056Z" fill="white" />
    <path d="M61.1192 11.0311C61.5059 10.8035 61.8157 10.4788 62.0487 10.0567C62.2815 9.63555 62.398 9.14747 62.398 8.59247C62.398 8.03697 62.2815 7.5489 62.0487 7.12751C61.8157 6.70637 61.5059 6.38148 61.1192 6.15332C60.7328 5.92565 60.316 5.81132 59.87 5.81132C59.4334 5.81132 59.0223 5.92565 58.6359 6.15332C58.2489 6.38148 57.9389 6.70637 57.7064 7.12751C57.4733 7.5489 57.3568 8.03697 57.3568 8.59247C57.3568 9.14747 57.4733 9.63555 57.7064 10.0567C57.9389 10.4788 58.2489 10.8035 58.6359 11.0311C59.0223 11.2595 59.4334 11.3729 59.87 11.3729C60.316 11.3729 60.7328 11.2595 61.1192 11.0311ZM57.9218 12.0056C57.3468 11.6631 56.898 11.1926 56.5758 10.5922C56.2536 9.99244 56.0929 9.3258 56.0929 8.59247C56.0929 7.8584 56.2536 7.19176 56.5758 6.59205C56.898 5.99233 57.3468 5.52136 57.9218 5.17888C58.4969 4.83713 59.1464 4.66613 59.87 4.66613C60.5935 4.66613 61.2458 4.83713 61.8259 5.17888C62.4056 5.52136 62.8566 5.99233 63.1793 6.59205C63.5012 7.19176 63.6622 7.8584 63.6622 8.59247C63.6622 9.3258 63.5012 9.99244 63.1793 10.5922C62.8566 11.1926 62.4056 11.6631 61.8259 12.0056C61.2458 12.3473 60.5935 12.5181 59.87 12.5181C59.1464 12.5181 58.4969 12.3473 57.9218 12.0056Z" fill="white" />
    <path d="M69.4177 11.0366C69.7843 10.8126 70.0794 10.4911 70.3025 10.0724C70.5253 9.65373 70.6369 9.16052 70.6369 8.59232C70.6369 8.02413 70.5253 7.52775 70.3025 7.10465C70.0794 6.68082 69.7843 6.3591 69.4177 6.13974C69.0505 5.92086 68.6492 5.81118 68.2129 5.81118C67.7764 5.81118 67.375 5.92355 67.0083 6.14731C66.6414 6.37181 66.3466 6.69279 66.1235 7.11149C65.9003 7.53019 65.7891 8.02413 65.7891 8.59232C65.7891 9.16052 65.9003 9.65373 66.1235 10.0724C66.3466 10.4911 66.6414 10.8126 67.0083 11.0366C67.375 11.2611 67.7764 11.3727 68.2129 11.3727C68.6492 11.3727 69.0505 11.2611 69.4177 11.0366ZM65.9972 15.0909C65.432 14.6647 65.0502 14.169 64.8518 13.604L66.0268 13.1132C66.1756 13.549 66.4409 13.9035 66.8227 14.1766C67.2042 14.449 67.6576 14.585 68.1833 14.585C68.9665 14.585 69.5686 14.3581 69.9903 13.9035C70.4117 13.4486 70.6222 12.8137 70.6222 11.9976V11.2093H70.5626C70.3249 11.5865 69.9827 11.8987 69.5366 12.1466C69.0903 12.3943 68.5849 12.5179 68.0197 12.5179C67.395 12.5179 66.8151 12.3489 66.2796 12.011C65.7442 11.6722 65.3179 11.2044 65.0008 10.6072C64.6833 10.0099 64.525 9.33836 64.525 8.59232C64.525 7.84556 64.6833 7.17403 65.0008 6.57676C65.3179 5.97949 65.7442 5.51169 66.2796 5.17361C66.8151 4.83503 67.395 4.66599 68.0197 4.66599C68.5849 4.66599 69.0903 4.79033 69.5366 5.03754C69.9827 5.28598 70.3249 5.59817 70.5626 5.97461H70.6222V4.90368H71.8268V11.9825C71.8268 12.7954 71.668 13.4848 71.3509 14.0498C71.0334 14.6148 70.5998 15.036 70.0496 15.3142C69.4993 15.5917 68.8773 15.7305 68.1833 15.7305C67.291 15.7305 66.5623 15.5172 65.9972 15.0909Z" fill="white" />
    <path d="M73.3438 1.63206H74.6079V12.2803H73.3438V1.63206Z" fill="white" />
    <path d="M81.5977 7.77437C81.5779 7.47683 81.4936 7.17905 81.3448 6.88201C81.1963 6.58447 80.9557 6.3314 80.6237 6.12327C80.2912 5.91539 79.8674 5.81132 79.352 5.81132C78.7967 5.81132 78.316 5.98965 77.9095 6.34654C77.503 6.70368 77.2451 7.17905 77.1363 7.77437H81.5977ZM77.5599 12.0129C76.9998 11.6755 76.5611 11.2095 76.244 10.6146C75.9264 10.0193 75.7681 9.34583 75.7681 8.59222C75.7681 7.87843 75.9167 7.22131 76.2142 6.6216C76.5117 6.02189 76.9353 5.54579 77.4857 5.19378C78.0358 4.84201 78.668 4.66589 79.382 4.66589C80.0956 4.66589 80.7226 4.82736 81.263 5.14908C81.8033 5.47128 82.2172 5.9254 82.5049 6.50997C82.7924 7.09526 82.9361 7.76924 82.9361 8.53237C82.9361 8.67186 82.9261 8.77079 82.9065 8.83015H77.0469C77.0665 9.38565 77.2006 9.85345 77.4485 10.235C77.6962 10.6173 78.0062 10.9024 78.378 11.0902C78.7498 11.2788 79.1338 11.3726 79.5306 11.3726C80.4622 11.3726 81.1812 10.9175 81.6868 10.0049L82.8022 10.5404C82.4849 11.1349 82.0462 11.6137 81.486 11.9755C80.9261 12.3371 80.2541 12.5181 79.4712 12.5181C78.7574 12.5181 78.1201 12.3495 77.5599 12.0129Z" fill="white" />
    <path d="M90.9966 11.0757C92.2554 11.0757 93.2521 10.7137 93.9859 9.98989C94.7192 9.26657 95.0861 8.25501 95.0861 6.95641C95.0861 5.65732 94.7192 4.64648 93.9859 3.92243C93.2521 3.19863 92.2554 2.8366 90.9966 2.8366H89.0336V11.0757H90.9966ZM87.7694 1.63205H90.9966C92.0871 1.63205 93.0388 1.85777 93.8518 2.30871C94.6647 2.76014 95.2894 3.38721 95.7257 4.18992C96.1617 4.99336 96.3801 5.91528 96.3801 6.95641C96.3801 7.99704 96.1617 8.91896 95.7257 9.7224C95.2894 10.5251 94.6647 11.1527 93.8518 11.6036C93.0388 12.055 92.0871 12.2803 90.9966 12.2803H87.7694V1.63205Z" fill="white" />
    <path d="M103.28 7.77437C103.261 7.47683 103.176 7.17905 103.028 6.88201C102.879 6.58447 102.638 6.3314 102.306 6.12327C101.974 5.91539 101.55 5.81132 101.035 5.81132C100.479 5.81132 99.9984 5.98965 99.5922 6.34654C99.1857 6.70368 98.9277 7.17905 98.819 7.77437H103.28ZM99.2426 12.0129C98.6825 11.6755 98.2437 11.2095 97.9267 10.6146C97.6091 10.0193 97.4508 9.34583 97.4508 8.59222C97.4508 7.87843 97.5993 7.22131 97.8969 6.6216C98.1944 6.02189 98.618 5.54579 99.1683 5.19378C99.7185 4.84201 100.351 4.66589 101.065 4.66589C101.778 4.66589 102.405 4.82736 102.946 5.14908C103.486 5.47128 103.9 5.9254 104.188 6.50997C104.475 7.09526 104.619 7.76924 104.619 8.53237C104.619 8.67186 104.609 8.77079 104.589 8.83015H98.7296C98.7492 9.38565 98.8833 9.85345 99.1312 10.235C99.3789 10.6173 99.6889 10.9024 100.061 11.0902C100.433 11.2788 100.817 11.3726 101.213 11.3726C102.145 11.3726 102.864 10.9175 103.369 10.0049L104.485 10.5404C104.168 11.1349 103.729 11.6137 103.169 11.9755C102.609 12.3371 101.937 12.5181 101.154 12.5181C100.44 12.5181 99.8027 12.3495 99.2426 12.0129Z" fill="white" />
    <path d="M104.916 4.90371H106.284L108.545 10.7931H108.575L110.865 4.90371H112.203L109.184 12.2803H107.905L104.916 4.90371Z" fill="white" />
    <path d="M118.554 7.77437C118.534 7.47683 118.45 7.17905 118.301 6.88201C118.152 6.58447 117.912 6.3314 117.58 6.12327C117.247 5.91539 116.824 5.81132 116.308 5.81132C115.753 5.81132 115.272 5.98965 114.866 6.34654C114.459 6.70368 114.201 7.17905 114.093 7.77437H118.554ZM114.516 12.0129C113.956 11.6755 113.517 11.2095 113.2 10.6146C112.883 10.0193 112.724 9.34583 112.724 8.59222C112.724 7.87843 112.873 7.22131 113.17 6.6216C113.468 6.02189 113.891 5.54579 114.442 5.19378C114.992 4.84201 115.624 4.66589 116.338 4.66589C117.052 4.66589 117.679 4.82736 118.219 5.14908C118.76 5.47128 119.173 5.9254 119.461 6.50997C119.749 7.09526 119.892 7.76924 119.892 8.53237C119.892 8.67186 119.882 8.77079 119.863 8.83015H114.003C114.023 9.38565 114.157 9.85345 114.405 10.235C114.652 10.6173 114.962 10.9024 115.334 11.0902C115.706 11.2788 116.09 11.3726 116.487 11.3726C117.418 11.3726 118.137 10.9175 118.643 10.0049L119.758 10.5404C119.441 11.1349 119.002 11.6137 118.442 11.9755C117.882 12.3371 117.21 12.5181 116.427 12.5181C115.714 12.5181 115.076 12.3495 114.516 12.0129Z" fill="white" />
    <path d="M121.171 1.63206H122.435V12.2803H121.171V1.63206Z" fill="white" />
    <path d="M128.666 11.0311C129.053 10.8035 129.363 10.4788 129.596 10.0567C129.829 9.63555 129.945 9.14747 129.945 8.59247C129.945 8.03697 129.829 7.5489 129.596 7.12751C129.363 6.70637 129.053 6.38148 128.666 6.15332C128.28 5.92565 127.863 5.81132 127.417 5.81132C126.98 5.81132 126.569 5.92565 126.183 6.15332C125.796 6.38148 125.486 6.70637 125.253 7.12751C125.02 7.5489 124.904 8.03697 124.904 8.59247C124.904 9.14747 125.02 9.63555 125.253 10.0567C125.486 10.4788 125.796 10.8035 126.183 11.0311C126.569 11.2595 126.98 11.3729 127.417 11.3729C127.863 11.3729 128.28 11.2595 128.666 11.0311ZM125.469 12.0056C124.894 11.6631 124.445 11.1926 124.123 10.5922C123.801 9.99244 123.64 9.3258 123.64 8.59247C123.64 7.8584 123.801 7.19176 124.123 6.59205C124.445 5.99233 124.894 5.52136 125.469 5.17888C126.044 4.83713 126.693 4.66613 127.417 4.66613C128.141 4.66613 128.793 4.83713 129.373 5.17888C129.953 5.52136 130.404 5.99233 130.726 6.59205C131.048 7.19176 131.209 7.8584 131.209 8.59247C131.209 9.3258 131.048 9.99244 130.726 10.5922C130.404 11.1926 129.953 11.6631 129.373 12.0056C128.793 12.3473 128.141 12.5181 127.417 12.5181C126.693 12.5181 126.044 12.3473 125.469 12.0056Z" fill="white" />
    <path d="M137.21 11.0309C137.582 10.8032 137.879 10.4786 138.103 10.0564C138.325 9.6353 138.437 9.14722 138.437 8.59222C138.437 8.03672 138.325 7.54865 138.103 7.12726C137.879 6.70612 137.582 6.38123 137.21 6.15307C136.839 5.9254 136.434 5.81107 135.998 5.81107C135.562 5.81107 135.158 5.92271 134.786 6.14549C134.415 6.36852 134.117 6.69097 133.894 7.11212C133.671 7.53399 133.559 8.02646 133.559 8.59222C133.559 9.14722 133.671 9.63774 133.894 10.064C134.117 10.4905 134.415 10.8152 134.786 11.0384C135.158 11.2617 135.562 11.3726 135.998 11.3726C136.434 11.3726 136.839 11.2593 137.21 11.0309ZM132.355 4.90357H133.559V5.98964H133.619C133.857 5.61247 134.199 5.29784 134.645 5.04501C135.091 4.79218 135.606 4.66588 136.191 4.66588C136.826 4.66588 137.411 4.83688 137.946 5.17863C138.482 5.52111 138.908 5.98964 139.225 6.58422C139.543 7.17905 139.701 7.84814 139.701 8.59222C139.701 9.33581 139.543 10.0049 139.225 10.5995C138.908 11.1943 138.482 11.6628 137.946 12.0053C137.411 12.3471 136.826 12.5178 136.191 12.5178C135.606 12.5178 135.088 12.3918 134.637 12.1389C134.186 11.8861 133.847 11.5663 133.619 11.1796H133.559L133.619 12.2056V15.4927H132.355V4.90357Z" fill="white" />
    <path d="M146.691 7.77437C146.671 7.47683 146.587 7.17905 146.438 6.88201C146.289 6.58447 146.049 6.3314 145.717 6.12327C145.384 5.91539 144.96 5.81132 144.445 5.81132C143.89 5.81132 143.409 5.98965 143.002 6.34654C142.596 6.70368 142.338 7.17905 142.229 7.77437H146.691ZM142.653 12.0129C142.093 11.6755 141.654 11.2095 141.337 10.6146C141.019 10.0193 140.861 9.34583 140.861 8.59222C140.861 7.87843 141.01 7.22131 141.307 6.6216C141.605 6.02189 142.028 5.54579 142.579 5.19378C143.129 4.84201 143.761 4.66589 144.475 4.66589C145.189 4.66589 145.816 4.82736 146.356 5.14908C146.896 5.47128 147.31 5.9254 147.598 6.50997C147.885 7.09526 148.029 7.76924 148.029 8.53237C148.029 8.67186 148.019 8.77079 147.999 8.83015H142.14C142.159 9.38565 142.294 9.85345 142.541 10.235C142.789 10.6173 143.099 10.9024 143.471 11.0902C143.843 11.2788 144.227 11.3726 144.624 11.3726C145.555 11.3726 146.274 10.9175 146.78 10.0049L147.895 10.5404C147.578 11.1349 147.139 11.6137 146.579 11.9755C146.019 12.3371 145.347 12.5181 144.564 12.5181C143.85 12.5181 143.213 12.3495 142.653 12.0129Z" fill="white" />
    <path d="M149.308 4.90371H150.513V6.10826H150.572C150.711 5.70202 150.996 5.36027 151.427 5.08228C151.859 4.80478 152.287 4.66602 152.714 4.66602C153.021 4.66602 153.308 4.71586 153.576 4.81479V6.16811C153.308 6.01934 152.961 5.94484 152.535 5.94484C152.188 5.94484 151.863 6.04695 151.561 6.25019C151.259 6.45441 151.018 6.72507 150.84 7.06291C150.661 7.40027 150.572 7.76864 150.572 8.16584V12.2803H149.308V4.90371Z" fill="white" />
    <path d="M160.082 11.7896C159.235 11.304 158.565 10.6344 158.075 9.78163C157.584 8.92909 157.339 7.98763 157.339 6.95651C157.339 5.9254 157.584 4.98321 158.075 4.13067C158.565 3.27813 159.235 2.60904 160.082 2.12267C160.93 1.63704 161.854 1.39423 162.856 1.39423C163.639 1.39423 164.375 1.53298 165.064 1.81048C165.753 2.08799 166.321 2.47957 166.767 2.98548L165.86 3.89298C165.523 3.47599 165.089 3.15623 164.559 2.93369C164.028 2.71042 163.46 2.59878 162.856 2.59878C162.112 2.59878 161.416 2.77979 160.767 3.14182C160.117 3.50384 159.596 4.0139 159.205 4.6737C158.813 5.33253 158.617 6.09371 158.617 6.95651C158.617 7.81858 158.813 8.57976 159.205 9.23883C159.596 9.89839 160.117 10.4092 160.767 10.7705C161.416 11.1325 162.112 11.3135 162.856 11.3135C163.57 11.3135 164.167 11.2019 164.648 10.9793C165.129 10.7561 165.548 10.461 165.905 10.0938C166.162 9.81631 166.371 9.4797 166.529 9.08298C166.688 8.68627 166.782 8.25487 166.812 7.78878H162.886V6.61403H168.001C168.051 6.89153 168.076 7.1495 168.076 7.38718C168.076 8.04186 167.972 8.6787 167.764 9.29868C167.555 9.91794 167.223 10.461 166.767 10.9268C165.766 11.9877 164.462 12.5181 162.856 12.5181C161.854 12.5181 160.93 12.2753 160.082 11.7896Z" fill="white" />
    <path d="M169.518 4.90371H170.723V6.10826H170.783C170.921 5.70202 171.206 5.36027 171.638 5.08228C172.069 4.80478 172.498 4.66602 172.924 4.66602C173.231 4.66602 173.519 4.71586 173.786 4.81479V6.16811C173.519 6.01934 173.172 5.94484 172.746 5.94484C172.398 5.94484 172.074 6.04695 171.772 6.25019C171.469 6.45441 171.229 6.72507 171.05 7.06291C170.872 7.40027 170.783 7.76864 170.783 8.16584V12.2803H169.518V4.90371Z" fill="white" />
    <path d="M178.977 11.0311C179.363 10.8035 179.673 10.4788 179.906 10.0567C180.139 9.63555 180.255 9.14747 180.255 8.59247C180.255 8.03697 180.139 7.5489 179.906 7.12751C179.673 6.70637 179.363 6.38148 178.977 6.15332C178.59 5.92565 178.173 5.81132 177.727 5.81132C177.291 5.81132 176.88 5.92565 176.493 6.15332C176.106 6.38148 175.796 6.70637 175.564 7.12751C175.331 7.5489 175.214 8.03697 175.214 8.59247C175.214 9.14747 175.331 9.63555 175.564 10.0567C175.796 10.4788 176.106 10.8035 176.493 11.0311C176.88 11.2595 177.291 11.3729 177.727 11.3729C178.173 11.3729 178.59 11.2595 178.977 11.0311ZM175.779 12.0056C175.204 11.6631 174.755 11.1926 174.433 10.5922C174.111 9.99244 173.95 9.3258 173.95 8.59247C173.95 7.8584 174.111 7.19176 174.433 6.59205C174.755 5.99233 175.204 5.52136 175.779 5.17888C176.354 4.83713 177.004 4.66613 177.727 4.66613C178.451 4.66613 179.103 4.83713 179.683 5.17888C180.263 5.52136 180.714 5.99233 181.037 6.59205C181.359 7.19176 181.52 7.8584 181.52 8.59247C181.52 9.3258 181.359 9.99244 181.037 10.5922C180.714 11.1926 180.263 11.6631 179.683 12.0056C179.103 12.3473 178.451 12.5181 177.727 12.5181C177.004 12.5181 176.354 12.3473 175.779 12.0056Z" fill="white" />
    <path d="M183.371 11.7298C182.9 11.2046 182.665 10.4761 182.665 9.54394V4.90382H183.929V9.33581C183.929 10.6943 184.539 11.3729 185.758 11.3729C186.165 11.3729 186.529 11.2593 186.851 11.0311C187.173 10.8035 187.421 10.5057 187.595 10.1388C187.768 9.77234 187.855 9.38565 187.855 8.97892V4.90382H189.104V12.2804H187.915V11.1799H187.855C187.637 11.5571 187.307 11.8741 186.866 12.1314C186.425 12.3893 185.951 12.5181 185.446 12.5181C184.534 12.5181 183.842 12.2557 183.371 11.7298Z" fill="white" />
    <path d="M195.611 11.0309C195.982 10.8032 196.28 10.4786 196.503 10.0564C196.726 9.6353 196.837 9.14722 196.837 8.59222C196.837 8.03672 196.726 7.54865 196.503 7.12726C196.28 6.70612 195.982 6.38123 195.611 6.15307C195.239 5.9254 194.835 5.81107 194.398 5.81107C193.962 5.81107 193.558 5.92271 193.186 6.14549C192.815 6.36852 192.517 6.69097 192.294 7.11212C192.071 7.53399 191.96 8.02646 191.96 8.59222C191.96 9.14722 192.071 9.63774 192.294 10.064C192.517 10.4905 192.815 10.8152 193.186 11.0384C193.558 11.2617 193.962 11.3726 194.398 11.3726C194.835 11.3726 195.239 11.2593 195.611 11.0309ZM190.755 4.90357H191.96V5.98964H192.019C192.257 5.61247 192.599 5.29784 193.045 5.04501C193.491 4.79218 194.007 4.66588 194.592 4.66588C195.226 4.66588 195.811 4.83688 196.347 5.17863C196.882 5.52111 197.308 5.98964 197.626 6.58422C197.943 7.17905 198.102 7.84814 198.102 8.59222C198.102 9.33581 197.943 10.0049 197.626 10.5995C197.308 11.1943 196.882 11.6628 196.347 12.0053C195.811 12.3471 195.226 12.5178 194.592 12.5178C194.007 12.5178 193.489 12.3918 193.038 12.1389C192.586 11.8861 192.247 11.5663 192.019 11.1796H191.96L192.019 12.2056V15.4927H190.755V4.90357Z" fill="white" />
    <path d="M199.916 11.9235C199.37 11.5268 198.989 11.0363 198.771 10.451L199.886 9.96044C200.084 10.4263 200.364 10.7834 200.726 11.0311C201.088 11.2791 201.482 11.4032 201.909 11.4032C202.384 11.4032 202.778 11.2991 203.091 11.0905C203.403 10.8824 203.559 10.6295 203.559 10.3325C203.559 10.045 203.442 9.80703 203.21 9.61845C202.977 9.42986 202.578 9.26668 202.013 9.12793L201.001 8.8751C200.446 8.74636 199.973 8.51307 199.581 8.17572C199.189 7.83886 198.994 7.39304 198.994 6.83755C198.994 6.38148 199.125 5.98989 199.388 5.66256C199.65 5.33522 200 5.08752 200.436 4.91921C200.872 4.75065 201.348 4.66613 201.864 4.66613C202.498 4.66613 203.076 4.81246 203.596 5.10511C204.117 5.39702 204.486 5.81132 204.704 6.34679L203.589 6.8224C203.43 6.46551 203.19 6.20315 202.868 6.03411C202.545 5.86555 202.186 5.78176 201.79 5.78176C201.403 5.78176 201.053 5.87581 200.741 6.0644C200.429 6.25225 200.273 6.49507 200.273 6.7926C200.273 7.05056 200.374 7.2538 200.577 7.40257C200.781 7.55134 201.105 7.68496 201.552 7.80417L202.652 8.07166C203.386 8.26024 203.933 8.54019 204.295 8.91223C204.657 9.28378 204.838 9.72764 204.838 10.2428C204.838 10.6691 204.714 11.0563 204.466 11.4032C204.218 11.75 203.872 12.0224 203.426 12.2213C202.979 12.4191 202.474 12.5181 201.909 12.5181C201.125 12.5181 200.461 12.3202 199.916 11.9235Z" fill="white" />
    <path d="M11.7546 9.81857L3.50348 5.05289C2.37246 4.41605 0.939506 4.81643 0.302664 5.94745C-0.324406 7.06113 0.0534979 8.47185 1.1535 9.12262L9.40459 13.8866C10.5466 14.5034 11.9722 14.0779 12.589 12.9361C13.1814 11.84 12.8152 10.4723 11.7546 9.81857Z" fill="white" />
    <path d="M28.2089 5.05308L19.9578 0.289354C18.8197 -0.334052 17.3919 0.0829363 16.7685 1.22104C16.1648 2.32275 16.5349 3.70441 17.6083 4.35713L25.8594 9.12281C26.9833 9.77162 28.4204 9.38663 29.069 8.2627C29.7178 7.13876 29.3328 5.70189 28.2089 5.05308Z" fill="white" />
    <path d="M25.5328 9.68875L21.6819 7.46457L17.6083 9.81871C16.4846 10.4675 16.0994 11.9044 16.7482 13.0283C17.397 14.1523 18.8338 14.5372 19.9578 13.8884L26.5908 10.0593C26.218 10.0029 25.8591 9.87734 25.5328 9.68875Z" fill="white" />
    <path d="M3.82971 4.48724L7.68105 6.71143L11.7547 4.35729C12.8596 3.67647 13.2033 2.22886 12.5222 1.12398C11.8688 0.0633097 10.5008 -0.302868 9.4047 0.28927L2.77222 4.11862C3.14475 4.17432 3.50335 4.29939 3.82971 4.48724Z" fill="white" />
    <path d="M108.628 85.8169H110.239V97.9965H116.262V99.5502H108.628V85.8169Z" fill="#FFBA00" />
    <path d="M121.187 99.857C120.471 99.857 119.831 99.7164 119.269 99.4351C118.706 99.1538 118.271 98.7701 117.965 98.2842C117.658 97.7855 117.504 97.2229 117.504 96.5964C117.504 95.5606 117.894 94.755 118.674 94.1796C119.454 93.5914 120.439 93.2973 121.628 93.2973C122.216 93.2973 122.76 93.3612 123.258 93.4891C123.77 93.617 124.16 93.764 124.428 93.9303V93.3357C124.428 92.6068 124.173 92.025 123.661 91.5902C123.15 91.1427 122.504 90.9189 121.724 90.9189C121.174 90.9189 120.669 91.0404 120.209 91.2833C119.748 91.5135 119.384 91.8396 119.115 92.2616L117.888 91.3409C118.271 90.7527 118.796 90.2924 119.461 89.9599C120.138 89.6274 120.886 89.4612 121.705 89.4612C123.035 89.4612 124.077 89.8128 124.831 90.5161C125.598 91.2066 125.982 92.1529 125.982 93.3548V99.5502H124.428V98.15H124.352C124.07 98.6231 123.648 99.0259 123.086 99.3583C122.523 99.6908 121.89 99.857 121.187 99.857ZM121.34 98.4185C121.89 98.4185 122.402 98.2778 122.875 97.9965C123.348 97.7152 123.725 97.338 124.006 96.8649C124.288 96.3918 124.428 95.8739 124.428 95.3113C124.122 95.1067 123.744 94.9404 123.297 94.8126C122.849 94.6847 122.376 94.6208 121.877 94.6208C120.982 94.6208 120.305 94.8062 119.844 95.177C119.397 95.5478 119.173 96.0273 119.173 96.6155C119.173 97.1526 119.378 97.5873 119.787 97.9198C120.196 98.2523 120.714 98.4185 121.34 98.4185Z" fill="#FFBA00" />
    <path d="M132.453 104C131.302 104 130.349 103.732 129.595 103.194C128.853 102.657 128.355 102.012 128.099 101.257L129.576 100.624C129.793 101.187 130.151 101.641 130.65 101.986C131.161 102.344 131.762 102.523 132.453 102.523C133.463 102.523 134.243 102.229 134.793 101.641C135.356 101.053 135.637 100.221 135.637 99.1474V98.0541H135.56C135.24 98.5528 134.787 98.962 134.198 99.2816C133.623 99.5885 132.964 99.742 132.223 99.742C131.379 99.742 130.605 99.5246 129.902 99.0898C129.211 98.6551 128.662 98.0477 128.252 97.2677C127.843 96.4877 127.639 95.599 127.639 94.6016C127.639 93.617 127.843 92.7347 128.252 91.9547C128.662 91.1619 129.211 90.5481 129.902 90.1133C130.605 89.6786 131.379 89.4612 132.223 89.4612C132.964 89.4612 133.623 89.621 134.198 89.9407C134.787 90.2476 135.24 90.6568 135.56 91.1683H135.637V89.7681H137.19V99.1665C137.19 100.739 136.756 101.935 135.886 102.753C135.017 103.584 133.872 104 132.453 104ZM132.453 98.2651C133.041 98.2651 133.572 98.118 134.045 97.8239C134.531 97.5298 134.914 97.1078 135.196 96.558C135.49 96.0081 135.637 95.356 135.637 94.6016C135.637 93.8344 135.49 93.1758 135.196 92.626C134.914 92.0761 134.531 91.6606 134.045 91.3792C133.572 91.0851 133.041 90.9381 132.453 90.9381C131.865 90.9381 131.328 91.0851 130.842 91.3792C130.356 91.6733 129.966 92.0953 129.672 92.6452C129.39 93.195 129.25 93.8471 129.25 94.6016C129.25 95.356 129.39 96.0145 129.672 96.5772C129.966 97.127 130.356 97.549 130.842 97.8431C131.328 98.1244 131.865 98.2651 132.453 98.2651Z" fill="#FFBA00" />
    <path d="M144.015 99.857C143.056 99.857 142.193 99.6269 141.425 99.1665C140.658 98.7062 140.057 98.0796 139.623 97.2869C139.201 96.4941 138.99 95.6181 138.99 94.6591C138.99 93.7001 139.201 92.8242 139.623 92.0314C140.057 91.2386 140.658 90.612 141.425 90.1517C142.193 89.6914 143.056 89.4612 144.015 89.4612C144.974 89.4612 145.837 89.6914 146.604 90.1517C147.371 90.612 147.966 91.2386 148.388 92.0314C148.823 92.8242 149.04 93.7001 149.04 94.6591C149.04 95.6181 148.823 96.4941 148.388 97.2869C147.966 98.0796 147.371 98.7062 146.604 99.1665C145.837 99.6269 144.974 99.857 144.015 99.857ZM144.015 98.3801C144.616 98.3801 145.172 98.2331 145.684 97.939C146.208 97.6321 146.623 97.1973 146.93 96.6347C147.25 96.0721 147.41 95.4136 147.41 94.6591C147.41 93.9047 147.25 93.2462 146.93 92.6835C146.623 92.1209 146.208 91.6925 145.684 91.3984C145.172 91.0915 144.616 90.9381 144.015 90.9381C143.414 90.9381 142.851 91.0915 142.327 91.3984C141.803 91.6925 141.381 92.1209 141.061 92.6835C140.754 93.2462 140.601 93.9047 140.601 94.6591C140.601 95.4136 140.754 96.0721 141.061 96.6347C141.381 97.1973 141.803 97.6321 142.327 97.939C142.851 98.2331 143.414 98.3801 144.015 98.3801Z" fill="#FFBA00" />
    <path d="M154.254 99.857C153.205 99.857 152.329 99.6141 151.626 99.1282C150.923 98.6295 150.424 97.9965 150.13 97.2293L151.588 96.5772C151.831 97.1654 152.189 97.6193 152.662 97.939C153.148 98.2587 153.678 98.4185 154.254 98.4185C154.868 98.4185 155.392 98.297 155.827 98.0541C156.261 97.7983 156.479 97.4403 156.479 96.98C156.479 96.5708 156.306 96.2447 155.961 96.0018C155.616 95.746 155.072 95.5286 154.331 95.3496L153.141 95.0427C152.361 94.8509 151.722 94.5249 151.223 94.0645C150.725 93.6042 150.475 93.0096 150.475 92.2807C150.475 91.7181 150.641 91.2258 150.974 90.8038C151.319 90.3691 151.773 90.0366 152.336 89.8064C152.898 89.5763 153.506 89.4612 154.158 89.4612C155.015 89.4612 155.775 89.6466 156.44 90.0174C157.118 90.3883 157.598 90.9061 157.879 91.5711L156.46 92.2232C156.025 91.3537 155.251 90.9189 154.139 90.9189C153.602 90.9189 153.129 91.0468 152.719 91.3025C152.323 91.5455 152.125 91.8588 152.125 92.2424C152.125 92.6004 152.265 92.8945 152.547 93.1247C152.828 93.3421 153.25 93.5211 153.813 93.6617L155.232 94.0262C156.191 94.2691 156.914 94.6335 157.399 95.1195C157.885 95.5926 158.128 96.1744 158.128 96.8649C158.128 97.4659 157.956 97.9965 157.61 98.4569C157.265 98.9044 156.798 99.2497 156.21 99.4926C155.622 99.7356 154.97 99.857 154.254 99.857Z" fill="#FFBA00" />
</svg>
    