<svg width="428" height="440" viewBox="0 0 428 440" fill="none" xmlns="http://www.w3.org/2000/svg">
    <path d="M180.687 205.708L145.019 479.051L177.894 478.378L219.433 306.224C221.751 299.208 229.518 299.278 232.004 306.224L250.623 479.393L281.553 478.943C281.553 478.943 289.901 310.222 258.941 194.439L180.687 205.708Z" fill="#66CDDC" />
    <path d="M266.797 228.969C266.738 228.666 266.68 228.365 266.621 228.064L267.209 228.017C267.098 228.3 266.962 228.618 266.797 228.969Z" fill="#D8DCE0" />
    <path d="M210.266 251.007C180.584 251.006 178.644 235.519 178.644 235.519L204.154 232.944L266.621 228.063C266.681 228.365 266.739 228.666 266.797 228.968C264.313 234.211 255.129 246.412 222.75 250.221C218.12 250.765 213.978 251.007 210.266 251.007Z" fill="#5BB6CA" />
    <path d="M232.9 201.262L242.002 231.52C244.79 240.781 253.679 247.11 263.734 247.11C263.896 247.11 264.057 247.109 264.219 247.105L264.206 246.476L264.202 247.106L270.125 247.143L270.133 245.884L264.202 245.846H264.194C264.04 245.848 263.886 245.85 263.734 245.85C254.205 245.851 245.82 239.851 243.208 231.157L234.106 200.898L232.9 201.262Z" fill="#202650" />
    <path d="M193.815 200.269L196.38 231.634C196.425 232.191 196.447 232.745 196.447 233.296C196.447 241.823 191.072 249.524 182.916 252.398L173.956 255.553L174.365 256.712L183.323 253.555C191.974 250.508 197.676 242.343 197.676 233.296C197.676 232.712 197.652 232.124 197.603 231.533L195.038 200.169L193.815 200.269Z" fill="#202650" />
    <path d="M377.726 110.623C377.726 110.623 378.574 85.5918 381.271 86.6013C383.967 87.6094 383.339 98.5747 383.644 100.402C384.133 103.319 389.021 95.8819 393.773 88.4458C397.964 81.8843 402.048 75.3229 402.911 75.8726C404.563 76.923 399.757 91.5534 399.757 91.5534C399.757 91.5534 402.769 77.4013 404.507 78.3169C406.245 79.2299 405.445 92.5999 405.445 92.5999C405.445 92.5999 406.379 80.1958 407.305 81.7192C408.231 83.2439 408.435 95.0165 408.435 95.0165C408.435 95.0165 408.316 86.6846 408.337 89.3562C408.481 107.586 393.253 125.899 393.253 125.899C393.253 125.899 356.505 167.717 333.454 177.245C306.874 188.232 276.59 182.918 260.549 162.436L226.12 118.476C217.649 104.618 216.075 90.6021 231.24 80.756C246.406 70.9099 266.239 79.0106 274.711 92.8681L305.677 129.932C315.343 142.552 340.532 137.658 355.057 127.47L376.538 112.402C377.152 111.971 377.583 111.328 377.726 110.625V110.623Z" fill="#F8A488" />
    <path d="M309.674 182.803L309.679 182.728C310.216 182.696 310.753 182.659 311.291 182.615C310.775 182.677 310.235 182.741 309.674 182.803Z" fill="#C2C3CD" />
    <path d="M309.679 182.728L313.042 137.694L320.951 181.046C320.951 181.046 318.044 181.805 311.291 182.616C310.753 182.66 310.215 182.697 309.679 182.728Z" fill="#C48177" />
    <path d="M47.2491 66.9587C47.2491 66.9587 59.6651 45.2079 56.8402 44.6516C54.0154 44.094 48.795 53.7578 47.5768 55.1518C45.6411 57.3636 45.3755 48.597 45.2342 39.8303C45.1087 31.9872 45.0835 24.1468 44.0543 24.16C42.0948 24.1864 38.5076 39.1631 38.5076 39.1631C38.5076 39.1631 43.3712 25.5367 41.4117 25.402C39.4523 25.2685 33.1154 37.0689 33.1154 37.0689C33.1154 37.0689 38.8313 26.0203 37.2431 26.8303C35.6562 27.6429 29.3022 37.555 29.3022 37.555C29.3022 37.555 33.7774 30.5259 32.357 32.7892C22.6668 48.2296 26.0149 71.8104 26.0149 71.8104C26.0149 71.8104 35.3444 126.695 49.963 146.902C66.8211 170.206 95.3857 181.579 119.791 172.564L172.17 153.218C186.654 145.869 192.12 126.664 184.38 110.324C176.64 93.9827 160.37 95.7559 145.886 103.105L98.4405 121.212C83.5881 126.878 64.7177 109.493 57.7017 93.1952L47.3257 69.0965C47.0298 68.4068 47.002 67.6326 47.2491 66.96V66.9587Z" fill="#F8A488" />
    <path d="M297.852 116.009C297.852 116.009 269.52 56.7502 233.774 76.7939C232.52 77.4968 230.965 77.2643 229.607 77.617C217.441 79.521 204.78 78.2962 184.537 77.6382C174.975 74.1037 163.411 75.721 154.614 82.7924L111.789 113.565C111.789 113.565 150.485 166.098 154.967 170.582L168.232 158.471C169.936 198.687 168.232 235.752 168.232 235.752L270.837 227.734L267.142 168.996L272.765 176.134C272.686 169.793 297.852 116.009 297.852 116.009Z" fill="#202124" />
    <path d="M169.293 224.29C169.298 224.289 170.889 224.183 173.682 223.997C174.02 223.975 174.276 223.683 174.254 223.344C174.231 223.006 173.938 222.75 173.6 222.772C170.807 222.959 169.216 223.064 169.212 223.064C168.872 223.087 168.617 223.38 168.64 223.718C168.662 224.057 168.954 224.313 169.293 224.29ZM178.05 223.708C179.383 223.619 180.844 223.521 182.415 223.417C182.754 223.395 183.009 223.103 182.986 222.764C182.964 222.426 182.672 222.17 182.333 222.192C180.762 222.297 179.301 222.393 177.968 222.482C177.63 222.504 177.373 222.797 177.396 223.136C177.418 223.474 177.712 223.73 178.05 223.708ZM186.778 223.128C188.175 223.035 189.631 222.939 191.14 222.838C191.478 222.817 191.734 222.524 191.712 222.186C191.689 221.847 191.397 221.591 191.058 221.613C189.55 221.714 188.093 221.81 186.696 221.903C186.358 221.925 186.102 222.217 186.124 222.556C186.147 222.894 186.44 223.15 186.778 223.128ZM195.5 222.55C196.922 222.456 198.376 222.36 199.86 222.262C200.198 222.24 200.455 221.948 200.432 221.61C200.41 221.27 200.118 221.015 199.78 221.036C198.296 221.135 196.841 221.23 195.419 221.325C195.081 221.348 194.825 221.64 194.847 221.978C194.87 222.316 195.162 222.573 195.5 222.55ZM204.219 221.974C205.655 221.879 207.11 221.784 208.578 221.686C208.916 221.665 209.173 221.372 209.15 221.033C209.128 220.695 208.836 220.439 208.497 220.461C207.028 220.558 205.573 220.654 204.138 220.749C203.8 220.77 203.544 221.064 203.566 221.402C203.589 221.74 203.881 221.997 204.219 221.974ZM212.937 221.399C214.38 221.304 215.83 221.209 217.284 221.114C217.622 221.092 217.878 220.8 217.857 220.461C217.835 220.122 217.541 219.865 217.203 219.888C215.75 219.984 214.299 220.079 212.856 220.175C212.518 220.197 212.262 220.489 212.284 220.827C212.305 221.166 212.599 221.422 212.937 221.399ZM221.647 220.827C223.101 220.732 224.556 220.637 226.004 220.542C226.342 220.519 226.599 220.227 226.578 219.889C226.555 219.551 226.263 219.295 225.925 219.316C224.476 219.411 223.021 219.506 221.566 219.602C221.228 219.624 220.972 219.917 220.994 220.255C221.015 220.593 221.308 220.85 221.647 220.827ZM230.363 220.257C231.828 220.161 233.283 220.066 234.722 219.972C235.06 219.95 235.317 219.658 235.295 219.32C235.273 218.981 234.981 218.725 234.643 218.746C233.204 218.84 231.749 218.935 230.284 219.032C229.944 219.053 229.688 219.346 229.71 219.684C229.733 220.023 230.025 220.279 230.363 220.257ZM239.081 219.688C240.561 219.593 242.015 219.498 243.441 219.406C243.779 219.384 244.036 219.092 244.015 218.754C243.992 218.415 243.7 218.158 243.362 218.181C241.936 218.273 240.481 218.367 239.002 218.464C238.663 218.485 238.407 218.778 238.43 219.116C238.451 219.454 238.743 219.711 239.081 219.688ZM247.801 219.124C249.302 219.028 250.758 218.934 252.163 218.844C252.501 218.823 252.759 218.531 252.736 218.193C252.715 217.854 252.423 217.597 252.085 217.619C250.679 217.709 249.223 217.803 247.722 217.899C247.384 217.92 247.127 218.212 247.15 218.551C247.171 218.889 247.463 219.147 247.801 219.124ZM256.526 218.567C258.073 218.469 259.533 218.376 260.89 218.292C261.229 218.271 261.486 217.979 261.465 217.64C261.443 217.302 261.151 217.044 260.813 217.066C259.455 217.15 257.995 217.243 256.448 217.34C256.109 217.363 255.853 217.654 255.874 217.993C255.895 218.331 256.187 218.588 256.526 218.567ZM265.258 218.021C267.048 217.911 268.526 217.824 269.625 217.763C269.963 217.743 270.222 217.454 270.204 217.116C270.184 216.776 269.894 216.517 269.556 216.537C268.453 216.598 266.976 216.686 265.183 216.795C264.844 216.816 264.587 217.107 264.607 217.445C264.628 217.784 264.918 218.042 265.258 218.021Z" fill="white" />
    <path d="M117.718 108.479L120.36 111.945C120.566 112.214 120.951 112.266 121.22 112.061C121.49 111.855 121.543 111.469 121.337 111.199L118.694 107.734C118.488 107.464 118.102 107.413 117.833 107.619C117.563 107.824 117.512 108.209 117.718 108.479ZM123.003 115.41L125.645 118.876C125.852 119.146 126.237 119.197 126.507 118.991C126.776 118.786 126.828 118.4 126.622 118.131L123.979 114.665C123.774 114.396 123.389 114.344 123.119 114.549C122.85 114.755 122.798 115.141 123.003 115.41ZM128.289 122.342L130.932 125.807C131.138 126.077 131.522 126.128 131.792 125.924C132.062 125.718 132.114 125.332 131.908 125.062L129.266 121.597C129.06 121.327 128.674 121.275 128.404 121.48C128.135 121.686 128.083 122.072 128.289 122.342ZM133.574 129.273L136.217 132.739C136.423 133.008 136.809 133.06 137.078 132.854C137.348 132.649 137.399 132.263 137.195 131.994L134.551 128.528C134.346 128.258 133.96 128.207 133.691 128.412C133.421 128.618 133.37 129.002 133.574 129.273ZM138.861 136.204L141.503 139.669C141.709 139.94 142.094 139.991 142.363 139.785C142.633 139.58 142.686 139.195 142.48 138.925L139.837 135.459C139.631 135.19 139.247 135.138 138.976 135.343C138.706 135.549 138.655 135.934 138.861 136.204ZM144.146 143.135L146.788 146.6C146.995 146.87 147.38 146.923 147.65 146.717C147.919 146.51 147.971 146.126 147.766 145.856L145.122 142.391C144.918 142.121 144.532 142.068 144.262 142.274C143.993 142.481 143.941 142.865 144.146 143.135ZM149.432 150.066L152.075 153.532C152.281 153.801 152.665 153.854 152.935 153.648C153.205 153.442 153.257 153.057 153.051 152.788L150.409 149.322C150.203 149.053 149.818 149 149.547 149.206C149.278 149.412 149.226 149.796 149.432 150.066ZM154.717 156.997L157.36 160.463C157.566 160.733 157.952 160.785 158.221 160.579C158.491 160.373 158.543 159.989 158.338 159.719L155.694 156.253C155.489 155.984 155.103 155.931 154.834 156.137C154.564 156.343 154.513 156.728 154.717 156.997ZM160.004 163.929L161.005 165.242C161.211 165.512 161.596 165.565 161.866 165.358C162.135 165.152 162.188 164.768 161.982 164.498L160.98 163.185C160.774 162.914 160.39 162.863 160.119 163.069C159.849 163.273 159.798 163.659 160.004 163.929Z" fill="white" />
    <path d="M290.373 105.44L288.84 109.52C288.721 109.837 288.881 110.191 289.198 110.31C289.517 110.43 289.871 110.269 289.99 109.952L291.522 105.872C291.643 105.555 291.481 105.2 291.164 105.082C290.847 104.961 290.493 105.123 290.373 105.44ZM287.306 113.6L285.774 117.679C285.655 117.996 285.814 118.35 286.132 118.47C286.45 118.589 286.804 118.429 286.923 118.111L288.456 114.032C288.576 113.713 288.415 113.359 288.098 113.24C287.781 113.122 287.426 113.281 287.306 113.6ZM284.24 121.759L282.707 125.839C282.588 126.156 282.748 126.51 283.065 126.629C283.383 126.749 283.737 126.588 283.856 126.271L285.389 122.191C285.509 121.874 285.348 121.52 285.031 121.399C284.714 121.28 284.36 121.442 284.24 121.759ZM281.173 129.918L279.64 133.998C279.52 134.315 279.681 134.669 279.998 134.789C280.315 134.908 280.669 134.747 280.79 134.43L282.322 130.35C282.443 130.032 282.281 129.678 281.964 129.559C281.647 129.441 281.293 129.6 281.173 129.918ZM278.106 138.078L276.573 142.158C276.453 142.475 276.614 142.829 276.932 142.948C277.249 143.067 277.603 142.907 277.723 142.59L279.256 138.51C279.376 138.193 279.215 137.839 278.898 137.718C278.579 137.599 278.226 137.761 278.106 138.078ZM275.039 146.237L273.507 150.317C273.387 150.634 273.548 150.988 273.865 151.108C274.182 151.227 274.536 151.066 274.656 150.749L276.189 146.669C276.309 146.352 276.148 145.997 275.831 145.878C275.513 145.76 275.158 145.919 275.039 146.237ZM271.973 154.397L270.44 158.477C270.32 158.794 270.481 159.148 270.798 159.267C271.115 159.386 271.469 159.226 271.59 158.909L273.122 154.829C273.241 154.512 273.081 154.158 272.764 154.037C272.446 153.918 272.092 154.08 271.973 154.397ZM268.906 162.556L267.373 166.636C267.253 166.953 267.414 167.307 267.732 167.427C268.049 167.546 268.403 167.385 268.523 167.068L270.056 162.988C270.175 162.671 270.015 162.316 269.698 162.198C269.379 162.079 269.025 162.239 268.906 162.556Z" fill="white" />
    <path d="M224.569 53.3765L225.654 85.2298C225.654 85.2298 208.905 103.461 191.544 82.8224L199.252 51.7487L224.569 53.3765Z" fill="#F8A488" />
    <path d="M225.048 25.3289L225.133 55.3271C225.133 55.3271 209.052 85.9622 198.099 53.4113L207.574 22.689L225.048 25.3289Z" fill="#0D1120" />
    <path d="M192.87 35.1204L198.146 34.1982L198.718 40.4306L193.442 41.3529C191.818 41.6369 190.373 40.4716 190.216 38.7499C190.057 37.0296 191.246 35.4045 192.87 35.1204Z" fill="#F8A488" />
    <path d="M192.87 35.1211L193.021 35.9812L197.363 35.2228L197.774 39.7099L193.292 40.4921L192.956 40.5225C192.008 40.5158 191.203 39.8116 191.085 38.6714L191.075 38.4441C191.067 37.2497 191.96 36.1503 193.021 35.9812L192.87 35.1211L192.721 34.2596C190.727 34.6243 189.336 36.4318 189.328 38.4441C189.328 38.5723 189.333 38.7018 189.345 38.8312C189.512 40.7854 191.071 42.2758 192.956 42.2705C193.166 42.2705 193.379 42.252 193.593 42.215L199.662 41.154L198.93 33.1749L192.721 34.2596L192.87 35.1211Z" fill="#F8A488" />
    <path d="M193.173 36.711L195.35 36.3304L195.587 38.9042L193.408 39.2848C192.738 39.4024 192.141 38.9214 192.076 38.2106C192.011 37.4997 192.502 36.8286 193.173 36.711Z" fill="#E6757C" />
    <path d="M193.173 36.7111L193.326 37.5897L194.551 37.3756L194.623 38.1684L193.255 38.4076L193.208 38.4115C193.1 38.4049 192.997 38.3521 192.964 38.1288L192.961 38.0838C192.952 37.8394 193.17 37.6003 193.326 37.5897L193.173 36.7111L193.019 35.8337C191.914 36.0438 191.188 37.0043 191.179 38.0838L191.188 38.2926C191.273 39.347 192.146 40.2005 193.208 40.1939L193.561 40.1635L196.549 39.6416L196.15 35.2867L193.019 35.8337L193.173 36.7111Z" fill="#E6757C" />
    <path d="M233.537 37.6174L228.24 37.7944L228.448 31.4814L233.745 31.303C235.375 31.2475 236.652 32.6164 236.594 34.3605C236.537 36.1046 235.168 37.5619 233.537 37.6174Z" fill="#F8A488" />
    <path d="M233.538 37.6171L233.509 36.7424L229.145 36.8904L229.295 32.3267L233.774 32.1761L233.84 32.1748C234.37 32.1774 234.818 32.3875 235.162 32.7508C235.5 33.1142 235.722 33.6321 235.722 34.2479L235.721 34.3337V34.3324C235.701 34.9812 235.431 35.585 235.019 36.0236C234.605 36.4636 234.068 36.7252 233.509 36.7424L233.538 37.6171L233.567 38.4892C234.639 38.4535 235.6 37.9593 236.294 37.2194C236.988 36.4795 237.432 35.4819 237.467 34.3892V34.3866L237.47 34.2479C237.47 33.2067 237.088 32.2514 236.438 31.5564C235.791 30.8601 234.86 30.4254 233.84 30.428L233.716 30.4294L227.601 30.6355L227.337 38.6992L233.567 38.4892L233.538 37.6171Z" fill="#F8A488" />
    <path d="M233.757 33.3307L231.573 33.3651L231.445 35.9719L233.63 35.9375C234.303 35.9283 234.877 35.3351 234.912 34.615C234.947 33.8962 234.431 33.3201 233.757 33.3307Z" fill="#E6757C" />
    <path d="M233.757 33.3305L233.744 32.4387L230.724 32.4863L230.51 36.8782L233.645 36.8293C234.242 36.82 234.773 36.5531 235.151 36.1633C235.529 35.7722 235.774 35.2438 235.803 34.6585L235.805 34.5461C235.805 33.9886 235.601 33.4627 235.237 33.0742C234.878 32.6858 234.347 32.4374 233.776 32.4387H233.743L233.757 33.3305L233.773 34.2211H233.776L233.934 34.2911C233.981 34.34 234.023 34.4233 234.023 34.5461V34.5726C234.016 34.706 233.957 34.8342 233.871 34.9227L233.617 35.0469L232.382 35.0667L232.422 34.2423L233.772 34.2211L233.757 33.3305Z" fill="#E6757C" />
    <path d="M211.349 58.7608L211.234 58.7766C198.859 58.0407 194.468 49.2106 195.335 38.6919L195.401 37.8886C196.268 27.3686 203.673 11.1632 213.48 11.3891L213.463 11.2742C223.268 11.5015 231.777 28.1904 230.91 38.7091L230.844 39.5124C229.976 50.0324 225.274 59.2814 211.349 58.7608Z" fill="#F8A488" />
    <path d="M211.349 58.7605L211.232 57.8937L211.118 57.9096L211.234 58.7763L211.287 57.903C205.777 57.5673 202.056 55.6251 199.641 52.6984C197.227 49.7665 196.103 45.7551 196.103 41.202C196.103 40.404 196.137 39.5901 196.206 38.763L196.272 37.9596C196.684 32.8965 198.699 26.3509 201.773 21.1649C203.309 18.5699 205.106 16.3145 207.06 14.7382C209.018 13.1567 211.098 12.2608 213.276 12.2608L213.459 12.2622L214.488 12.2859L214.328 11.1523L213.463 11.2739L213.443 12.1472C215.54 12.1948 217.627 13.0867 219.604 14.622C222.566 16.9197 225.219 20.6549 227.1 24.776C228.984 28.8944 230.099 33.3986 230.096 37.1801C230.096 37.6795 230.078 38.1658 230.038 38.6361V38.6375L229.972 39.4408H229.973C229.562 44.4576 228.252 49.1046 225.554 52.4355C222.853 55.7598 218.795 57.8937 212.456 57.9069C212.106 57.9069 211.746 57.9003 211.382 57.8871L211.306 57.8844L211.232 57.8937L211.349 58.7605L211.317 59.6338C211.703 59.6483 212.083 59.655 212.456 59.655C219.187 59.6695 223.9 57.2859 226.915 53.5335C229.932 49.7903 231.281 44.8012 231.715 39.5835L231.72 39.5253L231.781 38.7801C231.823 38.2582 231.844 37.7244 231.844 37.1801C231.836 31.6942 229.75 25.1697 226.461 19.8965C224.814 17.2619 222.861 14.9417 220.677 13.2426C218.494 11.5461 216.058 10.4599 213.484 10.4005L212.455 10.3767L212.615 11.5104L213.48 11.3888L213.5 10.5142L213.276 10.5115C210.602 10.5115 208.13 11.6227 205.961 13.3786C202.702 16.0185 200.041 20.1211 198.077 24.558C196.116 28.9988 194.865 33.7765 194.529 37.8156L194.463 38.6203H194.464C194.391 39.491 194.354 40.3538 194.354 41.202C194.354 46.0313 195.545 50.4668 198.291 53.8083C201.034 57.1525 205.314 59.3075 211.182 59.6484L211.267 59.6536L211.466 59.6259L211.349 58.7605L211.317 59.6338L211.349 58.7605Z" fill="#F8A488" />
    <path d="M212.953 52.003L212.938 52.0017C208.616 51.9501 205.339 48.9033 205.616 45.1971L205.654 44.6898L221.315 44.88L221.278 45.3874C221.001 49.0935 217.273 52.0545 212.953 52.003Z" fill="white" />
    <path d="M209.883 35.9011C209.808 36.6687 209.292 37.2449 208.73 37.1907C208.169 37.1352 207.774 36.4693 207.85 35.7016C207.925 34.9353 208.442 34.3579 209.002 34.4134C209.565 34.4689 209.96 35.1347 209.883 35.9011Z" fill="#0D1120" />
    <path d="M219.123 35.8557C219.042 36.6247 218.522 37.2007 217.959 37.1413C217.397 37.0818 217.01 36.4093 217.091 35.6403C217.173 34.8713 217.693 34.2966 218.255 34.356C218.815 34.4155 219.205 35.0867 219.123 35.8557Z" fill="#0D1120" />
    <path d="M215.135 42.1595L211.508 41.9824C211.062 41.9613 210.792 41.3813 211.001 40.8924L212.866 36.5348C213.103 35.9799 213.75 35.9839 213.966 36.5388L215.728 41.0734C215.927 41.5861 215.601 42.182 215.135 42.1595Z" fill="#D66068" />
    <path d="M204.483 31.4152C203.394 32.1789 205.067 28.7686 206.554 28.3709C208.041 27.9746 209.524 28.6934 209.867 29.9776C209.867 29.9776 207.097 29.5812 204.483 31.4152Z" fill="#0D1120" />
    <path d="M221.482 30.3852C222.591 31.1198 220.828 27.7546 219.331 27.3965C217.834 27.0398 216.37 27.7982 216.061 29.0904C216.061 29.0904 218.821 28.6213 221.482 30.3852Z" fill="#0D1120" />
    <path d="M222.471 15.1414L222.699 15.2735L222.691 15.5352C222.64 15.3911 222.571 15.255 222.471 15.1414ZM229.925 17.8804C231.311 17.4378 232.223 16.0584 232.016 14.5693C231.807 13.0683 230.537 11.9862 229.069 11.9545C229.233 11.4365 229.29 10.9001 229.167 10.3729C228.904 9.23792 227.544 8.34209 226.489 8.88117C226.297 4.76672 222.742 1.07244 218.57 0.653595C214.399 0.234753 210.123 3.14423 209.048 7.13184C208.087 6.22676 207.127 5.32301 206.166 4.41793C205.87 4.13915 205.557 3.85111 205.159 3.75465C204.212 3.52607 203.369 4.51573 203.225 5.46573C203.081 6.41308 203.353 7.38157 203.253 8.33421C202.243 7.70264 201.469 6.76586 200.485 6.09598C199.5 5.42741 198.128 5.06401 197.119 5.71011C196.084 6.37339 195.891 7.85986 196.356 8.98162C196.642 9.67 197.121 10.2448 197.657 10.7759C197.154 10.5526 196.588 10.4535 196.003 10.5341C194.337 10.7653 193.174 12.3033 193.407 13.9694C193.545 14.9723 194.164 15.7875 194.995 16.2315C194.756 16.612 194.53 17.0004 194.332 17.4034C193.101 19.9217 192.676 22.7823 192.786 25.5345C192.836 26.8426 194.425 34.4611 195.618 34.7016C196.267 34.8337 201.852 21.2734 203.55 17.9848C205.318 17.3797 207.263 16.1033 207.375 14.9921C207.777 16.4138 208.361 18.0337 209.781 18.5133C210.937 18.9044 212.253 18.3283 213.069 17.4272C213.884 16.5261 214.307 15.3555 214.71 14.2192C215.662 15.7228 217.108 16.9185 218.78 17.5805C219.811 17.9888 221.053 18.1777 221.99 17.5831C222.296 17.3876 222.521 17.085 222.654 16.748L222.62 17.8606C223.274 19.203 230.142 30.4801 231.231 30.6346C232.066 30.7522 230.816 20.6194 230.223 18.7352C230.129 18.4393 230.028 18.1539 229.925 17.8804Z" fill="#7E3A27" />
    <path d="M222.471 15.1418L222.163 15.673L222.392 15.8051L222.7 15.2739L222.087 15.2554L222.079 15.517L222.692 15.5355L223.269 15.3241C223.202 15.1405 223.104 14.9291 222.93 14.7322L222.471 15.1418L222.163 15.673L222.471 15.1418L222.013 15.5501L222.116 15.7456L223.211 18.7489L223.325 14.9277L222.779 14.6107L219.453 12.6802L222.013 15.5501L222.471 15.1418ZM229.926 17.8808L230.113 18.4648C231.62 17.9839 232.658 16.5846 232.659 14.9912C232.659 14.8234 232.648 14.6556 232.624 14.4851L232.596 14.283L232.624 14.4851C232.373 12.6802 230.845 11.3788 229.083 11.3405L229.07 11.9549L229.655 12.1398C229.774 11.7646 229.848 11.3682 229.848 10.9586C229.848 10.7195 229.821 10.4764 229.766 10.2346C229.624 9.63076 229.269 9.11416 228.815 8.73628C228.357 8.35971 227.785 8.10867 227.166 8.10603C226.847 8.10603 226.517 8.17737 226.209 8.3346L226.489 8.88157L227.102 8.85253C226.878 4.4038 223.122 0.510021 218.633 0.0436096C218.343 0.0132217 218.054 -3.8147e-06 217.766 -3.8147e-06C213.576 0.0132103 209.56 2.94115 208.455 6.97236L209.048 7.13223L209.47 6.6843C208.509 5.78055 207.547 4.87547 206.588 3.9704H206.587C206.287 3.69558 205.908 3.31245 205.304 3.15918C205.164 3.12483 205.021 3.10893 204.882 3.10893C204.239 3.11157 203.708 3.44585 203.334 3.86337C202.957 4.28882 202.705 4.81603 202.618 5.37361L202.619 5.37232C202.581 5.61808 202.567 5.85722 202.567 6.08844C202.57 6.74511 202.664 7.34097 202.661 7.86816C202.661 8.00689 202.656 8.1417 202.643 8.27119L203.253 8.3346L203.58 7.81532C202.677 7.25906 201.907 6.3302 200.83 5.58896C200.122 5.11066 199.25 4.76184 198.339 4.75787C197.814 4.75787 197.27 4.8834 196.79 5.19258C195.879 5.77922 195.501 6.80189 195.503 7.76642C195.504 8.26454 195.6 8.76001 195.789 9.21717C196.124 10.0192 196.663 10.6547 197.224 11.2123L197.658 10.7763L197.907 10.2161C197.45 10.0113 196.941 9.89239 196.41 9.89239C196.248 9.89239 196.084 9.90425 195.919 9.92671C194.088 10.1817 192.764 11.7461 192.764 13.5457C192.764 13.7135 192.774 13.884 192.798 14.0544V14.0531C192.966 15.262 193.714 16.2437 194.707 16.7722L194.995 16.2319L194.476 15.9042C194.229 16.2966 193.991 16.7036 193.781 17.1343C192.622 19.5086 192.156 22.1458 192.154 24.7144C192.154 24.9972 192.161 25.2786 192.172 25.56V25.5587C192.19 25.967 192.302 26.6805 192.48 27.6028C192.745 28.9756 193.159 30.7474 193.626 32.2259C193.86 32.9671 194.106 33.6317 194.37 34.1562C194.504 34.4178 194.638 34.6464 194.802 34.8433C194.966 35.0336 195.159 35.2278 195.497 35.3044L195.628 35.3176C195.904 35.3057 196.014 35.1987 196.098 35.138C196.252 35.0058 196.335 34.883 196.446 34.7218C196.833 34.1364 197.377 33.0438 198.043 31.63C199.036 29.516 200.264 26.7254 201.39 24.1846C202.513 21.6464 203.539 19.3474 204.096 18.2666L203.55 17.9852L203.75 18.5665C204.692 18.2415 205.665 17.7513 206.449 17.1726C206.842 16.8819 207.188 16.5687 207.46 16.2252C207.731 15.8817 207.938 15.4999 207.986 15.0546L207.376 14.9925L206.785 15.159C206.991 15.887 207.246 16.6916 207.666 17.4144C208.081 18.1331 208.693 18.7951 209.585 19.0963C209.903 19.2034 210.231 19.2523 210.552 19.2523C211.712 19.2443 212.782 18.6524 213.525 17.8385C214.446 16.8145 214.883 15.5606 215.289 14.4243L214.71 14.2196L214.192 14.5472C215.216 16.1632 216.761 17.4395 218.555 18.153C219.171 18.3961 219.863 18.5744 220.574 18.5758C221.163 18.5771 221.775 18.4476 222.319 18.1015L222.365 18.0724L222.319 18.1015C222.755 17.8227 223.052 17.4117 223.226 16.9717L222.655 16.7484L222.04 16.7286L222.006 17.8425L222.002 17.9944L222.068 18.1305C222.258 18.5176 222.804 19.4597 223.562 20.7189C224.697 22.5991 226.282 25.1332 227.691 27.2222C228.397 28.2686 229.059 29.2014 229.607 29.8951C229.882 30.2426 230.127 30.5293 230.35 30.7513L230.684 31.0407C230.803 31.1213 230.921 31.2045 231.145 31.2428L231.246 31.2494C231.42 31.2521 231.597 31.1754 231.702 31.0843C231.887 30.9217 231.935 30.7751 231.984 30.6469C232.103 30.2651 232.119 29.829 232.124 29.2345C232.123 27.7679 231.912 25.4966 231.645 23.3878C231.511 22.3335 231.363 21.324 231.221 20.481C231.075 19.6354 230.939 18.9722 230.808 18.5507C230.711 18.2428 230.606 17.9468 230.502 17.6654L229.926 17.8808L230.113 18.4648L229.926 17.8808L229.351 18.0948C229.451 18.363 229.548 18.6379 229.636 18.9193C229.732 19.2166 229.872 19.872 230.009 20.6885C230.43 23.1448 230.898 27.1918 230.896 29.2345C230.897 29.6441 230.876 29.9731 230.844 30.1501L230.822 30.2466L230.818 30.2625L231.124 30.3985L230.897 30.1581L230.818 30.2625L231.124 30.3985L230.897 30.1581L231.246 30.528V30.022C231.1 30.018 230.955 30.096 230.897 30.1581L231.246 30.528V30.022V30.5347L231.317 30.0272L231.246 30.022V30.5347L231.317 30.0272L231.279 30.3008L231.419 30.0563L231.317 30.0272L231.279 30.3008L231.419 30.0563C231.39 30.0497 231.129 29.8172 230.844 29.4683C229.8 28.233 227.994 25.5138 226.407 22.9915C225.612 21.7283 224.867 20.5101 224.287 19.5377C223.709 18.5718 223.286 17.8293 223.171 17.5915L222.62 17.861L223.233 17.8808L223.268 16.767L223.376 13.2207L222.083 16.5239C221.992 16.7577 221.837 16.9533 221.66 17.0656V17.0642C221.355 17.2598 220.99 17.347 220.574 17.3483C220.076 17.3496 219.517 17.2135 219.008 17.01C217.457 16.397 216.108 15.2818 215.229 13.8905L214.554 12.8229L214.131 14.0134C213.732 15.1511 213.323 16.2371 212.614 17.0153C212.081 17.6126 211.261 18.0314 210.552 18.0248C210.354 18.0248 210.162 17.9944 209.977 17.9323H209.978C209.45 17.7539 209.06 17.3642 208.727 16.7973C208.4 16.2358 208.162 15.5197 207.966 14.826L207.089 11.7223L206.765 14.9304C206.756 15.0414 206.679 15.2356 206.497 15.4628C205.962 16.1605 204.588 16.9916 203.351 17.4051L203.118 17.4844L203.005 17.7037C202.138 19.3857 200.338 23.5504 198.655 27.3213C197.815 29.2041 197.006 30.9825 196.369 32.2813C196.052 32.9288 195.776 33.4586 195.57 33.8075C195.468 33.9792 195.381 34.1087 195.332 34.1694L195.308 34.1985L195.322 34.2104L195.31 34.1972L195.308 34.1985L195.322 34.2104L195.31 34.1972L195.628 34.5526V34.0889C195.367 34.1074 195.326 34.1959 195.31 34.1972L195.628 34.5526V34.0889V34.6543L195.74 34.1007L195.628 34.0889V34.6543L195.74 34.1007L195.694 34.3254L195.808 34.1245L195.74 34.1007L195.694 34.3254L195.808 34.1245L195.787 34.1629L195.813 34.1272L195.808 34.1245L195.787 34.1629L195.813 34.1272C195.797 34.1232 195.666 33.9792 195.54 33.7427C195.071 32.901 194.516 31.0512 194.11 29.3309C193.904 28.4681 193.729 27.6291 193.605 26.9434C193.48 26.263 193.406 25.7133 193.399 25.5112C193.389 25.2469 193.383 24.98 193.383 24.7144C193.383 22.2938 193.826 19.8389 194.884 17.6733C195.068 17.2968 195.283 16.9268 195.516 16.5582L195.866 15.9993L195.285 15.6888C194.616 15.332 194.126 14.6846 194.015 13.884L193.991 13.5457C193.991 12.3539 194.871 11.3101 196.087 11.1436L196.41 11.1212C196.758 11.1212 197.095 11.1978 197.407 11.3379L200.473 12.708L198.09 10.3416C197.58 9.83556 197.161 9.32026 196.923 8.7455C196.799 8.4469 196.73 8.10202 196.731 7.76642C196.733 7.09917 196.988 6.51915 197.451 6.22715C197.709 6.06331 198.002 5.9867 198.339 5.9867C198.917 5.98273 199.601 6.23509 200.14 6.60372H200.139C201.032 7.20094 201.81 8.14565 202.927 8.85518L203.761 9.3784L203.864 8.39931C203.882 8.2183 203.89 8.04125 203.89 7.86816C203.887 7.21148 203.794 6.61563 203.796 6.08844C203.796 5.90346 203.807 5.72641 203.832 5.55728C203.875 5.26 204.037 4.91645 204.249 4.68258C204.463 4.44343 204.696 4.33375 204.882 4.3364L205.014 4.35227C205.206 4.3919 205.454 4.58479 205.746 4.86491L205.745 4.86362C206.706 5.77001 207.668 6.67373 208.628 7.57881L209.375 8.28177L209.642 7.2921C210.551 3.85943 214.151 1.21425 217.766 1.22747C218.014 1.22747 218.262 1.24065 218.51 1.26443C220.432 1.45734 222.239 2.41265 223.58 3.8066C224.923 5.20186 225.789 7.02256 225.876 8.91066L225.92 9.86201L226.768 9.42859C226.895 9.36385 227.024 9.33479 227.166 9.33479C227.436 9.33214 227.762 9.45765 228.031 9.68227C228.302 9.90424 228.503 10.2135 228.569 10.5121C228.603 10.6587 228.619 10.8067 228.619 10.9586C228.619 11.2189 228.571 11.4924 228.484 11.7699L228.237 12.5507L229.056 12.5693C230.228 12.5957 231.243 13.4585 231.408 14.6543L231.431 14.9912C231.432 16.0416 230.74 16.977 229.739 17.2955L229.125 17.491L229.351 18.0948L229.926 17.8808Z" fill="#7E3A27" />
    <path d="M474.188 46.4411C474.188 46.4411 452.886 54.0464 446.173 77.684C439.461 101.32 430.11 122.759 412.813 124.036C395.516 125.312 377.34 137.521 376.301 141.284C375.263 145.048 432.056 226.633 479.399 206.517L485.487 163.518L486.299 196.967C486.299 196.967 487.793 203.231 504.527 192.232C521.261 181.232 543.527 27.0448 474.188 46.4411Z" fill="#7E3A27" />
    <path d="M486.747 45.1731C475.563 42.6244 463.803 45.2511 454.976 52.6938C444.325 61.6745 441.931 75.5373 439.779 88.5624C438.509 96.2417 437.271 104.18 433.814 111.239C429.341 120.376 421.163 123.562 411.443 123.87C396.684 124.335 383.171 122.708 372.766 135.176C371.508 136.683 373.669 138.866 374.936 137.347C386.519 123.469 402.013 128.814 417.55 126.405C429.379 124.57 435.798 116.706 439.265 105.682C443.349 92.6993 442.744 78.3239 448.704 65.9092C455.409 51.9459 470.901 44.708 485.932 48.1341C487.856 48.5714 488.676 45.6118 486.747 45.1731Z" fill="#7E3A27" />
    <path d="M458.574 197.567C451.431 213.103 447.986 217.306 443.523 236.138C438.346 257.977 439.443 287.389 436.423 309.346C433.335 331.811 433.69 329.92 428.478 354.923C421.994 386.02 400.952 419.534 384.77 449.377C385.974 451.227 411.254 466.021 419.078 470.955C443.657 439.916 462.466 404.776 472.044 365.535C479.31 335.767 481.304 304.72 482.98 276.082C483.18 272.646 488.1 272.572 488.395 276.002C490.847 304.675 480.741 421.662 483.481 470.425C487.662 470.425 519.596 471.57 525.614 471.57C529.603 423.736 529.298 402.985 531.634 351.048C533.952 299.501 539.626 249.473 507.859 197.543C488.643 198.014 474.397 197.882 458.574 197.567Z" fill="#F03F50" />
    <path d="M427.886 460.322L390.885 437.237L390.427 437.969L427.428 461.054" fill="white" />
    <path d="M457.154 148.566L449.24 173.793C445.543 186.711 436.571 195.566 423.279 193.596L357.319 182.708L333.018 185.497L331.949 183.841L356.031 168.706L362.991 170.33L416.286 170.302C421.493 170.299 426.139 167.036 427.908 162.139L443.332 122.135L457.154 148.566Z" fill="#FAB484" />
    <path d="M457.155 148.566L456.31 148.302L448.396 173.529L448.389 173.55C446.748 179.287 444.053 184.164 440.446 187.581C436.833 190.996 432.334 192.981 426.904 192.986C425.78 192.986 424.614 192.9 423.409 192.722L423.28 193.597L423.424 192.723L357.463 181.836L357.219 181.829L333.463 184.555L333.179 184.114L356.189 169.651L362.79 171.192L362.993 171.215L416.288 171.188C421.866 171.184 426.845 167.688 428.741 162.441L427.908 162.14L428.734 162.458L443.454 124.278L456.37 148.977L457.155 148.566L456.31 148.302L457.155 148.566L457.939 148.157L444.118 121.726C443.956 121.418 443.629 121.233 443.282 121.253C442.936 121.273 442.632 121.493 442.507 121.817L427.082 161.821L427.076 161.838C425.433 166.385 421.119 169.415 416.286 169.417L363.093 169.445L356.232 167.845C356.002 167.791 355.76 167.832 355.559 167.957L331.479 183.092C331.278 183.218 331.137 183.419 331.085 183.65C331.035 183.881 331.079 184.123 331.207 184.321L332.276 185.977C332.457 186.259 332.786 186.414 333.12 186.376L357.298 183.602L423.136 194.47L423.15 194.472C424.437 194.663 425.688 194.757 426.904 194.757C432.777 194.762 437.771 192.561 441.663 188.865C445.56 185.169 448.381 180.007 450.091 174.038L449.24 173.793L450.084 174.059L457.999 148.832C458.07 148.606 458.048 148.365 457.939 148.157L457.155 148.566Z" fill="#FAB484" />
    <path d="M78.9514 192.883C63.2824 192.89 64.342 217.94 60.1734 236.754C55.3402 258.573 1.79818 434.254 -0.481018 473.941C5.47661 475.598 49.8291 475.631 53.5934 475.389C65.5708 435.782 104.077 269.574 105.021 268.245C103.555 303.831 87.1076 454.682 90.5852 475.433C93.71 477.269 139.376 476.682 142.986 476.16C146.91 427.287 165.816 223.336 126.306 193.182C106.529 192.737 93.237 192.877 78.9514 192.883Z" fill="#F03F50" />
    <path d="M92.1814 281.223L81.7433 211.526C82.3154 209.514 82.8386 207.668 83.3117 206.003C84.2537 202.689 84.991 200.092 85.4931 198.324C85.9952 196.556 86.2621 195.619 86.2621 195.617L84.7822 195.195C84.7822 195.196 83.4702 199.813 81.191 207.838L79.2501 194.874L101.655 194.672L92.1814 281.223Z" fill="#E43849" />
    <path d="M118.044 193.697L118.073 193.727C118.755 194.445 131.032 207.623 136.768 236.949C137.422 240.289 137.89 245.814 138.186 252.927C138.483 260.043 138.612 268.762 138.612 278.557C138.612 312.271 137.074 358.731 135.536 396.756C134.767 415.769 133.999 432.673 133.422 444.825C133.134 450.9 132.894 455.789 132.726 459.156C132.557 462.525 132.462 464.368 132.461 464.373L134.098 464.459C134.098 464.451 140.251 346.07 140.251 278.557C140.251 268.748 140.121 260.01 139.823 252.86C139.524 245.704 139.062 240.149 138.376 236.634C132.388 206.003 119.301 192.635 119.212 192.549L118.044 193.697Z" fill="white" />
    <path d="M84.7825 195.196C84.7825 195.198 16.4409 435.734 9.15802 462.202L10.6418 462.611C14.2793 449.39 33.1867 382.636 51.1811 319.195C60.179 287.473 68.9496 256.578 75.4701 233.614C78.731 222.133 81.4291 212.633 83.3119 206.004C84.254 202.69 84.9912 200.092 85.4933 198.325C85.9954 196.557 86.2623 195.62 86.2623 195.617L84.7825 195.196Z" fill="white" />
    <path d="M139.563 211.187L134.8 227.681L136.374 228.137L141.137 211.642" fill="white" />
    <path d="M141.946 218.372L136.786 235.711L138.357 236.179L143.517 218.838" fill="white" />
    <path d="M114.864 122.713C111.931 109.332 120.663 109.408 121.641 98.4905C122.033 94.1092 117.531 89.5257 117.282 86.6506C117.008 83.5113 119.833 79.9742 120.343 76.8639C121.082 72.361 118.649 61.7618 117.315 59.1298C113.663 51.917 108.619 47.6254 101.511 45.7281C70.2827 37.3935 66.2277 71.2512 59.7099 82.4173C59.7099 82.4173 53.0943 100.77 42.096 103.019C24.6459 106.585 12.2312 122.634 18.942 138.685C18.942 138.685 29.0087 177.918 66.928 170.427L88.1582 123.63L91.0359 119.088L97.2023 122.713C97.2023 122.713 117.798 136.095 114.864 122.713Z" fill="#0E1322" />
    <path d="M114.864 122.713L115.264 122.624C114.851 120.739 114.674 119.132 114.674 117.735C114.68 113.542 116.238 111.196 117.977 108.624C119.714 106.066 121.626 103.302 122.049 98.5267C122.066 98.3312 122.075 98.1357 122.075 97.9414C122.07 95.6992 120.992 93.5178 119.923 91.5531C118.845 89.5976 117.78 87.8178 117.69 86.6155C117.678 86.4833 117.673 86.3499 117.673 86.2151C117.669 84.8185 118.286 83.2621 118.994 81.6831C119.698 80.1003 120.486 78.5015 120.748 76.9292C120.847 76.3241 120.889 75.6317 120.889 74.8746C120.888 72.2809 120.383 68.9038 119.734 65.8701C119.08 62.8325 118.298 60.1701 117.681 58.944C113.997 51.6532 108.832 47.2507 101.617 45.3322C98.2251 44.4258 95.1412 44.0123 92.3309 44.0123C86.5107 44.0096 81.8651 45.7973 78.1232 48.6301C72.5078 52.882 68.9113 59.4448 66.1604 65.8556C63.4135 72.2651 61.4976 78.5517 59.3572 82.2103L59.3374 82.2434L59.3255 82.2777C59.3255 82.279 59.2251 82.5565 59.0242 83.0573C58.3239 84.8119 56.4107 89.2501 53.4907 93.4715C50.5734 97.7009 46.6465 101.679 42.0141 102.616C27.7021 105.543 16.6919 116.779 16.6813 129.689C16.6813 132.686 17.2786 135.768 18.5642 138.841L18.942 138.684L18.5457 138.786C18.5536 138.814 20.6597 147.028 26.5922 155.269C32.5168 163.507 42.326 171.79 57.6369 171.786C60.5582 171.786 63.6777 171.485 67.0074 170.827L67.2135 170.787L88.519 123.824L91.1695 119.642L96.995 123.065L97.2024 122.713L96.9791 123.056C96.9871 123.06 99.2848 124.553 102.248 126.052C105.219 127.546 108.827 129.06 111.588 129.069C112.694 129.069 113.696 128.818 114.431 128.152C115.166 127.485 115.563 126.443 115.56 125.038C115.56 124.335 115.464 123.537 115.264 122.624L114.864 122.713L114.465 122.8C114.655 123.668 114.741 124.411 114.741 125.038C114.738 126.303 114.401 127.07 113.88 127.547C113.358 128.024 112.579 128.25 111.588 128.25C109.118 128.259 105.532 126.799 102.618 125.321C101.157 124.582 99.8569 123.844 98.9227 123.29C97.9886 122.735 97.4271 122.369 97.4257 122.369L97.4178 122.364L90.9013 118.535L87.7976 123.434L66.5542 170.257L66.9281 170.427L66.8488 170.025C63.5681 170.672 60.5027 170.967 57.6369 170.967C42.6417 170.963 33.1035 162.899 27.2568 154.791C24.3381 150.738 22.3549 146.679 21.105 143.636C20.4787 142.116 20.0361 140.849 19.7507 139.963C19.608 139.521 19.5049 139.173 19.4375 138.938C19.3688 138.703 19.3384 138.582 19.3384 138.582L19.3305 138.553L19.3199 138.526C18.074 135.548 17.5005 132.577 17.5005 129.689C17.49 117.273 28.1698 106.281 42.178 103.419C47.8806 102.24 52.3174 96.9914 55.3749 92.0908C58.4283 87.181 60.0892 82.5723 60.0958 82.5552L59.71 82.4165L60.0641 82.6225C63.0198 77.5436 65.4205 68.0793 69.9538 59.8808C72.2158 55.7848 75.0011 52.0192 78.6174 49.2842C82.235 46.5491 86.6772 44.8328 92.3309 44.8315C95.0606 44.8315 98.0731 45.2331 101.407 46.1224C108.407 47.9999 113.329 52.1791 116.95 59.3139C117.496 60.3842 118.295 63.0531 118.933 66.0419C119.576 69.0359 120.071 72.3827 120.071 74.8746C120.071 75.6013 120.029 76.254 119.939 76.7957C119.713 78.1923 118.961 79.7541 118.246 81.3489C117.537 82.9463 116.858 84.582 116.854 86.2151C116.854 86.3723 116.86 86.5296 116.874 86.6855C117.023 88.2366 118.15 89.9966 119.204 91.9455C120.267 93.8838 121.262 95.9714 121.256 97.9414C121.256 98.1119 121.248 98.2836 121.234 98.4541C120.818 103.036 119.04 105.592 117.299 108.165C115.56 110.723 113.849 113.322 113.856 117.735C113.856 119.202 114.041 120.867 114.465 122.8L114.864 122.713Z" fill="#0E1322" />
    <path d="M100.077 45.8054C90.2391 43.3491 80.0758 44.9386 71.8773 51.0984C62.7169 57.9809 58.9817 68.0424 57.3274 79.0103C56.3774 85.2996 55.6759 91.9099 52.1837 97.4143C47.151 105.347 39.7003 103.459 31.7357 104.617C22.8369 105.91 16.3957 112.712 13.9421 121.107C13.4968 122.627 15.8672 123.277 16.3111 121.76C18.1398 115.504 22.348 110.039 28.6836 107.841C33.5498 106.153 38.5865 107.578 43.5149 106.565C50.7052 105.088 54.932 99.0421 57.153 92.4239C60.5751 82.2289 59.4309 71.3416 65.3278 61.8958C72.6476 50.1695 86.0123 44.8249 99.4246 48.1744C100.959 48.5575 101.614 46.1885 100.077 45.8054Z" fill="#0E1322" />
    <path d="M103.857 85.2627C103.857 85.2627 107.648 117.976 108.273 120.469C108.273 120.469 98.3462 131.609 83.9483 123.586C83.9483 123.586 85.6263 115.748 88.1645 95.7272L103.857 85.2627Z" fill="#DF6F54" />
    <path d="M102.249 61.6478H102.248C95.6179 60.3067 89.4885 68.1776 87.3652 78.6857L87.2026 79.489C85.0794 89.9971 89.2506 102.704 94.8462 103.687L95.1012 103.674C99.6002 104.127 106.978 94.792 109.101 84.2839L110.276 83.0327C112.399 72.5246 108.881 62.9876 102.249 61.6478Z" fill="#0E1322" />
    <path d="M77.3 82.5876L82.5692 80.7986L80.5741 74.9243L75.3062 76.7132C73.6836 77.2629 72.8156 79.0255 73.3652 80.6467C73.9162 82.2692 75.6774 83.1386 77.3 82.5876Z" fill="#DF6F54" />
    <path d="M113.076 71.9901L107.725 73.5136L109.423 79.4805L114.774 77.957C116.421 77.488 117.378 75.7716 116.909 74.124C116.44 72.4764 114.724 71.5211 113.076 71.9901Z" fill="#DF6F54" />
    <path d="M113.74 73.5164L111.53 74.1453L112.232 76.6082L114.441 75.9805C115.121 75.7863 115.516 75.0781 115.322 74.3976C115.129 73.7172 114.42 73.3221 113.74 73.5164Z" fill="#B3492F" />
    <path d="M113.741 73.5162L113.536 72.7988L111.327 73.4277C111.135 73.4819 110.977 73.6074 110.879 73.7818C110.782 73.9562 110.759 74.157 110.813 74.3499L111.514 76.8128C111.627 77.2092 112.04 77.4391 112.437 77.3254L114.646 76.6978C115.536 76.4428 116.118 75.6342 116.118 74.749C116.118 74.5653 116.093 74.3777 116.04 74.194C115.785 73.3035 114.977 72.7208 114.092 72.7208C113.907 72.7208 113.72 72.7459 113.536 72.7988L113.741 73.5162L113.945 74.2336L114.092 74.2138C114.322 74.2138 114.539 74.3658 114.605 74.6023L114.626 74.749C114.625 74.9802 114.473 75.1969 114.238 75.2616L112.746 75.6857L112.452 74.6591L113.944 74.235L113.741 73.5162Z" fill="#B3492F" />
    <path d="M75.7895 78.3865L77.9511 77.6109L78.8165 80.0235L76.6536 80.7978C75.9877 81.037 75.2543 80.6908 75.0165 80.0249C74.7774 79.3589 75.1236 78.6256 75.7895 78.3865Z" fill="#B3492F" />
    <path d="M75.7895 78.387L76.0418 79.0899L77.5005 78.5666L77.8626 79.5721L76.4025 80.0967L76.2215 80.1271C76.0035 80.1271 75.7961 79.9923 75.7181 79.773L75.6864 79.5933C75.6877 79.3739 75.8225 79.1665 76.0418 79.0899L75.7895 78.387L75.5384 77.6854C74.7113 77.9826 74.1934 78.7609 74.1947 79.5933C74.1947 79.8205 74.233 80.0531 74.3136 80.2764C74.6109 81.1035 75.3891 81.6201 76.2215 81.6201C76.4488 81.6201 76.6813 81.5818 76.906 81.5012L79.0676 80.7256C79.2552 80.6582 79.4058 80.5221 79.4904 80.3424C79.5762 80.1627 79.5855 79.9593 79.5181 79.7717L78.654 77.3603C78.5879 77.1754 78.4479 77.0208 78.2695 76.9375C78.0925 76.853 77.885 76.8437 77.7 76.9098L75.5371 77.6854L75.7895 78.387Z" fill="#B3492F" />
    <path d="M90.1703 57.9599H90.169C80.1128 60.3342 75.4223 70.0377 77.7305 79.8138L77.9076 80.5616C80.2145 90.3364 90.2351 97.1899 98.6476 95.0639L98.715 95.0296C105.307 93.0424 114.819 81.9001 112.51 72.124L112.333 71.3775C110.025 61.6013 100.228 55.5856 90.1703 57.9599Z" fill="#DF6F54" />
    <path d="M96.5994 87.3451L97.3274 87.1126C99.8999 86.2934 101.319 83.5438 100.5 80.9726L90.4594 84.1741C91.2786 86.7453 94.0282 88.1656 96.5994 87.3451Z" fill="white" />
    <path d="M96.5653 75.5511C96.7965 76.2805 97.4321 76.7297 97.9844 76.554C98.5367 76.3782 98.7969 75.6463 98.5657 74.9169C98.3358 74.1889 97.7003 73.7397 97.148 73.9154C96.5944 74.0911 96.3341 74.8231 96.5653 75.5511Z" fill="#0E1322" />
    <path d="M88.758 78.0177C88.9338 78.7615 89.5336 79.257 90.0978 79.1235C90.662 78.9901 90.9778 78.2806 90.802 77.5354C90.6263 76.7915 90.0265 76.296 89.4623 76.4308C88.8981 76.5629 88.5823 77.2738 88.758 78.0177Z" fill="#0E1322" />
    <path d="M93.5461 81.1037L96.2071 80.3466C96.5348 80.2528 96.6326 79.7666 96.3895 79.4297L94.2279 76.4277C93.953 76.0459 93.4721 76.1595 93.4113 76.6193L92.9119 80.3796C92.8564 80.8038 93.2039 81.2015 93.5461 81.1037Z" fill="#B3492F" />
    <path d="M85.4361 75.7364C84.8428 76.4116 85.3991 73.9051 86.3134 73.407C87.2264 72.9102 88.3151 73.1467 88.7445 73.9355C88.7445 73.9355 86.8617 74.1166 85.4361 75.7364Z" fill="#0E1322" />
    <path d="M99.8513 71.078C100.723 71.292 98.8326 69.5545 97.7994 69.6695C96.7648 69.7844 96.0064 70.601 96.1068 71.4941C96.1068 71.4941 97.7545 70.564 99.8513 71.078Z" fill="#0E1322" />
    <path d="M118.214 80.208C118.214 82.0895 116.69 83.6143 114.81 83.6143C112.929 83.6143 111.403 82.0895 111.403 80.208C111.403 78.3279 112.929 76.8031 114.81 76.8031C116.69 76.8031 118.214 78.3279 118.214 80.208Z" fill="#F0E034" />
    <path d="M80.8673 84.8216C80.8673 86.7031 79.3426 88.2266 77.4624 88.2266C75.5809 88.2266 74.0575 86.7031 74.0575 84.8216C74.0575 82.9415 75.5809 81.4167 77.4624 81.4167C79.3426 81.4167 80.8673 82.9415 80.8673 84.8216Z" fill="#F0E034" />
    <path d="M99.8873 56.0984C99.8873 56.0984 85.163 75.7101 71.0333 71.9617C71.0333 71.9617 80.232 42.3823 99.8873 56.0984Z" fill="#0E1322" />
    <path d="M99.8868 56.0989L99.5591 55.8532C99.5591 55.8545 99.3728 56.1016 99.0161 56.5442C97.7662 58.0928 94.4498 61.9839 90.0605 65.4721C85.6725 68.9655 80.2157 72.0348 74.7337 72.0282C73.5353 72.0282 72.3343 71.8842 71.1372 71.5658L71.0328 71.9622L71.4226 72.0837C71.4239 72.0824 71.5151 71.7891 71.7027 71.2619C72.362 69.4187 74.1973 64.7837 77.2362 60.6402C80.2804 56.4874 84.4913 52.8737 89.8914 52.879C92.7599 52.8803 96.0036 53.8898 99.653 56.4346L99.8868 56.0989L99.5591 55.8532L99.8868 56.0989L100.121 55.7634C96.3709 53.1459 92.9567 52.0598 89.8914 52.0598C86.5856 52.0598 83.7144 53.323 81.2952 55.1912C74.0506 60.8027 70.6602 71.8102 70.6417 71.8406L70.5149 72.2476L70.9271 72.3572C72.1956 72.6941 73.4693 72.8474 74.7337 72.8474C81.3546 72.8382 87.6981 68.6867 92.411 64.5763C97.1227 60.4618 100.203 56.3592 100.214 56.3447L100.468 56.0065L100.121 55.7634L99.8868 56.0989Z" fill="#0E1322" />
    <path d="M72.4125 65.5025C71.8972 68.4463 70.3473 73.6125 72.978 75.9128C75.4144 78.0427 79.1893 76.3303 81.5226 74.9774C89.1385 70.5551 95.2943 62.9683 101.314 56.6804C102.408 55.5388 100.673 53.7986 99.5779 54.9429C95.8571 58.8301 92.1166 62.708 88.2083 66.4076C86.1815 68.3261 84.1216 70.2868 81.8054 71.8565C79.6821 73.2954 76.0367 76.2854 74.1156 72.2978C73.5369 71.0981 74.6256 67.0484 74.7815 66.1552C75.0524 64.6093 72.686 63.9461 72.4125 65.5025Z" fill="#0E1322" />
    <path d="M97.4174 54.3711C97.4174 54.3711 100.878 73.6195 112.052 70.8791L116.306 70.0137C116.306 70.0137 111.476 47.8097 97.4174 54.3711Z" fill="#0E1322" />
    <path d="M97.4178 54.3718L97.0148 54.4432C97.0201 54.463 97.7759 58.6805 99.7419 62.931C100.725 65.057 102.012 67.1934 103.682 68.8186C105.349 70.4438 107.428 71.5576 109.926 71.5563C110.637 71.5563 111.378 71.4664 112.15 71.2775L112.052 70.8798L112.134 71.2815L116.794 70.3328L116.706 69.9272C116.701 69.9087 115.781 65.6687 113.556 61.3983C112.442 59.2618 111.002 57.1161 109.163 55.4856C107.327 53.8578 105.075 52.748 102.398 52.7493C100.817 52.7493 99.0998 53.1351 97.2447 54.0005L96.9594 54.134L97.0148 54.4432L97.4178 54.3718L97.5909 54.7418C99.3561 53.9186 100.951 53.5685 102.398 53.5685C104.842 53.5698 106.887 54.5673 108.62 56.0987C111.217 58.3951 113.056 61.9017 114.226 64.8336C114.812 66.2989 115.233 67.6202 115.507 68.5729C115.643 69.0485 115.744 69.433 115.81 69.6973C115.876 69.9615 115.906 70.1016 115.906 70.1016L116.307 70.0144L116.225 69.614L111.964 70.4808L111.956 70.4821C111.242 70.6565 110.568 70.7371 109.926 70.7371C107.679 70.7358 105.821 69.7527 104.253 68.232C101.905 65.9541 100.277 62.462 99.2597 59.5446C98.7497 58.0859 98.389 56.7699 98.1564 55.8226C98.0401 55.3482 97.9569 54.9651 97.9014 54.7021C97.8459 54.4392 97.8208 54.2991 97.8208 54.2991L97.4178 54.3718L97.5909 54.7418L97.4178 54.3718Z" fill="#0E1322" />
    <path d="M168.925 179.434C159.992 181.072 142.256 179.114 134.141 177.31C128.915 176.149 127.782 167.303 125.481 145.078L124.597 130.299C124.282 125.027 121.322 120.274 116.732 117.663L109.384 113.485C107.416 122.455 102.946 139.085 102.946 139.085C106.23 180.588 118.062 200.644 138.221 198.696C146.001 197.945 169.167 194.265 169.167 194.265L168.925 179.434Z" fill="#DF6F54" />
    <path d="M66.3316 122.615C66.3316 122.615 73.7321 119.023 79.8192 116.45C85.8363 112.088 85.0898 106.276 85.0898 106.276C86.6106 105.004 108.015 106.492 108.015 106.492C107.635 108.612 110.827 117.738 110.827 117.738C110.432 118.84 122.05 137.799 124.05 148.401C125.94 158.418 135.085 190.441 135.085 194.371L71.0684 194.948C71.0684 194.948 62.1538 136.097 66.3316 122.615Z" fill="#FBBC04" />
    <path d="M66.3319 122.615L66.9238 122.076L67.089 122.25C66.6054 122.482 66.3319 122.615 66.3319 122.615Z" fill="#0C111E" />
    <path d="M71.0685 194.948C71.0685 194.948 69.3376 183.519 67.7587 169.584C67.6992 169.057 67.6398 168.528 67.5803 167.994C66.3278 156.695 65.2179 144.004 65.2179 134.493C65.2179 129.373 65.539 125.176 66.3317 122.615C66.3317 122.615 66.6052 122.482 67.0888 122.25L135.086 194.371L122.284 194.486L120.882 194.499L118.777 194.518L101.655 194.672L79.2498 194.874L72.2563 194.938L71.0685 194.948Z" fill="#FBBC04" />
    <path d="M91.4743 273.255C91.3554 271.747 90.967 270.246 90.8969 269.422C90.8388 268.753 78.654 163.003 78.654 163.003C78.654 163.003 77.6459 152.298 75.8093 141.406C77.4094 133.514 79.7533 121.061 79.6265 116.592C79.6265 116.592 69.6165 120.974 66.892 121.964L66.9237 122.076C64.7159 122.984 61.9531 124.182 60.4918 125.06C51.5533 130.437 55.3243 165.062 55.3243 165.062L55.4167 165.056C56.1593 173.873 74.7523 288.011 74.7523 288.011L77.3129 277.294L77.3591 292.516C77.3671 292.926 78.0806 291.709 78.1559 291.308L80.4853 278.927L81.4221 294.283C81.4432 294.628 81.9413 294.652 81.9968 294.311L84.5125 278.849C84.5125 278.849 85.7004 293.527 86.5486 292.009C87.2674 290.724 88.08 278.107 88.3125 274.278L89.1515 275.196C90.3208 278.157 92.4547 283.212 92.9528 281.982C93.2792 281.175 92.4468 277.217 91.4743 273.255Z" fill="#DF6F54" />
    <path d="M166.89 194.623C167.933 194.459 168.667 194.343 168.987 194.293C168.987 194.31 168.987 194.326 168.987 194.343L166.89 194.623Z" fill="#C2C3CD" />
    <path d="M168.987 194.343C168.987 194.326 168.987 194.31 168.987 194.293C169.106 194.275 169.167 194.265 169.167 194.265L169.113 190.907L169.189 194.316L168.987 194.343Z" fill="#182847" />
    <path d="M168.846 179.448L168.848 179.445V179.448H168.846Z" fill="#C2C3CD" />
    <path d="M168.847 179.448V179.445L168.853 179.43V179.447C168.852 179.448 168.85 179.448 168.847 179.448Z" fill="#182847" />
    <path d="M161.09 195.397L168.846 179.448H168.847C168.85 179.448 168.851 179.448 168.852 179.447L169.112 190.906L169.167 194.265C169.167 194.265 169.106 194.274 168.987 194.293C168.667 194.343 167.933 194.459 166.89 194.623L161.09 195.397Z" fill="#AA584D" />
    <path d="M328.033 196.344L373.548 205.762C373.548 205.762 387.414 205.262 430.203 477.015L401.664 478.267L347.531 272.719C346.748 269.742 342.352 270.355 342.415 273.433L352.289 478.515L322.393 476.264C322.393 476.264 286.434 269.071 300.448 236.04C314.461 203.01 328.033 196.344 328.033 196.344Z" fill="#1D3151" />
    <path d="M302.077 232.378C302.108 232.39 306.486 234.249 312.155 234.251C318.019 234.262 325.316 232.217 330.382 224.04C340.201 208.22 342.939 199.474 342.951 199.438L342.127 199.182C342.127 199.182 342.087 199.309 341.994 199.573C341.351 201.427 338.208 209.795 329.648 223.585C324.741 231.475 317.838 233.378 312.155 233.389C309.416 233.389 306.973 232.935 305.218 232.482C304.341 232.256 303.637 232.029 303.153 231.86C302.911 231.775 302.723 231.705 302.599 231.656C302.474 231.609 302.414 231.582 302.414 231.582L302.077 232.378Z" fill="white" />
    <path d="M358.443 203.139C358.444 203.151 358.784 211.469 360.458 220.253C361.296 224.644 362.466 229.154 364.109 232.817C365.754 236.47 367.866 239.323 370.716 240.284C378.875 243.005 383.858 243.333 385.78 243.331C386.371 243.333 386.673 243.301 386.688 243.3L386.598 242.441C386.597 242.441 386.541 242.447 386.405 242.455C386.269 242.462 386.06 242.468 385.78 242.468C383.956 242.468 379.068 242.159 370.99 239.467C368.531 238.658 366.492 236.033 364.896 232.462C362.495 227.121 361.087 219.765 360.293 213.761C359.894 210.758 359.647 208.092 359.5 206.177C359.352 204.263 359.306 203.108 359.305 203.104L358.443 203.139Z" fill="white" />
    <path d="M370.431 239.964L420.414 477.056L421.258 476.878L371.276 239.786" fill="white" />
    <path d="M312.706 233.651L333.942 477.042L334.801 476.968L313.567 233.576L312.706 233.651Z" fill="white" />
    <path d="M297.759 249.546C297.817 238.997 302.795 228.264 308.697 219.229C306.035 223.883 303.25 229.436 300.447 236.04C299.138 239.126 298.266 243.73 297.759 249.546Z" fill="#7F8DA0" />
    <path d="M297.889 252.671C297.795 251.633 297.753 250.59 297.758 249.546C298.266 243.73 299.138 239.126 300.447 236.04C303.25 229.436 306.035 223.883 308.697 219.229C317.368 205.956 328.033 196.343 328.033 196.343L342.103 199.256C342.082 199.319 342.048 199.425 341.995 199.573C341.351 201.426 338.208 209.794 329.649 223.584C324.742 231.475 317.838 233.377 312.155 233.388C309.416 233.388 306.973 232.935 305.218 232.482C304.341 232.256 303.637 232.028 303.153 231.859C302.911 231.775 302.724 231.705 302.6 231.656C302.474 231.608 302.415 231.582 302.415 231.582L302.078 232.377C302.108 232.389 306.487 234.248 312.155 234.251C312.171 234.251 312.185 234.251 312.201 234.251C312.385 234.251 312.571 234.248 312.758 234.244L313.52 242.979L297.889 252.671ZM314.342 242.47L313.622 234.21C319.197 233.886 325.73 231.547 330.382 224.04C340.202 208.219 342.939 199.474 342.951 199.438L342.879 199.415L373.548 205.761L360.319 213.964C360.31 213.895 360.301 213.828 360.293 213.76C359.894 210.757 359.647 208.091 359.5 206.176C359.352 204.262 359.306 203.107 359.305 203.103L358.443 203.139C358.445 203.178 358.651 208.154 359.516 214.461L314.342 242.47Z" fill="#111D2F" />
    <path d="M312.201 234.251C312.185 234.251 312.171 234.251 312.155 234.251C306.486 234.249 302.108 232.39 302.077 232.378L302.414 231.582C302.414 231.582 302.474 231.609 302.599 231.656C302.723 231.705 302.911 231.775 303.153 231.86C303.637 232.029 304.341 232.256 305.218 232.482C306.973 232.935 309.416 233.389 312.155 233.389C317.838 233.378 324.741 231.475 329.648 223.585C338.208 209.795 341.351 201.427 341.994 199.573C342.047 199.425 342.082 199.32 342.103 199.256L342.878 199.416L342.951 199.438C342.939 199.474 340.201 208.22 330.382 224.041C325.73 231.548 319.197 233.887 313.621 234.21L313.566 233.576L312.706 233.651L312.757 234.245C312.571 234.249 312.385 234.251 312.201 234.251Z" fill="#7F8CA0" />
    <path d="M359.516 214.461C358.651 208.154 358.444 203.178 358.443 203.139L359.305 203.103C359.306 203.107 359.352 204.262 359.5 206.176C359.647 208.091 359.894 210.757 360.293 213.761C360.301 213.828 360.31 213.895 360.319 213.964L359.516 214.461Z" fill="#7F8CA0" />
    <path d="M313.52 242.979L312.758 234.245L312.706 233.651L313.567 233.576L313.622 234.21L314.342 242.471L313.52 242.979Z" fill="#7F8CA0" />
    <path d="M337.798 62.3468C338.895 56.9692 342.133 46.8906 350.826 44.6827C359.239 42.5462 365.33 43.2333 374.305 47.5578C386.042 53.2142 393.445 90.7053 393.445 90.7053C393.445 90.7053 377.765 108.006 334.079 91.1374C334.079 91.1374 336.35 69.4579 337.798 62.3468Z" fill="#0D1120" />
    <path d="M331.731 88.9673C333.424 75.5286 336.87 58.0455 349.111 50.2341C350.87 49.1124 349.241 46.2954 347.469 47.4264C334.078 55.9724 330.328 74.2919 328.48 88.9673C328.218 91.0377 331.472 91.0192 331.731 88.9673Z" fill="#0D1120" />
    <path d="M344.937 82.7142C344.937 82.7142 340.762 115.233 340.349 117.847C340.349 117.847 354.445 134.656 368.863 120.201C368.863 120.201 366.423 112.316 361.989 92.012L344.937 82.7142Z" fill="#F8A16A" />
    <path d="M344.938 82.714L344.005 82.595C344.003 82.599 343.743 84.6272 343.345 87.7163C342.75 92.35 341.844 99.362 341.05 105.46C340.258 111.552 339.571 116.758 339.421 117.7C339.379 117.97 339.454 118.243 339.63 118.45C339.663 118.49 341.43 120.596 344.383 122.721C347.332 124.839 351.49 127.002 356.319 127.007C360.472 127.015 365.061 125.358 369.529 120.864C369.775 120.619 369.865 120.255 369.762 119.924C369.762 119.922 369.726 119.807 369.651 119.556C369.131 117.796 366.785 109.56 362.908 91.8123C362.85 91.5454 362.678 91.3168 362.439 91.186L345.388 81.8882C345.115 81.7402 344.787 81.7349 344.51 81.8763C344.232 82.019 344.044 82.2859 344.005 82.595L344.938 82.714L344.487 83.5398L361.539 92.8376L361.99 92.0118L361.07 92.2126C365.51 112.538 367.954 120.447 367.965 120.479L368.863 120.201L368.197 119.537C363.996 123.736 359.972 125.119 356.319 125.127C352.072 125.132 348.246 123.186 345.481 121.193C344.099 120.201 342.987 119.204 342.226 118.458C341.846 118.087 341.552 117.778 341.357 117.564L341.138 117.319L341.085 117.259L341.072 117.243L340.35 117.847L341.279 117.993C341.387 117.308 341.723 114.8 342.173 111.378C343.521 101.126 345.87 82.8342 345.87 82.8342L344.938 82.714L344.487 83.5398L344.938 82.714Z" fill="#F8A16A" />
    <path d="M356.329 127.765C356.329 127.765 354.957 134.659 369.375 120.204C369.375 120.204 368.191 113.675 367.227 109.995L356.329 127.765Z" fill="#0D1120" />
    <path d="M363.095 92.303C361.924 96.5549 354.656 100.103 350.636 99.2503C345.742 98.2118 343.571 89.4887 344.033 85.8883C344.421 82.8599 352.803 81.2308 356.764 82.3235C360.724 83.4162 364.268 88.0499 363.095 92.303Z" fill="#0D1120" />
    <path d="M338.658 66.5065L344.301 67.4922L343.203 73.7854L337.559 72.7997C335.82 72.4958 334.659 70.8416 334.961 69.1041C335.265 67.3653 336.919 66.2026 338.658 66.5065Z" fill="#F8A16A" />
    <path d="M338.658 66.506L338.501 67.4071L343.243 68.2356L342.459 72.7266L337.716 71.8981C336.609 71.7066 335.828 70.7394 335.828 69.6559C335.828 69.5265 335.838 69.3943 335.862 69.2622L335.875 69.1829V69.1037H334.961L335.862 69.2609C336.054 68.1537 337.021 67.3728 338.104 67.3728C338.234 67.3728 338.366 67.3833 338.501 67.4071L338.658 66.506L338.815 65.6049C338.577 65.564 338.339 65.5428 338.104 65.5428C336.141 65.5428 334.411 66.95 334.06 68.9451L334.047 69.023V69.1037H334.961L334.06 68.9451C334.018 69.1843 333.998 69.4221 333.998 69.6559C333.998 71.6194 335.404 73.3502 337.401 73.7004L343.947 74.8433L345.359 66.7478L338.815 65.6049L338.658 66.506Z" fill="#F8A16A" />
    <path d="M338.142 68.1409L340.471 68.5479L340.018 71.1455L337.688 70.7399C336.971 70.6143 336.49 69.9299 336.616 69.2125C336.742 68.495 337.425 68.0154 338.142 68.1409Z" fill="#D15F46" />
    <path d="M338.142 68.14L337.986 69.0319L339.424 69.2829L339.282 70.0982L337.844 69.8471C337.643 69.8141 337.501 69.6344 337.501 69.4402L337.508 69.3702V69.3675C337.541 69.1667 337.719 69.0253 337.914 69.0253L337.986 69.0319L338.142 68.14L338.297 67.2482C338.169 67.2257 338.04 67.2152 337.914 67.2152C336.85 67.2152 335.915 67.9762 335.724 69.057L335.722 69.0742L335.724 69.0557C335.702 69.1852 335.691 69.3133 335.691 69.4402C335.691 70.5051 336.452 71.4393 337.532 71.6308L340.754 72.1924L341.519 67.8111L338.298 67.2482L338.142 68.14Z" fill="#D15F46" />
    <path d="M375.441 79.7121L369.977 77.9918L371.895 71.8981L377.36 73.6171C379.043 74.1469 379.977 75.9412 379.447 77.6232C378.919 79.3065 377.126 80.2406 375.441 79.7121Z" fill="#F8A16A" />
    <path d="M375.441 79.7125L375.716 78.8391L371.125 77.3937L372.492 73.0453L377.086 74.4908C378.059 74.7947 378.68 75.6971 378.681 76.6643C378.681 76.8903 378.647 77.1201 378.576 77.35C378.272 78.3225 377.371 78.9448 376.402 78.9448C376.176 78.9448 375.946 78.9118 375.716 78.8391L375.441 79.7125L375.167 80.5845C375.576 80.7127 375.992 80.7748 376.402 80.7748C378.15 80.7761 379.767 79.6517 380.321 77.8984V77.8971C380.449 77.4901 380.511 77.0739 380.511 76.6643C380.511 74.9163 379.389 73.299 377.635 72.7454L371.297 70.7516L368.83 78.5894L375.167 80.5845L375.441 79.7125Z" fill="#F8A16A" />
    <path d="M376.9 75.3536L374.656 74.6058L373.823 77.1069L376.067 77.8548C376.756 78.086 377.504 77.7121 377.735 77.0211C377.964 76.33 377.591 75.5835 376.9 75.3536Z" fill="#D15F46" />
    <path d="M376.9 75.3533L377.187 74.4945L374.083 73.4599L372.677 77.6787L375.78 78.7133C376.011 78.7913 376.249 78.8282 376.483 78.8282C377.416 78.8296 378.28 78.239 378.593 77.3075L378.594 77.3061C378.671 77.0749 378.708 76.8384 378.708 76.6046C378.709 75.6717 378.118 74.8063 377.186 74.4945L376.9 75.3533L376.614 76.2121C376.788 76.269 376.896 76.4328 376.898 76.6046L376.875 76.7354L376.877 76.734C376.82 76.9085 376.655 77.0168 376.483 77.0181L376.353 76.997L374.967 76.5345L375.229 75.7497L376.614 76.2121L376.9 75.3533Z" fill="#D15F46" />
    <path d="M363.988 53.8723H363.99C374.133 57.0896 378.123 67.6518 374.906 77.7953L374.659 78.5695C371.443 88.7116 360.543 95.2268 352.071 92.3887L352.003 92.3464C345.393 89.7832 336.567 77.3619 339.784 67.2185L340.03 66.4442C343.247 56.3021 353.845 50.655 363.988 53.8723Z" fill="#F8A16A" />
    <path d="M363.988 53.8722V54.7865H363.99V53.8722L363.713 54.7442C367.445 55.9307 370.263 58.1346 372.175 60.9595C374.084 63.7831 375.079 67.2395 375.08 70.9153C375.08 73.0729 374.737 75.3033 374.034 77.5177L373.788 78.292L373.787 78.2933C372.499 82.3615 369.902 85.8364 366.725 88.2848C363.55 90.7357 359.805 92.1442 356.269 92.1416C354.926 92.1416 353.612 91.9407 352.361 91.5206L352.07 92.3887L352.55 91.6091L352.483 91.5681L352.411 91.5245L352.333 91.4941C349.785 90.519 346.624 87.7351 344.194 84.1069C341.75 80.4827 340.01 76.0313 340.015 71.7755C340.015 70.3181 340.216 68.8805 340.656 67.4958L340.902 66.7203C343.387 58.8878 350.474 53.8841 358.198 53.8828C360.016 53.8828 361.87 54.1589 363.712 54.7442L363.847 54.7865H363.988V53.8722L364.266 53.0001C362.244 52.3593 360.203 52.0528 358.198 52.0528C349.68 52.0515 341.881 57.5784 339.158 66.168L338.912 66.9422C338.41 68.5225 338.185 70.149 338.185 71.7755C338.19 76.5281 340.081 81.2675 342.676 85.1296C345.286 88.989 348.577 91.9857 351.673 93.1999L352.003 92.3464L351.523 93.1259L351.591 93.1669L351.679 93.2224L351.78 93.2554C353.23 93.7416 354.743 93.9702 356.269 93.9702C360.289 93.9676 364.387 92.3952 367.842 89.7342C371.296 87.0705 374.117 83.3036 375.531 78.8456L375.551 78.7835L375.778 78.0726V78.0713C376.535 75.6825 376.909 73.2659 376.909 70.9153C376.91 66.9118 375.823 63.0894 373.69 59.9342C371.56 56.779 368.376 54.3003 364.267 53.0001L364.131 52.9566H363.988V53.8722L364.266 53.0001L363.988 53.8722Z" fill="#F8A16A" />
    <path d="M354.061 84.9935L354.803 85.1719C357.429 85.7981 360.066 84.1783 360.692 81.5529L350.44 79.1059C349.814 81.7313 351.434 84.3672 354.061 84.9935Z" fill="white" />
    <path d="M360.123 74.8789C359.944 75.6215 360.256 76.3337 360.82 76.4697C361.385 76.6045 361.986 76.1117 362.164 75.3691C362.343 74.6266 362.031 73.9144 361.467 73.7783C360.902 73.6435 360.301 74.1351 360.123 74.8789Z" fill="#0D1120" />
    <path d="M352.164 72.9567C351.931 73.6834 352.188 74.418 352.741 74.5951C353.293 74.7721 353.93 74.3269 354.164 73.5989C354.397 72.8722 354.14 72.1375 353.587 71.9605C353.035 71.7821 352.398 72.2287 352.164 72.9567Z" fill="#0D1120" />
    <path d="M354.67 78.0739L357.341 78.7992C357.668 78.8891 358.004 78.5205 357.971 78.1069L357.67 74.4206C357.631 73.9515 357.161 73.8009 356.871 74.1629L354.502 77.1239C354.234 77.4582 354.328 77.9801 354.67 78.0739Z" fill="#D66068" />
    <path d="M350.498 69.2878C349.642 69.5586 351.414 67.7009 352.452 67.7458C353.492 67.7921 354.302 68.5571 354.262 69.4556C354.262 69.4556 352.555 68.6364 350.498 69.2878Z" fill="#0D1120" />
    <path d="M365.246 72.7449C365.884 73.3791 365.163 70.915 364.218 70.479C363.273 70.0429 362.203 70.3508 361.827 71.1673C361.827 71.1673 363.717 71.2228 365.246 72.7449Z" fill="#0D1120" />
    <path d="M352.181 52.7487C372.504 65.2691 377.337 73.1782 377.337 73.1782C377.337 73.1782 382.559 48.4836 355.223 47.7662C337.564 47.3024 350.938 51.9837 352.181 52.7487Z" fill="#0D1120" />
    <path d="M354.515 52.4242C354.515 52.4242 346.581 63.6947 344.567 65.6171C342.267 67.8131 338.672 65.2696 338.672 65.2696C338.672 65.2696 339.816 47.6676 354.515 52.4242Z" fill="#0D1120" />
    <path d="M384.368 88.3373H383.708C383.708 89.9968 383.037 91.4925 381.949 92.5812C380.86 93.6686 379.363 94.3399 377.704 94.3399C376.044 94.3399 374.547 93.6686 373.459 92.5812C372.371 91.4925 371.7 89.9968 371.7 88.3373C371.7 86.6764 372.371 85.1808 373.459 84.092C374.547 83.0046 376.044 82.3334 377.704 82.3334C379.363 82.3334 380.86 83.0046 381.949 84.092C383.037 85.1808 383.708 86.6764 383.708 88.3373H384.368H385.029C385.029 84.2915 381.75 81.0135 377.704 81.0121C373.66 81.0135 370.38 84.2915 370.379 88.3373C370.38 92.3817 373.66 95.6611 377.704 95.6611C381.75 95.6611 385.029 92.3817 385.029 88.3373H384.368Z" fill="#F0E034" />
    <path d="M378.014 80.7947C378.014 81.532 377.415 82.1292 376.678 82.1292C375.941 82.1292 375.343 81.532 375.343 80.7947C375.343 80.0574 375.941 79.4602 376.678 79.4602C377.415 79.4602 378.014 80.0574 378.014 80.7947Z" fill="#F0E034" />
    <path d="M339.724 83.4204L339.146 83.102C338.052 85.0905 336 86.2123 333.879 86.2136C332.901 86.2136 331.912 85.9745 330.992 85.4697C329.004 84.3757 327.882 82.3238 327.881 80.2032C327.881 79.2254 328.12 78.2358 328.624 77.3162C329.718 75.3276 331.772 74.2059 333.891 74.2046C334.87 74.2046 335.858 74.4437 336.778 74.9485C338.767 76.0411 339.888 78.0944 339.89 80.215C339.89 81.1928 339.651 82.1824 339.146 83.102L339.724 83.4204L340.303 83.7389C340.918 82.6211 341.211 81.4081 341.211 80.215C341.212 77.6319 339.839 75.1242 337.415 73.791C336.297 73.1766 335.084 72.8833 333.891 72.8833C331.308 72.882 328.8 74.2548 327.467 76.6793C326.853 77.7971 326.559 79.0101 326.559 80.2032C326.558 82.7863 327.932 85.294 330.355 86.6272C331.473 87.2416 332.686 87.5349 333.879 87.5349C336.462 87.5362 338.97 86.1634 340.303 83.7389L339.724 83.4204Z" fill="#F0E034" />
    <path d="M337.792 73.7486C337.436 74.3947 336.625 74.6312 335.979 74.2758C335.333 73.9204 335.098 73.1091 335.452 72.4617C335.807 71.8169 336.618 71.5817 337.264 71.9358C337.911 72.2912 338.147 73.1025 337.792 73.7486Z" fill="#F0E034" />
    <path d="M315.221 136.887L309.651 104.581C309.651 104.581 301.903 104.593 291.402 104.704L297.864 116.018L296.492 118.955C296.492 118.955 307.696 135.295 315.221 136.887Z" fill="#F8A16A" />
    <path d="M315.22 136.887C307.696 135.295 296.491 118.955 296.491 118.955L297.864 116.018L310.112 120.85L315.22 136.887Z" fill="#BD7F60" />
    <path d="M413.068 154.7L398.734 119.429C393.786 111.73 389.248 109.513 383.093 110.366C381.127 110.64 379.479 111.204 378.06 111.967L368.157 113.919C353.837 123.625 341.107 109.449 341.107 109.449C330.15 100.799 305.349 93.8766 305.349 93.8766L309.387 132.517C309.387 132.517 319.48 170.294 319.548 171.569C320.17 183.423 319.41 204.034 319.574 203.719C319.737 203.406 383.297 211.895 383.785 210.952C384.274 210.01 384.362 202.879 385.515 176.927C385.667 173.515 385.729 170.139 385.725 166.82L413.068 154.7Z" fill="#FBBC04" />
    <path d="M351.644 206.238C340.496 197.253 329.4 187.77 321.473 175.698C317.65 169.879 314.564 163.517 312.776 156.773C312.052 154.035 309.296 147.816 313.023 148.062C315.675 148.236 319.795 151.06 322.162 152.205C346.887 164.168 365.912 189.476 371.783 216.414C371.993 217.379 373.473 216.97 373.263 216.006C369.788 200.059 360.911 184.964 350.863 172.252C340.38 158.989 325.947 151.973 310.736 145.411C310.25 145.203 309.539 145.431 309.581 146.075C311.319 172.709 330.982 191.545 350.558 207.324C351.32 207.938 352.413 206.859 351.644 206.238Z" fill="white" />
    <path d="M302.343 98.4014C322.678 131.909 346.681 168.031 387.092 178.181C387.783 178.356 388.233 177.649 387.958 177.054C379.466 158.645 368.661 141.408 355.641 125.859C343.116 110.902 327.49 93.6911 309.364 85.6313C308.47 85.2336 307.688 86.5562 308.59 86.9565C325.944 94.6741 340.996 111.034 353.158 125.292C365.512 139.773 376.021 155.815 384.331 172.938C385.393 175.132 386.57 175.552 384.418 175.898C382.629 176.185 379.052 174.214 377.384 173.575C372.829 171.835 368.44 169.676 364.23 167.221C355.687 162.243 347.921 155.967 340.948 148.973C325.929 133.909 314.643 115.709 303.668 97.6272C303.157 96.7829 301.829 97.5532 302.343 98.4014Z" fill="white" />
    <path d="M373.183 113.058C378.464 137.128 398.563 157.176 424.529 153.884C425.495 153.761 425.507 152.225 424.529 152.349C399.193 155.561 379.812 136.113 374.663 112.649C374.451 111.685 372.971 112.094 373.183 113.058Z" fill="white" />
    <path d="M379.17 149.963C379.17 149.963 388.4 170.627 389.897 177.974C391.982 188.2 400.192 196.3 410.315 198.841C424.701 202.452 436.122 202.741 455.295 201.762L482.615 197.409C504.474 196.084 513.098 191.867 513.098 191.867L498.821 192.923L517.648 186.862C518.152 186.692 516.361 186.289 515.837 186.354L499.59 188.353L518.232 181.137C518.65 180.975 518.485 180.349 518.041 180.415L497.909 183.399C497.909 183.399 515.608 176.139 513.396 175.687C511.185 175.235 489.365 180.851 489.365 180.851C489.365 180.851 500.852 171.896 498.457 171.714C496.902 171.596 488.792 176.571 483.299 180.072C479.759 182.328 475.749 183.86 471.573 184.583L460.804 185.813C459.288 185.595 457.828 185.384 456.416 185.178C437.796 182.456 427.861 180.572 415.544 176.605C405.987 159.912 404.691 146.503 404.691 146.503L379.17 149.963Z" fill="#F8A16A" />
    <path d="M379.17 149.962L378.286 150.359C378.286 150.359 378.429 150.679 378.682 151.256C379.574 153.278 381.824 158.44 384.012 163.89C386.199 169.328 388.329 175.105 388.947 178.168C391.119 188.787 399.609 197.149 410.078 199.781C420.095 202.297 428.732 203.216 439.434 203.215C444.216 203.215 449.414 203.033 455.344 202.73L455.447 202.718L482.767 198.365L482.615 197.408L482.673 198.375C504.641 197.045 513.395 192.801 513.524 192.737C513.941 192.534 514.155 192.062 514.034 191.614C513.912 191.165 513.491 190.865 513.027 190.899L506.85 191.357L517.946 187.785L517.96 187.78C518.058 187.744 518.173 187.705 518.333 187.576C518.411 187.512 518.501 187.419 518.577 187.283C518.655 187.148 518.708 186.966 518.707 186.792C518.704 186.492 518.58 186.28 518.489 186.163C518.307 185.943 518.186 185.894 518.082 185.832C517.904 185.74 517.752 185.691 517.581 185.638C517.073 185.494 516.485 185.383 515.971 185.377L515.718 185.391L507.226 186.436L518.581 182.04C518.84 181.943 519.078 181.755 519.228 181.522C519.378 181.291 519.443 181.032 519.443 180.793C519.44 180.463 519.331 180.151 519.102 179.888C518.879 179.625 518.496 179.433 518.104 179.439L517.896 179.455H517.898L497.766 182.439L497.909 183.399L498.276 184.294C498.281 184.293 502.207 182.682 506.143 180.926C508.113 180.047 510.083 179.132 511.584 178.354C512.337 177.964 512.969 177.61 513.45 177.292C513.693 177.13 513.896 176.982 514.081 176.808C514.174 176.718 514.263 176.623 514.355 176.486C514.441 176.348 514.552 176.154 514.558 175.834C514.559 175.677 514.52 175.495 514.438 175.34C514.316 175.104 514.13 174.957 513.983 174.878C513.833 174.796 513.706 174.761 513.591 174.736C513.401 174.699 513.237 174.691 513.055 174.691C512.504 174.693 511.787 174.781 510.872 174.927C507.697 175.434 502.285 176.677 497.635 177.796C492.99 178.916 489.126 179.91 489.124 179.91L489.365 180.85L489.961 181.614C489.968 181.608 492.33 179.768 494.707 177.722C495.896 176.7 497.088 175.628 498.007 174.69C498.466 174.22 498.857 173.786 499.159 173.381C499.309 173.177 499.439 172.982 499.546 172.77C499.649 172.556 499.748 172.33 499.755 171.985C499.768 171.705 499.625 171.292 499.334 171.058C499.049 170.821 498.761 170.767 498.53 170.747L498.399 170.742C497.964 170.75 497.605 170.862 497.16 171.017C495.649 171.567 493.299 172.852 490.66 174.398C488.031 175.941 485.16 177.737 482.779 179.255C479.351 181.439 475.46 182.926 471.408 183.629L471.573 184.582L471.463 183.619L460.694 184.849L460.805 185.813L460.942 184.852C459.427 184.635 457.967 184.424 456.558 184.218C437.941 181.496 428.093 179.626 415.842 175.682L415.544 176.605L416.385 176.124C411.653 167.858 408.969 160.407 407.468 155.033C406.717 152.346 406.264 150.178 405.998 148.689C405.865 147.942 405.779 147.367 405.726 146.98C405.7 146.787 405.682 146.642 405.671 146.546L405.656 146.408C405.631 146.148 405.499 145.905 405.293 145.742C405.088 145.58 404.821 145.506 404.561 145.541L379.04 149.002C378.739 149.043 378.471 149.225 378.323 149.491C378.175 149.758 378.162 150.08 378.286 150.359L379.17 149.962L379.301 150.923L404.822 147.463L404.692 146.502L403.727 146.596C403.736 146.688 405.055 160.23 414.703 177.087C414.822 177.296 415.019 177.454 415.247 177.528C427.63 181.516 437.649 183.413 456.277 186.136C457.688 186.344 459.149 186.554 460.667 186.772L460.914 186.776L471.683 185.546L471.738 185.538C476.039 184.793 480.169 183.216 483.82 180.89C486.527 179.163 489.873 177.078 492.736 175.434C494.166 174.612 495.476 173.901 496.511 173.404C497.027 173.157 497.475 172.964 497.818 172.84C497.988 172.78 498.133 172.735 498.239 172.709L498.362 172.686L498.399 172.68V172.461L498.383 172.68H498.399V172.461L498.383 172.68L498.425 172.125L498.078 172.535C498.255 172.679 498.379 172.678 498.383 172.68L498.425 172.125L498.078 172.535L498.546 171.985H497.816C497.803 172.106 497.894 172.392 498.078 172.535L498.546 171.985H497.816H498.235L497.831 171.861L497.816 171.985H498.235L497.831 171.861L497.829 171.865C497.811 171.926 497.635 172.209 497.355 172.535C496.364 173.716 494.185 175.648 492.293 177.228C491.346 178.022 490.463 178.737 489.819 179.254C489.174 179.77 488.771 180.084 488.77 180.085C488.406 180.368 488.293 180.864 488.496 181.277C488.698 181.689 489.162 181.903 489.607 181.788C489.61 181.788 490.864 181.466 492.806 180.979C495.719 180.25 500.175 179.157 504.223 178.248C506.246 177.794 508.168 177.385 509.738 177.092C511.296 176.799 512.548 176.626 513.055 176.63L513.175 176.634L513.203 176.636H513.204L513.331 176.013L512.944 176.507C513.098 176.622 513.181 176.628 513.203 176.636L513.331 176.013L512.944 176.507L513.464 175.844L512.715 176.229C512.78 176.355 512.868 176.449 512.944 176.507L513.464 175.844L512.715 176.229L513.481 175.834H512.619C512.617 175.956 512.649 176.104 512.715 176.229L513.481 175.834H512.619H513.357L512.732 175.425C512.706 175.471 512.625 175.585 512.619 175.834H513.357L512.732 175.425L513.004 175.603L512.759 175.389L512.732 175.425L513.004 175.603L512.759 175.389L512.702 175.441C512.546 175.577 512.14 175.844 511.606 176.142C509.717 177.206 506.173 178.812 503.136 180.131C501.615 180.793 500.214 181.385 499.196 181.813C498.177 182.24 497.543 182.5 497.54 182.501C497.086 182.688 496.844 183.181 496.973 183.655C497.104 184.129 497.564 184.429 498.05 184.357L518.184 181.372H518.186L518.104 180.833V181.378L518.186 181.372L518.104 180.833V181.378V180.767L517.647 181.17C517.742 181.287 517.942 181.384 518.104 181.378V180.767L517.647 181.17L518.075 180.793H517.503C517.506 180.932 517.547 181.051 517.647 181.17L518.075 180.793H517.503H518.108L517.604 180.463L517.503 180.793H518.108L517.604 180.463L518.095 180.784L517.881 180.233L517.604 180.463L518.095 180.784L517.881 180.233L499.241 187.448C498.785 187.624 498.531 188.114 498.651 188.589C498.769 189.062 499.225 189.373 499.71 189.314L515.956 187.315L515.944 187.214L515.949 187.316L515.956 187.315L515.944 187.214L515.949 187.316H515.971C516.107 187.312 516.531 187.369 516.836 187.446C516.989 187.483 517.127 187.526 517.173 187.546L517.184 187.55L517.363 187.152L517.095 187.492L517.184 187.55L517.363 187.152L517.095 187.492L517.606 186.844L516.928 187.311L517.095 187.492L517.606 186.844L516.928 187.311L517.683 186.792H516.767C516.769 187.032 516.858 187.213 516.928 187.311L517.683 186.792H516.767H517.698L516.885 186.338C516.815 186.46 516.766 186.629 516.767 186.792H517.698L516.885 186.338L517.662 186.772L517.186 186.019C517.112 186.066 516.992 186.152 516.885 186.338L517.662 186.772L517.186 186.019L517.567 186.621L517.337 185.945L517.186 186.019L517.567 186.621L517.337 185.945L517.649 186.862L517.351 185.939L498.524 192C498.057 192.151 497.777 192.626 497.87 193.109C497.964 193.591 498.403 193.925 498.893 193.89L513.169 192.834L513.098 191.867L512.673 190.996L512.658 191.003C512.256 191.191 503.629 195.163 482.556 196.44L482.462 196.45L455.142 200.804L455.295 201.762L455.245 200.793C449.333 201.094 444.167 201.275 439.434 201.275C428.838 201.274 420.421 200.376 410.55 197.9C400.775 195.45 392.845 187.61 390.847 177.779C390.451 175.846 389.584 173.161 388.501 170.167C385.254 161.203 380.06 149.578 380.055 149.567L379.17 149.962L379.301 150.923L379.17 149.962Z" fill="#F8A16A" />
</svg>
    