<svg width="428" height="440" viewBox="0 0 428 440" fill="none" xmlns="http://www.w3.org/2000/svg">
    <path d="M26.6868 205.708L-8.98096 479.051L23.8937 478.378L65.4332 306.224C67.7507 299.208 75.5185 299.278 78.0038 306.224L96.6232 479.393L127.553 478.943C127.553 478.943 135.901 310.222 104.941 194.439L26.6868 205.708Z" fill="#66CDDC" />
    <path d="M112.797 228.969C112.738 228.666 112.68 228.365 112.621 228.064L113.209 228.017C113.098 228.3 112.962 228.618 112.797 228.969Z" fill="#D8DCE0" />
    <path d="M56.2661 251.007C26.5837 251.006 24.644 235.519 24.644 235.519L50.1539 232.944L112.621 228.063C112.681 228.365 112.739 228.666 112.797 228.968C110.313 234.211 101.129 246.412 68.7495 250.221C64.1197 250.765 59.9776 251.007 56.2661 251.007Z" fill="#5BB6CA" />
    <path d="M78.8997 201.262L88.0019 231.52C90.7898 240.781 99.6794 247.11 109.734 247.11C109.895 247.11 110.057 247.109 110.219 247.105L110.206 246.476L110.202 247.106L116.125 247.143L116.133 245.884L110.202 245.846H110.194C110.039 245.848 109.886 245.85 109.734 245.85C100.205 245.851 91.8204 239.851 89.2082 231.157L80.106 200.898L78.8997 201.262Z" fill="#202650" />
    <path d="M39.8151 200.269L42.3796 231.634C42.4246 232.191 42.447 232.745 42.447 233.296C42.447 241.823 37.0721 249.524 28.9159 252.398L19.9563 255.553L20.3646 256.712L29.3228 253.555C37.9745 250.508 43.6758 242.343 43.6758 233.296C43.6758 232.712 43.652 232.124 43.6031 231.533L41.0386 200.169L39.8151 200.269Z" fill="#202650" />
    <path d="M223.726 110.623C223.726 110.623 224.574 85.5918 227.271 86.6013C229.967 87.6094 229.338 98.5747 229.644 100.402C230.133 103.319 235.021 95.8819 239.773 88.4458C243.964 81.8843 248.048 75.3229 248.91 75.8726C250.563 76.923 245.757 91.5534 245.757 91.5534C245.757 91.5534 248.769 77.4013 250.507 78.3169C252.245 79.2299 251.445 92.5999 251.445 92.5999C251.445 92.5999 252.379 80.1958 253.305 81.7192C254.231 83.2439 254.435 95.0165 254.435 95.0165C254.435 95.0165 254.316 86.6846 254.337 89.3562C254.481 107.586 239.253 125.899 239.253 125.899C239.253 125.899 202.505 167.717 179.454 177.245C152.874 188.232 122.59 182.918 106.549 162.436L72.1201 118.476C63.6494 104.618 62.0745 90.6021 77.2401 80.756C92.4056 70.9099 112.239 79.0106 120.711 92.8681L151.677 129.932C161.343 142.552 186.532 137.658 201.057 127.47L222.538 112.402C223.152 111.971 223.583 111.328 223.726 110.625V110.623Z" fill="#F8A488" />
    <path d="M155.674 182.803L155.679 182.728C156.216 182.696 156.753 182.659 157.291 182.615C156.775 182.677 156.235 182.741 155.674 182.803Z" fill="#C2C3CD" />
    <path d="M155.679 182.728L159.042 137.694L166.951 181.046C166.951 181.046 164.044 181.805 157.291 182.616C156.753 182.66 156.215 182.697 155.679 182.728Z" fill="#C48177" />
    <path d="M-106.751 66.9587C-106.751 66.9587 -94.3349 45.2079 -97.1598 44.6516C-99.9846 44.094 -105.205 53.7578 -106.423 55.1518C-108.359 57.3636 -108.624 48.597 -108.766 39.8303C-108.891 31.9872 -108.916 24.1468 -109.946 24.16C-111.905 24.1864 -115.492 39.1631 -115.492 39.1631C-115.492 39.1631 -110.629 25.5367 -112.588 25.402C-114.548 25.2685 -120.885 37.0689 -120.885 37.0689C-120.885 37.0689 -115.169 26.0203 -116.757 26.8303C-118.344 27.6429 -124.698 37.555 -124.698 37.555C-124.698 37.555 -120.223 30.5259 -121.643 32.7892C-131.333 48.2296 -127.985 71.8104 -127.985 71.8104C-127.985 71.8104 -118.656 126.695 -104.037 146.902C-87.1789 170.206 -58.6143 181.579 -34.209 172.564L18.1703 153.218C32.6541 145.869 38.1202 126.664 30.3802 110.324C22.6401 93.9827 6.36998 95.7559 -8.11382 103.105L-55.5595 121.212C-70.4119 126.878 -89.2823 109.493 -96.2983 93.1952L-106.674 69.0965C-106.97 68.4068 -106.998 67.6326 -106.751 66.96V66.9587Z" fill="#F8A488" />
    <path d="M143.852 116.009C143.852 116.009 115.52 56.7502 79.7743 76.7939C78.5204 77.4968 76.9653 77.2643 75.607 77.617C63.4407 79.521 50.7803 78.2962 30.5371 77.6382C20.975 74.1037 9.41121 75.721 0.614166 82.7924L-42.2109 113.565C-42.2109 113.565 -3.51479 166.098 0.966969 170.582L14.2325 158.471C15.9357 198.687 14.2325 235.752 14.2325 235.752L116.837 227.734L113.142 168.996L118.765 176.134C118.686 169.793 143.852 116.009 143.852 116.009Z" fill="#202124" />
    <path d="M15.2925 224.29C15.2978 224.289 16.8886 224.183 19.6818 223.997C20.02 223.975 20.2764 223.683 20.2539 223.344C20.2314 223.006 19.9381 222.75 19.5999 222.772C16.8067 222.959 15.2159 223.064 15.2119 223.064C14.8724 223.087 14.6173 223.38 14.6398 223.718C14.6623 224.057 14.9543 224.313 15.2925 224.29ZM24.0499 223.708C25.3831 223.619 26.8444 223.521 28.4154 223.417C28.7537 223.395 29.0087 223.103 28.9862 222.764C28.9637 222.426 28.6717 222.17 28.3335 222.192C26.7625 222.297 25.3011 222.393 23.968 222.482C23.6297 222.504 23.3734 222.797 23.3959 223.136C23.4184 223.474 23.7117 223.73 24.0499 223.708ZM32.7783 223.128C34.1749 223.035 35.6309 222.939 37.1398 222.838C37.478 222.817 37.7343 222.524 37.7119 222.186C37.6894 221.847 37.3974 221.591 37.0579 221.613C35.5503 221.714 34.0929 221.81 32.6963 221.903C32.3581 221.925 32.1018 222.217 32.1242 222.556C32.1467 222.894 32.44 223.15 32.7783 223.128ZM41.5 222.55C42.9217 222.456 44.3764 222.36 45.8602 222.262C46.1984 222.24 46.4548 221.948 46.4323 221.61C46.4098 221.27 46.1178 221.015 45.7796 221.036C44.2958 221.135 42.8411 221.23 41.4194 221.325C41.0811 221.348 40.8248 221.64 40.8473 221.978C40.8697 222.316 41.1617 222.573 41.5 222.55ZM50.2191 221.974C51.6553 221.879 53.11 221.784 54.578 221.686C54.9162 221.665 55.1725 221.372 55.1501 221.033C55.1276 220.695 54.8356 220.439 54.4974 220.461C53.0281 220.558 51.5734 220.654 50.1385 220.749C49.8002 220.77 49.5439 221.064 49.5663 221.402C49.5888 221.74 49.8808 221.997 50.2191 221.974ZM58.9368 221.399C60.3797 221.304 61.8304 221.209 63.2838 221.114C63.6221 221.092 63.8784 220.8 63.8573 220.461C63.8348 220.122 63.5415 219.865 63.2032 219.888C61.7498 219.984 60.2991 220.079 58.8562 220.175C58.518 220.197 58.2617 220.489 58.2841 220.827C58.3053 221.166 58.5986 221.422 58.9368 221.399ZM67.6467 220.827C69.1014 220.732 70.5561 220.637 72.0042 220.542C72.3425 220.519 72.5988 220.227 72.5777 219.889C72.5552 219.551 72.2632 219.295 71.925 219.316C70.4755 219.411 69.0208 219.506 67.5661 219.602C67.2279 219.624 66.9715 219.917 66.994 220.255C67.0151 220.593 67.3084 220.85 67.6467 220.827ZM76.3631 220.257C77.8284 220.161 79.2831 220.066 80.722 219.972C81.0602 219.95 81.3166 219.658 81.2954 219.32C81.273 218.981 80.981 218.725 80.6427 218.746C79.2039 218.84 77.7492 218.935 76.2839 219.032C75.9443 219.053 75.688 219.346 75.7104 219.684C75.7329 220.023 76.0249 220.279 76.3631 220.257ZM85.0809 219.688C86.5607 219.593 88.0154 219.498 89.4411 219.406C89.7793 219.384 90.0357 219.092 90.0145 218.754C89.9921 218.415 89.7001 218.158 89.3618 218.181C87.9362 218.273 86.4815 218.367 85.0016 218.464C84.6634 218.485 84.4071 218.778 84.4295 219.116C84.4507 219.454 84.7426 219.711 85.0809 219.688ZM93.8013 219.124C95.3023 219.028 96.7583 218.934 98.1628 218.844C98.5011 218.823 98.7587 218.531 98.7363 218.193C98.7151 217.854 98.4231 217.597 98.0849 217.619C96.6791 217.709 95.223 217.803 93.722 217.899C93.3838 217.92 93.1275 218.212 93.1499 218.551C93.1711 218.889 93.4631 219.147 93.8013 219.124ZM102.526 218.567C104.073 218.469 105.533 218.376 106.89 218.292C107.229 218.271 107.486 217.979 107.465 217.64C107.443 217.302 107.151 217.044 106.813 217.066C105.455 217.15 103.995 217.243 102.448 217.34C102.109 217.363 101.853 217.654 101.874 217.993C101.895 218.331 102.187 218.588 102.526 218.567ZM111.258 218.021C113.048 217.911 114.526 217.824 115.625 217.763C115.963 217.743 116.222 217.454 116.204 217.116C116.184 216.776 115.894 216.517 115.556 216.537C114.453 216.598 112.976 216.686 111.183 216.795C110.844 216.816 110.587 217.107 110.607 217.445C110.628 217.784 110.918 218.042 111.258 218.021Z" fill="white" />
    <path d="M-36.2822 108.479L-33.6397 111.945C-33.4336 112.214 -33.0491 112.266 -32.7795 112.061C-32.51 111.855 -32.4571 111.469 -32.6633 111.199L-35.3058 107.734C-35.5119 107.464 -35.8977 107.413 -36.1673 107.619C-36.4368 107.824 -36.4884 108.209 -36.2822 108.479ZM-30.9971 115.41L-28.3546 118.876C-28.1485 119.146 -27.7627 119.197 -27.4931 118.991C-27.2236 118.786 -27.172 118.4 -27.3782 118.131L-30.0207 114.665C-30.2255 114.396 -30.6113 114.344 -30.8809 114.549C-31.1504 114.755 -31.2019 115.141 -30.9971 115.41ZM-25.7107 122.342L-23.0682 125.807C-22.8621 126.077 -22.4776 126.128 -22.208 125.924C-21.9385 125.718 -21.8856 125.332 -22.0917 125.062L-24.7343 121.597C-24.9404 121.327 -25.3262 121.275 -25.5958 121.48C-25.8653 121.686 -25.9169 122.072 -25.7107 122.342ZM-20.4256 129.273L-17.7831 132.739C-17.577 133.008 -17.1912 133.06 -16.9216 132.854C-16.6521 132.649 -16.6005 132.263 -16.8053 131.994L-19.4492 128.528C-19.654 128.258 -20.0398 128.207 -20.3093 128.412C-20.5789 128.618 -20.6304 129.002 -20.4256 129.273ZM-15.1392 136.204L-12.4967 139.669C-12.2905 139.94 -11.9061 139.991 -11.6365 139.785C-11.367 139.58 -11.3141 139.195 -11.5202 138.925L-14.1628 135.459C-14.3689 135.19 -14.7534 135.138 -15.0242 135.343C-15.2938 135.549 -15.3453 135.934 -15.1392 136.204ZM-9.85412 143.135L-7.21157 146.6C-7.00545 146.87 -6.61963 146.923 -6.3501 146.717C-6.08055 146.51 -6.02901 146.126 -6.23381 145.856L-8.87768 142.391C-9.08248 142.121 -9.46829 142.068 -9.73783 142.274C-10.0074 142.481 -10.0589 142.865 -9.85412 143.135ZM-4.5677 150.066L-1.92515 153.532C-1.71903 153.801 -1.33454 153.854 -1.065 153.648C-0.795456 153.442 -0.742588 153.057 -0.948708 152.788L-3.59126 149.322C-3.79737 149.053 -4.18187 149 -4.45273 149.206C-4.72227 149.412 -4.77382 149.796 -4.5677 150.066ZM0.7174 156.997L3.35995 160.463C3.56607 160.733 3.95189 160.785 4.22142 160.579C4.49096 160.373 4.54251 159.989 4.33771 159.719L1.69384 156.253C1.48904 155.984 1.10323 155.931 0.833691 156.137C0.564152 156.343 0.512604 156.728 0.7174 156.997ZM6.00382 163.929L7.00536 165.242C7.21148 165.512 7.59597 165.565 7.86551 165.358C8.13505 165.152 8.18789 164.768 7.98177 164.498L6.98026 163.185C6.77414 162.914 6.38965 162.863 6.11879 163.069C5.84925 163.273 5.7977 163.659 6.00382 163.929Z" fill="white" />
    <path d="M136.373 105.44L134.84 109.52C134.721 109.837 134.881 110.191 135.198 110.31C135.517 110.43 135.871 110.269 135.99 109.952L137.522 105.872C137.643 105.555 137.481 105.2 137.164 105.082C136.847 104.961 136.493 105.123 136.373 105.44ZM133.306 113.6L131.774 117.679C131.655 117.996 131.814 118.35 132.132 118.47C132.45 118.589 132.804 118.429 132.923 118.111L134.456 114.032C134.576 113.713 134.415 113.359 134.098 113.24C133.781 113.122 133.426 113.281 133.306 113.6ZM130.24 121.759L128.707 125.839C128.588 126.156 128.748 126.51 129.065 126.629C129.383 126.749 129.737 126.588 129.856 126.271L131.389 122.191C131.509 121.874 131.348 121.52 131.031 121.399C130.714 121.28 130.36 121.442 130.24 121.759ZM127.173 129.918L125.64 133.998C125.52 134.315 125.681 134.669 125.998 134.789C126.315 134.908 126.669 134.747 126.79 134.43L128.322 130.35C128.443 130.032 128.281 129.678 127.964 129.559C127.647 129.441 127.293 129.6 127.173 129.918ZM124.106 138.078L122.573 142.158C122.453 142.475 122.614 142.829 122.932 142.948C123.249 143.067 123.603 142.907 123.723 142.59L125.256 138.51C125.376 138.193 125.215 137.839 124.898 137.718C124.579 137.599 124.226 137.761 124.106 138.078ZM121.039 146.237L119.507 150.317C119.387 150.634 119.548 150.988 119.865 151.108C120.182 151.227 120.536 151.066 120.656 150.749L122.189 146.669C122.309 146.352 122.148 145.997 121.831 145.878C121.513 145.76 121.158 145.919 121.039 146.237ZM117.973 154.397L116.44 158.477C116.32 158.794 116.481 159.148 116.798 159.267C117.115 159.386 117.469 159.226 117.59 158.909L119.122 154.829C119.241 154.512 119.081 154.158 118.764 154.037C118.446 153.918 118.092 154.08 117.973 154.397ZM114.906 162.556L113.373 166.636C113.253 166.953 113.414 167.307 113.732 167.427C114.049 167.546 114.403 167.385 114.523 167.068L116.056 162.988C116.175 162.671 116.015 162.316 115.698 162.198C115.379 162.079 115.025 162.239 114.906 162.556Z" fill="white" />
    <path d="M70.5691 53.3765L71.6538 85.2298C71.6538 85.2298 54.9054 103.461 37.5438 82.8224L45.2521 51.7487L70.5691 53.3765Z" fill="#F8A488" />
    <path d="M71.0475 25.3289L71.1334 55.3271C71.1334 55.3271 55.0521 85.9622 44.0988 53.4113L53.5736 22.689L71.0475 25.3289Z" fill="#0D1120" />
    <path d="M38.8701 35.1204L44.146 34.1982L44.7181 40.4306L39.4423 41.3529C37.8184 41.6369 36.373 40.4716 36.2157 38.7499C36.0572 37.0296 37.2463 35.4045 38.8701 35.1204Z" fill="#F8A488" />
    <path d="M38.8703 35.1211L39.021 35.9812L43.3626 35.2228L43.7736 39.7099L39.2918 40.4921L38.9562 40.5225C38.0075 40.5158 37.2029 39.8116 37.0853 38.6714L37.0747 38.4441C37.0668 37.2497 37.96 36.1503 39.021 35.9812L38.8703 35.1211L38.721 34.2596C36.7272 34.6243 35.3359 36.4318 35.328 38.4441C35.328 38.5723 35.3333 38.7018 35.3452 38.8312C35.5116 40.7854 37.0708 42.2758 38.9562 42.2705C39.1663 42.2705 39.379 42.252 39.593 42.215L45.6617 41.154L44.9297 33.1749L38.721 34.2596L38.8703 35.1211Z" fill="#F8A488" />
    <path d="M39.1728 36.711L41.3503 36.3304L41.5868 38.9042L39.408 39.2848C38.7381 39.4024 38.1409 38.9214 38.0762 38.2106C38.0114 37.4997 38.5016 36.8286 39.1728 36.711Z" fill="#E6757C" />
    <path d="M39.1728 36.7111L39.326 37.5897L40.5508 37.3756L40.6235 38.1684L39.2547 38.4076L39.2084 38.4115C39.1001 38.4049 38.997 38.3521 38.964 38.1288L38.9614 38.0838C38.9521 37.8394 39.1701 37.6003 39.326 37.5897L39.1728 36.7111L39.0195 35.8337C37.9136 36.0438 37.1882 37.0043 37.179 38.0838L37.1882 38.2926C37.2728 39.347 38.1461 40.2005 39.2084 40.1939L39.5612 40.1635L42.5486 39.6416L42.1496 35.2867L39.0195 35.8337L39.1728 36.7111Z" fill="#E6757C" />
    <path d="M79.5375 37.6174L74.2405 37.7944L74.4479 31.4814L79.7449 31.303C81.3754 31.2475 82.6517 32.6164 82.5936 34.3605C82.5368 36.1046 81.1679 37.5619 79.5375 37.6174Z" fill="#F8A488" />
    <path d="M79.5379 37.6171L79.5088 36.7424L75.1447 36.8904L75.2953 32.3267L79.7744 32.1761L79.8405 32.1748C80.3703 32.1774 80.8182 32.3875 81.1617 32.7508C81.5 33.1142 81.722 33.6321 81.722 34.2479L81.7206 34.3337V34.3324C81.7008 34.9812 81.4313 35.585 81.019 36.0236C80.6055 36.4636 80.0677 36.7252 79.5088 36.7424L79.5379 37.6171L79.567 38.4892C80.6385 38.4535 81.6004 37.9593 82.2941 37.2194C82.9877 36.4795 83.4317 35.4819 83.4674 34.3892V34.3866L83.47 34.2479C83.47 33.2067 83.0881 32.2514 82.4381 31.5564C81.7907 30.8601 80.8605 30.4254 79.8405 30.428L79.7163 30.4294L73.6014 30.6355L73.3372 38.6992L79.567 38.4892L79.5379 37.6171Z" fill="#F8A488" />
    <path d="M79.7571 33.3307L77.573 33.3651L77.4448 35.9719L79.6302 35.9375C80.3027 35.9283 80.8775 35.3351 80.9119 34.615C80.9476 33.8962 80.4309 33.3201 79.7571 33.3307Z" fill="#E6757C" />
    <path d="M79.7573 33.3305L79.7441 32.4387L76.7237 32.4863L76.5096 36.8782L79.645 36.8293C80.2422 36.82 80.7734 36.5531 81.1513 36.1633C81.5291 35.7722 81.7736 35.2438 81.8027 34.6585L81.8053 34.5461C81.8053 33.9886 81.6005 33.4627 81.2372 33.0742C80.8778 32.6858 80.3466 32.4374 79.7758 32.4387H79.7428L79.7573 33.3305L79.7732 34.2211H79.7758L79.9344 34.2911C79.9806 34.34 80.0229 34.4233 80.0229 34.5461V34.5726C80.0163 34.706 79.9568 34.8342 79.871 34.9227L79.6173 35.0469L78.3819 35.0667L78.4215 34.2423L79.7719 34.2211L79.7573 33.3305Z" fill="#E6757C" />
    <path d="M57.3487 58.7608L57.2337 58.7766C44.8586 58.0407 40.4681 49.2106 41.3348 38.6919L41.4009 37.8886C42.2676 27.3686 49.6734 11.1632 59.4799 11.3891L59.4627 11.2742C69.2679 11.5015 77.7769 28.1904 76.9101 38.7091L76.8441 39.5124C75.976 50.0324 71.2736 59.2814 57.3487 58.7608Z" fill="#F8A488" />
    <path d="M57.3487 58.7605L57.2324 57.8937L57.1175 57.9096L57.2338 58.7763L57.2866 57.903C51.7769 57.5673 48.0562 55.6251 45.6409 52.6984C43.2269 49.7665 42.1025 45.7551 42.1025 41.202C42.1025 40.404 42.1369 39.5901 42.2056 38.763L42.2717 37.9596C42.6839 32.8965 44.6989 26.3509 47.7735 21.1649C49.3088 18.5699 51.1057 16.3145 53.0599 14.7382C55.018 13.1567 57.0977 12.2608 59.2765 12.2608L59.4588 12.2622L60.4881 12.2859L60.3282 11.1523L59.4628 11.2739L59.4429 12.1472C61.5398 12.1948 63.6274 13.0867 65.6041 14.622C68.5664 16.9197 71.2195 20.6549 73.0996 24.776C74.9838 28.8944 76.0989 33.3986 76.0963 37.1801C76.0963 37.6795 76.0778 38.1658 76.0382 38.6361V38.6375L75.9721 39.4408H75.9734C75.5625 44.4576 74.2518 49.1046 71.5538 52.4355C68.8531 55.7598 64.7954 57.8937 58.4559 57.9069C58.1058 57.9069 57.7464 57.9003 57.3818 57.8871L57.3064 57.8844L57.2324 57.8937L57.3487 58.7605L57.317 59.6338C57.7028 59.6483 58.0834 59.655 58.4559 59.655C65.1865 59.6695 69.8995 57.2859 72.9147 53.5335C75.9325 49.7903 77.2815 44.8012 77.7148 39.5835L77.7201 39.5253L77.7809 38.7801C77.8232 38.2582 77.8443 37.7244 77.8443 37.1801C77.8364 31.6942 75.7501 25.1697 72.4615 19.8965C70.8138 17.2619 68.861 14.9417 66.6769 13.2426C64.4942 11.5461 62.0577 10.4599 59.4839 10.4005L58.4546 10.3767L58.6145 11.5104L59.4799 11.3888L59.4998 10.5142L59.2765 10.5115C56.6022 10.5115 54.1301 11.6227 51.9606 13.3786C48.7023 16.0185 46.0413 20.1211 44.0765 24.558C42.1158 28.9988 40.8645 33.7765 40.5289 37.8156L40.4628 38.6203H40.4642C40.3915 39.491 40.3545 40.3538 40.3545 41.202C40.3545 46.0313 41.545 50.4668 44.2906 53.8083C47.0335 57.1525 51.3145 59.3075 57.1823 59.6484L57.2668 59.6536L57.4663 59.6259L57.3487 58.7605L57.317 59.6338L57.3487 58.7605Z" fill="#F8A488" />
    <path d="M58.9527 52.003L58.9381 52.0017C54.6162 51.9501 51.3395 48.9033 51.6156 45.1971L51.6539 44.6898L67.315 44.88L67.278 45.3874C67.0005 49.0935 63.2732 52.0545 58.9527 52.003Z" fill="white" />
    <path d="M55.883 35.9011C55.8077 36.6687 55.2924 37.2449 54.7295 37.1907C54.1693 37.1352 53.7742 36.4693 53.8495 35.7016C53.9249 34.9353 54.4415 34.3579 55.0017 34.4134C55.5645 34.4689 55.9596 35.1347 55.883 35.9011Z" fill="#0D1120" />
    <path d="M65.1231 35.8557C65.0425 36.6247 64.5219 37.2007 63.959 37.1413C63.3975 37.0818 63.0103 36.4093 63.0909 35.6403C63.1729 34.8713 63.6934 34.2966 64.255 34.356C64.8152 34.4155 65.205 35.0867 65.1231 35.8557Z" fill="#0D1120" />
    <path d="M61.1351 42.1595L57.5082 41.9824C57.0616 41.9613 56.792 41.3813 57.0008 40.8924L58.8665 36.5348C59.103 35.9799 59.7504 35.9839 59.9658 36.5388L61.7283 41.0734C61.9265 41.5861 61.6015 42.182 61.1351 42.1595Z" fill="#D66068" />
    <path d="M50.4831 31.4152C49.3944 32.1789 51.0671 28.7686 52.5535 28.3709C54.0413 27.9746 55.5238 28.6934 55.8673 29.9776C55.8673 29.9776 53.0966 29.5812 50.4831 31.4152Z" fill="#0D1120" />
    <path d="M67.4825 30.3852C68.591 31.1198 66.8284 27.7546 65.3314 27.3965C63.8344 27.0398 62.3705 27.7982 62.0613 29.0904C62.0613 29.0904 64.8214 28.6213 67.4825 30.3852Z" fill="#0D1120" />
    <path d="M68.4707 15.1414L68.6993 15.2735L68.6913 15.5352C68.6398 15.3911 68.5711 15.255 68.4707 15.1414ZM75.9253 17.8804C77.3113 17.4378 78.223 16.0584 78.0156 14.5693C77.8068 13.0683 76.537 11.9862 75.0691 11.9545C75.2329 11.4365 75.2898 10.9001 75.1669 10.3729C74.9039 9.23792 73.5444 8.34209 72.4887 8.88117C72.2971 4.76672 68.7415 1.07244 64.5703 0.653595C60.399 0.234753 56.1234 3.14423 55.0479 7.13184C54.0873 6.22676 53.1267 5.32301 52.1662 4.41793C51.8702 4.13915 51.557 3.85111 51.1593 3.75465C50.212 3.52607 49.369 4.51573 49.225 5.46573C49.081 6.41308 49.3532 7.38157 49.2527 8.33421C48.2433 7.70264 47.469 6.76586 46.4847 6.09598C45.5003 5.42741 44.1275 5.06401 43.1194 5.71011C42.0835 6.37339 41.8906 7.85986 42.3557 8.98162C42.6424 9.67 43.1207 10.2448 43.6571 10.7759C43.1537 10.5526 42.5882 10.4535 42.0029 10.5341C40.3368 10.7653 39.1741 12.3033 39.4066 13.9694C39.5453 14.9723 40.1637 15.7875 40.9948 16.2315C40.7556 16.612 40.5297 17.0004 40.3315 17.4034C39.1014 19.9217 38.676 22.7823 38.7856 25.5345C38.8358 26.8426 40.4253 34.4611 41.6184 34.7016C42.2672 34.8337 47.8522 21.2734 49.55 17.9848C51.3179 17.3797 53.2628 16.1033 53.3751 14.9921C53.7768 16.4138 54.3608 18.0337 55.7812 18.5133C56.9373 18.9044 58.2533 18.3283 59.0685 17.4272C59.8837 16.5261 60.3065 15.3555 60.7095 14.2192C61.6622 15.7228 63.1076 16.9185 64.7804 17.5805C65.811 17.9888 67.053 18.1777 67.9897 17.5831C68.2963 17.3876 68.5209 17.085 68.6544 16.748L68.62 17.8606C69.274 19.203 76.142 30.4801 77.2307 30.6346C78.0658 30.7522 76.8158 20.6194 76.2226 18.7352C76.1288 18.4393 76.0284 18.1539 75.9253 17.8804Z" fill="#7E3A27" />
    <path d="M68.4712 15.1418L68.1633 15.673L68.3919 15.8051L68.6998 15.2739L68.0867 15.2554L68.0788 15.517L68.6918 15.5355L69.2692 15.3241C69.2018 15.1405 69.1041 14.9291 68.9297 14.7322L68.4712 15.1418L68.1633 15.673L68.4712 15.1418L68.0127 15.5501L68.1158 15.7456L69.2111 18.7489L69.3247 14.9277L68.779 14.6107L65.4534 12.6802L68.0127 15.5501L68.4712 15.1418ZM75.9258 17.8808L76.1134 18.4648C77.6197 17.9839 78.6582 16.5846 78.6595 14.9912C78.6595 14.8234 78.6476 14.6556 78.6239 14.4851L78.5961 14.283L78.6239 14.4851C78.3728 12.6802 76.8454 11.3788 75.0828 11.3405L75.0696 11.9549L75.655 12.1398C75.7739 11.7646 75.8479 11.3682 75.8479 10.9586C75.8479 10.7195 75.8214 10.4764 75.7659 10.2346C75.6246 9.63076 75.2691 9.11416 74.8146 8.73628C74.3575 8.35971 73.7853 8.10867 73.1657 8.10603C72.8472 8.10603 72.5169 8.17737 72.2091 8.3346L72.4892 8.88157L73.1023 8.85253C72.8776 4.4038 69.1226 0.510021 64.6329 0.0436096C64.3435 0.0132217 64.0542 -3.8147e-06 63.7661 -3.8147e-06C59.5764 0.0132103 55.5597 2.94115 54.4551 6.97236L55.0484 7.13223L55.4699 6.6843C54.5093 5.78055 53.5474 4.87547 52.5881 3.9704H52.5868C52.2869 3.69558 51.9077 3.31245 51.3039 3.15918C51.1638 3.12483 51.0211 3.10893 50.8824 3.10893C50.2389 3.11157 49.7078 3.44585 49.3339 3.86337C48.9573 4.28882 48.7049 4.81603 48.6177 5.37361L48.619 5.37232C48.5807 5.61808 48.5675 5.85722 48.5675 6.08844C48.5702 6.74511 48.664 7.34097 48.6613 7.86816C48.6613 8.00689 48.656 8.1417 48.6428 8.27119L49.2532 8.3346L49.5796 7.81532C48.6772 7.25906 47.9069 6.3302 46.83 5.58896C46.1218 5.11066 45.2498 4.76184 44.3394 4.75787C43.8136 4.75787 43.2705 4.8834 42.7896 5.19258C41.8792 5.77922 41.5013 6.80189 41.5027 7.76642C41.504 8.26454 41.6004 8.76001 41.7894 9.21717C42.1237 10.0192 42.6627 10.6547 43.2243 11.2123L43.6576 10.7763L43.9074 10.2161C43.4502 10.0113 42.9415 9.89239 42.4104 9.89239C42.2478 9.89239 42.084 9.90425 41.9189 9.92671C40.0876 10.1817 38.7637 11.7461 38.7637 13.5457C38.7637 13.7135 38.7742 13.884 38.798 14.0544V14.0531C38.9658 15.262 39.7137 16.2437 40.7073 16.7722L40.9953 16.2319L40.476 15.9042C40.229 16.2966 39.9911 16.7036 39.781 17.1343C38.6223 19.5086 38.1559 22.1458 38.1545 24.7144C38.1545 24.9972 38.1611 25.2786 38.1717 25.56V25.5587C38.1902 25.967 38.3025 26.6805 38.4796 27.6028C38.7451 28.9756 39.1587 30.7474 39.6264 32.2259C39.8603 32.9671 40.1061 33.6317 40.3703 34.1562C40.5038 34.4178 40.6385 34.6464 40.8024 34.8433C40.9662 35.0336 41.1591 35.2278 41.4974 35.3044L41.6282 35.3176C41.9043 35.3057 42.014 35.1987 42.0986 35.138C42.2518 35.0058 42.3351 34.883 42.446 34.7218C42.8332 34.1364 43.3775 33.0438 44.0435 31.63C45.0357 29.516 46.2645 26.7254 47.3902 24.1846C48.5133 21.6464 49.5386 19.3474 50.0962 18.2666L49.5505 17.9852L49.75 18.5665C50.6921 18.2415 51.6646 17.7513 52.4494 17.1726C52.8418 16.8819 53.188 16.5687 53.4602 16.2252C53.7311 15.8817 53.9385 15.4999 53.9861 15.0546L53.3756 14.9925L52.785 15.159C52.9911 15.887 53.2461 16.6916 53.6663 17.4144C54.0812 18.1331 54.6929 18.7951 55.5848 19.0963C55.9032 19.2034 56.2309 19.2523 56.552 19.2523C57.712 19.2443 58.7823 18.6524 59.5248 17.8385C60.4458 16.8145 60.8831 15.5606 61.2887 14.4243L60.71 14.2196L60.1921 14.5472C61.2161 16.1632 62.7606 17.4395 64.5549 18.153C65.1706 18.3961 65.863 18.5744 66.5738 18.5758C67.1631 18.5771 67.7749 18.4476 68.3192 18.1015L68.3655 18.0724L68.3192 18.1015C68.7553 17.8227 69.0525 17.4117 69.2256 16.9717L68.6549 16.7484L68.0404 16.7286L68.0061 17.8425L68.0021 17.9944L68.0682 18.1305C68.2584 18.5176 68.8041 19.4597 69.5626 20.7189C70.6975 22.5991 72.2817 25.1332 73.6915 27.2222C74.3971 28.2686 75.0591 29.2014 75.6074 29.8951C75.8822 30.2426 76.1267 30.5293 76.35 30.7513L76.6842 31.0407C76.8032 31.1213 76.9207 31.2045 77.1454 31.2428L77.2458 31.2494C77.4202 31.2521 77.5972 31.1754 77.7016 31.0843C77.8866 30.9217 77.9355 30.7751 77.9844 30.6469C78.1033 30.2651 78.1191 29.829 78.1244 29.2345C78.1231 27.7679 77.9117 25.4966 77.6448 23.3878C77.5113 22.3335 77.3633 21.324 77.2207 20.481C77.0753 19.6354 76.9392 18.9722 76.8084 18.5507C76.7107 18.2428 76.6063 17.9468 76.5019 17.6654L75.9258 17.8808L76.1134 18.4648L75.9258 17.8808L75.3511 18.0948C75.4515 18.363 75.5479 18.6379 75.6364 18.9193C75.7316 19.2166 75.8716 19.872 76.0091 20.6885C76.4305 23.1448 76.8983 27.1918 76.8956 29.2345C76.8969 29.6441 76.8758 29.9731 76.8441 30.1501L76.8216 30.2466L76.8177 30.2625L77.1242 30.3985L76.8969 30.1581L76.8177 30.2625L77.1242 30.3985L76.8969 30.1581L77.2458 30.528V30.022C77.1004 30.018 76.9551 30.096 76.8969 30.1581L77.2458 30.528V30.022V30.5347L77.3171 30.0272L77.2458 30.022V30.5347L77.3171 30.0272L77.2788 30.3008L77.4188 30.0563L77.3171 30.0272L77.2788 30.3008L77.4188 30.0563C77.3898 30.0497 77.1295 29.8172 76.8441 29.4683C75.8003 28.233 73.9941 25.5138 72.4073 22.9915C71.6119 21.7283 70.8666 20.5101 70.2866 19.5377C69.7092 18.5718 69.2864 17.8293 69.1715 17.5915L68.6205 17.861L69.2336 17.8808L69.2679 16.767L69.3763 13.2207L68.0827 16.5239C67.9916 16.7577 67.837 16.9533 67.6599 17.0656V17.0642C67.3547 17.2598 66.99 17.347 66.5738 17.3483C66.0757 17.3496 65.5168 17.2135 65.0081 17.01C63.4569 16.397 62.1079 15.2818 61.2293 13.8905L60.5541 12.8229L60.1313 14.0134C59.7323 15.1511 59.3227 16.2371 58.6145 17.0153C58.0807 17.6126 57.2615 18.0314 56.552 18.0248C56.3538 18.0248 56.1622 17.9944 55.9772 17.9323H55.9785C55.45 17.7539 55.0602 17.3642 54.7273 16.7973C54.3996 16.2358 54.1618 15.5197 53.9662 14.826L53.0889 11.7223L52.7652 14.9304C52.756 15.0414 52.6793 15.2356 52.497 15.4628C51.9619 16.1605 50.5877 16.9916 49.351 17.4051L49.1185 17.4844L49.0048 17.7037C48.1381 19.3857 46.3385 23.5504 44.6552 27.3213C43.8149 29.2041 43.0062 30.9825 42.3694 32.2813C42.0523 32.9288 41.7762 33.4586 41.57 33.8075C41.4683 33.9792 41.3811 34.1087 41.3322 34.1694L41.3084 34.1985L41.3216 34.2104L41.3097 34.1972L41.3084 34.1985L41.3216 34.2104L41.3097 34.1972L41.6282 34.5526V34.0889C41.3666 34.1074 41.3256 34.1959 41.3097 34.1972L41.6282 34.5526V34.0889V34.6543L41.7405 34.1007L41.6282 34.0889V34.6543L41.7405 34.1007L41.6942 34.3254L41.8079 34.1245L41.7405 34.1007L41.6942 34.3254L41.8079 34.1245L41.7867 34.1629L41.8131 34.1272L41.8079 34.1245L41.7867 34.1629L41.8131 34.1272C41.7973 34.1232 41.6665 33.9792 41.5396 33.7427C41.0706 32.901 40.5157 31.0512 40.11 29.3309C39.9039 28.4681 39.7295 27.6291 39.6053 26.9434C39.4798 26.263 39.4058 25.7133 39.3992 25.5112C39.3886 25.2469 39.3833 24.98 39.3833 24.7144C39.3833 22.2938 39.8259 19.8389 40.8843 17.6733C41.0679 17.2968 41.2833 16.9268 41.5159 16.5582L41.866 15.9993L41.2846 15.6888C40.6161 15.332 40.1259 14.6846 40.0149 13.884L39.9911 13.5457C39.9911 12.3539 40.8711 11.3101 42.0867 11.1436L42.4104 11.1212C42.7579 11.1212 43.0948 11.1978 43.4066 11.3379L46.4733 12.708L44.0897 10.3416C43.5797 9.83556 43.1609 9.32026 42.923 8.7455C42.7988 8.4469 42.7301 8.10202 42.7314 7.76642C42.7327 7.09917 42.9878 6.51915 43.4515 6.22715C43.7092 6.06331 44.0025 5.9867 44.3394 5.9867C44.9168 5.98273 45.6012 6.23509 46.1403 6.60372H46.139C47.0322 7.20094 47.8104 8.14565 48.9269 8.85518L49.7606 9.3784L49.8637 8.39931C49.8822 8.2183 49.8901 8.04125 49.8901 7.86816C49.8875 7.21148 49.7937 6.61563 49.7963 6.08844C49.7963 5.90346 49.8068 5.72641 49.8319 5.55728C49.8756 5.26 50.0368 4.91645 50.2495 4.68258C50.4635 4.44343 50.6961 4.33375 50.8824 4.3364L51.0145 4.35227C51.2061 4.3919 51.4545 4.58479 51.7465 4.86491L51.7452 4.86362C52.7058 5.77001 53.6676 6.67373 54.6282 7.57881L55.3747 8.28177L55.6416 7.2921C56.5507 3.85943 60.1511 1.21425 63.7661 1.22747C64.0145 1.22747 64.2616 1.24065 64.51 1.26443C66.4325 1.45734 68.2387 2.41265 69.5797 3.8066C70.9235 5.20186 71.7889 7.02256 71.8761 8.91066L71.9197 9.86201L72.768 9.42859C72.8948 9.36385 73.0243 9.33479 73.1657 9.33479C73.4365 9.33214 73.7616 9.45765 74.0311 9.68227C74.302 9.90424 74.5028 10.2135 74.5689 10.5121C74.6032 10.6587 74.6191 10.8067 74.6191 10.9586C74.6191 11.2189 74.5715 11.4924 74.4843 11.7699L74.2372 12.5507L75.0564 12.5693C76.2284 12.5957 77.2431 13.4585 77.4083 14.6543L77.4307 14.9912C77.4321 16.0416 76.7397 16.977 75.7395 17.2955L75.1251 17.491L75.3511 18.0948L75.9258 17.8808Z" fill="#7E3A27" />
    <path d="M320.188 46.4411C320.188 46.4411 298.886 54.0464 292.173 77.684C285.461 101.32 276.11 122.759 258.813 124.036C241.516 125.312 223.34 137.521 222.301 141.284C221.263 145.048 278.056 226.633 325.399 206.517L331.487 163.518L332.299 196.967C332.299 196.967 333.793 203.231 350.527 192.232C367.261 181.232 389.527 27.0448 320.188 46.4411Z" fill="#7E3A27" />
    <path d="M332.747 45.1731C321.563 42.6244 309.803 45.2511 300.976 52.6938C290.325 61.6745 287.931 75.5373 285.779 88.5624C284.509 96.2417 283.271 104.18 279.814 111.239C275.341 120.376 267.163 123.562 257.443 123.87C242.684 124.335 229.171 122.708 218.766 135.176C217.508 136.683 219.669 138.866 220.936 137.347C232.519 123.469 248.013 128.814 263.55 126.405C275.379 124.57 281.798 116.706 285.265 105.682C289.349 92.6993 288.744 78.3239 294.704 65.9092C301.409 51.9459 316.901 44.708 331.932 48.1341C333.856 48.5714 334.676 45.6118 332.747 45.1731Z" fill="#7E3A27" />
    <path d="M338.612 80.8115C338.612 80.8115 342.403 113.525 343.028 116.018C343.028 116.018 333.102 127.158 318.703 119.135C318.703 119.135 320.279 109.429 322.819 89.4064L338.612 80.8115Z" fill="#FAB484" />
    <path d="M338.612 80.8113L337.704 80.9157C337.704 80.917 338.653 89.0957 339.678 97.5888C340.192 101.835 340.725 106.16 341.169 109.582C341.391 111.294 341.59 112.778 341.754 113.92C341.922 115.069 342.042 115.833 342.141 116.24L343.028 116.018L342.346 115.41L342.338 115.419C342.218 115.552 340.87 116.996 338.571 118.39C336.271 119.785 333.035 121.126 329.097 121.126C326.168 121.125 322.836 120.39 319.147 118.337L318.703 119.135L319.604 119.282C319.605 119.27 321.184 109.553 323.724 89.5211L322.819 89.4062L323.255 90.2082L339.048 81.6133L338.612 80.8113L337.704 80.9157L338.612 80.8113L338.175 80.008L322.381 88.6042C322.125 88.7442 321.949 89.0006 321.912 89.2912C320.644 99.2973 319.615 106.724 318.904 111.649C318.548 114.11 318.272 115.947 318.086 117.166C317.898 118.387 317.801 118.987 317.801 118.988C317.74 119.366 317.923 119.747 318.258 119.933C322.194 122.126 325.859 122.955 329.097 122.952C333.598 122.952 337.246 121.372 339.758 119.803C342.272 118.232 343.668 116.669 343.709 116.626C343.91 116.4 343.987 116.089 343.913 115.796C343.856 115.579 343.721 114.775 343.561 113.659C342.993 109.714 341.981 101.467 341.113 94.2169C340.678 90.5914 340.281 87.2129 339.99 84.7421C339.701 82.27 339.52 80.7095 339.518 80.7056C339.484 80.4057 339.3 80.1388 339.032 80C338.764 79.86 338.44 79.864 338.175 80.008L338.612 80.8113Z" fill="#FAB484" />
    <path d="M324.863 59.843C318.561 61.2277 316.336 70.8598 318.637 81.3309L318.813 82.1302C321.115 92.6 329.764 102.606 335.022 101.301L335.239 101.19C339.334 99.83 342.069 88.3653 339.767 77.8956L340.296 76.2836C337.994 65.8138 331.164 58.457 324.863 59.843Z" fill="#0D1120" />
    <path d="M312.055 78.1365L317.324 76.3475L315.33 70.4731L310.061 72.2608C308.438 72.8118 307.57 74.573 308.121 76.1956C308.671 77.8181 310.433 78.6861 312.055 78.1365Z" fill="#FAB484" />
    <path d="M312.055 78.1362L312.34 78.9765L318.45 76.9034L315.885 69.3457L309.774 71.4188C308.113 71.9843 307.066 73.5342 307.067 75.1976C307.067 75.6231 307.136 76.0578 307.28 76.4819V76.4806C307.844 78.1428 309.394 79.1905 311.057 79.1892C311.484 79.1892 311.917 79.1205 312.34 78.9765L312.055 78.1362L311.769 77.2945C311.532 77.3751 311.292 77.4121 311.057 77.4121C310.136 77.4121 309.274 76.8321 308.963 75.9098H308.962C308.881 75.672 308.844 75.4328 308.844 75.1976C308.844 74.2767 309.424 73.4139 310.346 73.1021L314.774 71.5985L316.197 75.7909L311.769 77.2945L312.055 78.1362Z" fill="#FAB484" />
    <path d="M348.155 63.5368L342.804 65.0602L344.501 71.0271L349.853 69.505C351.501 69.036 352.456 67.3196 351.987 65.672C351.518 64.0244 349.803 63.0691 348.155 63.5368Z" fill="#FAB484" />
    <path d="M348.156 63.5372L347.912 62.6837L341.707 64.4489L343.89 72.1255L350.097 70.359C351.85 69.8582 352.996 68.2634 352.996 66.5233C352.996 66.1613 352.946 65.7926 352.843 65.4293C352.342 63.6746 350.746 62.5291 349.006 62.5304C348.644 62.5304 348.275 62.5793 347.913 62.6823L348.156 63.5372L348.399 64.3921C348.603 64.3339 348.805 64.3075 349.006 64.3075C349.967 64.3075 350.858 64.9417 351.133 65.9155C351.191 66.1203 351.219 66.3238 351.219 66.5233C351.219 67.4852 350.583 68.3757 349.611 68.6505L345.113 69.9295L343.902 65.6724L348.399 64.3921L348.156 63.5372Z" fill="#FAB484" />
    <path d="M348.819 65.0646L346.61 65.6922L347.311 68.1564L349.52 67.5274C350.199 67.3345 350.595 66.6263 350.402 65.9459C350.207 65.2654 349.499 64.8704 348.819 65.0646Z" fill="#F27673" />
    <path d="M348.82 65.0651L348.578 64.2142L346.367 64.8419C346.14 64.9066 345.953 65.0559 345.836 65.2633C345.721 65.4695 345.694 65.7086 345.76 65.9359L346.461 68.3987C346.595 68.8691 347.084 69.1413 347.554 69.0078L349.763 68.3789C350.714 68.1067 351.337 67.2426 351.337 66.2966C351.337 66.101 351.309 65.9002 351.254 65.7047C350.981 64.7533 350.117 64.131 349.173 64.131C348.974 64.131 348.773 64.1574 348.577 64.2142H348.578L348.82 65.0651L349.064 65.916L349.173 65.9002C349.342 65.9002 349.503 66.0138 349.552 66.1882H349.55L349.566 66.2966C349.566 66.467 349.453 66.6295 349.278 66.6771L347.92 67.0629L347.703 66.3019L349.063 65.916H349.064L348.82 65.0651Z" fill="#F27673" />
    <path d="M310.544 73.9356L312.706 73.1601L313.571 75.5714L311.408 76.347C310.742 76.5848 310.009 76.2386 309.771 75.5727C309.532 74.9081 309.878 74.1748 310.544 73.9356Z" fill="#F27673" />
    <path d="M310.544 73.9358L310.842 74.7682L312.172 74.2926L312.439 75.0377L311.109 75.5134L310.976 75.5372C310.815 75.5359 310.66 75.4368 310.603 75.2743L310.58 75.1408C310.581 74.9796 310.68 74.825 310.842 74.7682L310.544 73.9358L310.245 73.1021C309.361 73.4205 308.809 74.2516 308.81 75.1408C308.81 75.3839 308.851 75.6323 308.937 75.8715C309.256 76.7554 310.087 77.3077 310.976 77.3064C311.219 77.3077 311.467 77.2654 311.707 77.1795L313.869 76.404C314.091 76.3247 314.27 76.1635 314.37 75.9494C314.472 75.7354 314.484 75.4962 314.403 75.2729L313.539 72.8616C313.374 72.4018 312.868 72.1627 312.408 72.3278L310.245 73.1021L310.544 73.9358Z" fill="#F27673" />
    <path d="M324.926 53.5076H324.925C314.867 55.8832 310.177 65.5866 312.485 75.3614L312.661 76.1093C314.969 85.8854 324.99 92.7388 333.402 90.6129L333.469 90.5785C340.061 88.59 349.573 77.449 347.265 67.6716L347.088 66.9264C344.781 57.1503 334.982 51.1345 324.926 53.5076Z" fill="#FAB484" />
    <path d="M324.926 53.5079V52.6319H324.822L324.723 52.6557C320.348 53.6863 316.899 56.0685 314.573 59.233C312.245 62.3961 311.03 66.3295 311.032 70.4691C311.032 72.1444 311.23 73.8542 311.633 75.5639V75.5626L311.809 76.3105C312.87 80.7988 315.47 84.6768 318.796 87.4422C322.121 90.2063 326.185 91.875 330.229 91.8777C331.367 91.8777 332.504 91.7443 333.616 91.4628L333.711 91.439L333.867 91.3598L333.47 90.5789L333.723 91.4179C336.947 90.4309 340.553 87.6086 343.45 83.8827C346.331 80.1527 348.487 75.4965 348.494 70.769C348.494 69.6671 348.375 68.5625 348.117 67.4711L347.94 66.7246C345.879 57.987 338.101 52.1113 329.335 52.1139C327.818 52.1139 326.273 52.2897 324.724 52.6557L324.926 53.5079V52.6319V53.5079L325.127 54.3601C326.545 54.0258 327.953 53.8659 329.335 53.8659C337.318 53.8699 344.364 59.1973 346.236 67.1276L346.413 67.8741C346.636 68.8254 346.742 69.7926 346.742 70.769C346.748 74.9482 344.781 79.3071 342.065 82.8098C339.364 86.3165 335.895 88.9471 333.217 89.7399L333.142 89.7636L333.004 89.8337L333.402 90.6132L333.187 89.765C332.221 90.0081 331.231 90.1257 330.229 90.1257C326.676 90.1296 322.968 88.6353 319.915 86.0945C316.861 83.5563 314.476 79.9889 313.513 75.9088L313.503 75.8612L313.339 75.1622L313.327 75.112L313.339 75.1609C312.965 73.5807 312.782 72.007 312.782 70.4691C312.784 66.6691 313.895 63.1096 315.984 60.2715C318.075 57.4347 321.136 55.3061 325.126 54.3601L324.925 53.5079V54.3839H324.926H325.028L325.127 54.3601L324.926 53.5079Z" fill="#FAB484" />
    <path d="M331.875 83.6057L332.615 83.4102C335.222 82.7165 336.776 80.0409 336.083 77.4314L325.897 80.136C326.59 82.7456 329.267 84.2981 331.875 83.6057Z" fill="white" />
    <path d="M332.418 71.8256C332.613 72.5641 333.226 73.0438 333.787 72.8958C334.347 72.7478 334.644 72.0291 334.45 71.2905C334.253 70.5506 333.641 70.0709 333.08 70.2202C332.521 70.3682 332.223 71.0856 332.418 71.8256Z" fill="#0D1120" />
    <path d="M324.5 73.9042C324.64 74.656 325.213 75.1805 325.784 75.0748C326.355 74.9691 326.703 74.2755 326.566 73.5237C326.426 72.7719 325.853 72.2473 325.282 72.353C324.711 72.4587 324.362 73.1524 324.5 73.9042Z" fill="#0D1120" />
    <path d="M329.132 77.2226L331.826 76.5963C332.158 76.5197 332.279 76.0374 332.053 75.6886L330.042 72.5849C329.785 72.1898 329.3 72.2797 329.217 72.7369L328.533 76.4668C328.457 76.8883 328.784 77.3019 329.132 77.2226Z" fill="#F27673" />
    <path d="M321.295 71.4633C320.67 72.1094 321.349 69.632 322.284 69.1801C323.221 68.7282 324.298 69.0176 324.689 69.8275C324.689 69.8275 322.797 69.9147 321.295 71.4633Z" fill="#0D1120" />
    <path d="M335.921 67.518C336.781 67.7744 334.978 65.9457 333.94 66.0105C332.901 66.0739 332.105 66.8534 332.16 67.7493C332.16 67.7493 333.851 66.9023 335.921 67.518Z" fill="#0D1120" />
    <path d="M309.879 68.8857L316.836 66.2485L316.799 60.2354L319.491 65.0237C319.491 65.0237 334.371 62.1711 340.318 60.2248L338.211 57.0987C338.211 57.0987 342.123 62.8925 344.81 63.3893C344.81 63.3893 344.402 46.4426 324.477 49.097C310.568 50.9494 307.284 65.2086 309.879 68.8857Z" fill="#7E3A27" />
    <path d="M304.574 197.567C297.431 213.103 293.986 217.306 289.523 236.138C284.346 257.977 285.443 287.389 282.423 309.346C279.335 331.811 279.69 329.92 274.478 354.923C267.994 386.02 246.952 419.534 230.77 449.377C231.974 451.227 257.254 466.021 265.078 470.955C289.657 439.916 308.466 404.776 318.044 365.535C325.31 335.767 327.304 304.72 328.98 276.082C329.18 272.646 334.1 272.572 334.395 276.002C336.847 304.675 326.741 421.662 329.481 470.425C333.662 470.425 365.596 471.57 371.614 471.57C375.603 423.736 375.298 402.985 377.634 351.048C379.952 299.501 385.626 249.473 353.859 197.543C334.643 198.014 320.397 197.882 304.574 197.567Z" fill="#F03F50" />
    <path d="M347.274 198.215C347.309 198.276 347.377 198.51 347.434 198.834C347.658 200.068 347.848 202.662 348.318 205.821C349.028 210.565 350.368 216.626 353.488 221.602C356.6 226.579 361.564 230.462 369.336 230.686L369.361 229.823C364.035 229.66 360.165 227.762 357.274 224.961C352.939 220.759 350.841 214.463 349.744 208.983C349.193 206.244 348.889 203.712 348.668 201.753C348.557 200.771 348.468 199.934 348.376 199.278C348.279 198.615 348.206 198.161 348.043 197.824L347.274 198.215Z" fill="white" />
    <path d="M313.597 197.824C313.485 198.053 313.424 198.321 313.358 198.681C313.12 200.011 312.937 202.56 312.469 205.694C311.771 210.386 310.438 216.345 307.422 221.144C304.397 225.942 299.763 229.589 292.28 229.823L292.305 230.686C297.826 230.523 301.944 228.52 304.969 225.579C309.509 221.166 311.625 214.709 312.744 209.153C313.303 206.373 313.608 203.815 313.83 201.849C313.941 200.866 314.031 200.031 314.119 199.397C314.201 198.769 314.308 198.313 314.366 198.215L313.597 197.824Z" fill="white" />
    <path d="M273.886 460.322L236.885 437.237L236.427 437.969L273.428 461.054" fill="white" />
    <path d="M323.809 338.726C323.641 338.627 323.522 338.628 323.4 338.624C323.018 338.629 322.512 338.767 321.806 339.027C319.368 339.944 314.832 342.469 310.871 347.042C306.912 351.612 303.551 358.242 303.553 367.278C303.552 373.759 305.278 381.47 309.711 390.547L310.486 390.168C306.098 381.183 304.416 373.605 304.416 367.278C304.419 357.201 308.675 350.27 313.2 345.822C315.462 343.601 317.792 342.008 319.68 340.973C320.623 340.457 321.455 340.08 322.109 339.834C322.754 339.588 323.252 339.481 323.4 339.487H323.423L323.468 339.255L323.341 339.452L323.423 339.487L323.468 339.255L323.341 339.452L323.809 338.726Z" fill="white" />
    <path d="M377.676 339.278C377.654 339.292 373.521 341.62 369.371 345.92C365.226 350.217 361.045 356.509 361.043 364.439C361.041 371.914 364.773 380.755 375.554 390.613L376.137 389.976C365.466 380.211 361.908 371.611 361.906 364.439C361.904 356.829 365.93 350.73 369.992 346.519C372.021 344.416 374.053 342.789 375.575 341.692C376.338 341.143 376.971 340.727 377.413 340.446C377.634 340.308 377.807 340.202 377.925 340.133L378.1 340.03L377.676 339.278Z" fill="white" />
    <path d="M296.213 215.229C297.073 213.024 298.016 210.772 299.048 208.484C299.143 208.505 299.233 208.525 299.328 208.546C298.201 210.87 297.177 213.021 296.213 215.229Z" fill="#D8DCE0" />
    <path d="M299.328 208.545C299.233 208.524 299.143 208.504 299.048 208.483C299.891 206.616 300.795 204.724 301.762 202.818L302.097 202.808L304.554 197.609C302.557 201.95 300.85 205.406 299.328 208.545Z" fill="#6C3223" />
    <path d="M287.268 252.884C287.268 252.884 287.992 236.279 296.213 215.229C297.177 213.021 298.201 210.87 299.328 208.546C300.85 205.406 302.557 201.95 304.554 197.609L313.562 197.903C313.472 198.116 313.418 198.361 313.359 198.681C313.121 200.012 312.937 202.56 312.47 205.694C311.772 210.386 310.439 216.345 307.422 221.144C304.398 225.943 299.764 229.59 292.28 229.823L292.306 230.686C297.827 230.524 301.944 228.521 304.97 225.58C309.51 221.166 311.625 214.709 312.744 209.153C313.303 206.373 313.609 203.816 313.83 201.849C313.941 200.866 314.031 200.031 314.12 199.397C314.202 198.77 314.309 198.314 314.367 198.216L313.766 197.909L347.464 199.009C347.592 199.788 347.712 201.004 347.886 202.506L287.268 252.884ZM348.679 201.847C348.676 201.815 348.672 201.785 348.669 201.753C348.558 200.771 348.468 199.935 348.377 199.278C348.365 199.195 348.353 199.114 348.341 199.038L351.92 199.154L348.679 201.847Z" fill="#E43849" />
    <path d="M347.886 202.506C347.712 201.003 347.592 199.788 347.464 199.008L348.341 199.037C348.353 199.114 348.365 199.195 348.377 199.278C348.468 199.935 348.558 200.771 348.669 201.753C348.673 201.784 348.677 201.815 348.679 201.846L347.886 202.506Z" fill="#D7DCE1" />
    <path d="M292.305 230.686L292.28 229.823C299.763 229.589 304.397 225.942 307.422 221.144C310.438 216.345 311.771 210.386 312.469 205.694C312.937 202.56 313.12 200.011 313.358 198.681C313.417 198.361 313.472 198.115 313.562 197.902L313.765 197.909L314.366 198.215C314.308 198.313 314.201 198.769 314.119 199.397C314.031 200.031 313.941 200.866 313.83 201.849C313.608 203.815 313.303 206.373 312.744 209.153C311.625 214.709 309.509 221.166 304.969 225.579C301.944 228.52 297.826 230.523 292.305 230.686Z" fill="#D7DCE1" />
    <path d="M353.306 131.178C349.602 191.065 440.271 187.084 440.271 187.084L460.162 186.318C479.506 191.37 488.183 190.159 488.183 190.159L475.496 187.025L493.552 187.108C494.037 187.103 492.598 186.245 492.124 186.153L477.462 183.278L495.682 182.305C496.091 182.284 496.126 181.692 495.722 181.623L477.406 178.501C477.406 178.501 494.823 177.225 493.033 176.205C491.241 175.185 470.717 173.866 470.717 173.866C470.717 173.866 483.224 169.355 481.197 168.519C479.881 167.975 471.434 169.991 465.673 171.471C461.963 172.425 461.819 173.64 457.989 173.084C457.989 173.084 427.643 170.944 404.16 160.651C390.399 154.619 382.649 143.823 375.029 134.243L353.306 131.178Z" fill="#FAB484" />
    <path d="M353.306 131.178L352.422 131.123C352.348 132.34 352.311 133.532 352.311 134.698C352.303 147.269 356.621 156.984 363.334 164.361C373.409 175.429 388.753 181.3 403.07 184.456C417.393 187.606 430.722 188.022 436.823 188.024C439.036 188.024 440.298 187.968 440.31 187.968H440.305L460.197 187.203L460.162 186.318L459.939 187.175C473.076 190.607 481.353 191.171 485.379 191.171C487.31 191.171 488.263 191.041 488.304 191.036C488.726 190.977 489.044 190.629 489.066 190.205C489.088 189.781 488.807 189.402 488.394 189.3L482.907 187.944L493.547 187.993H493.563C493.671 187.986 493.806 187.99 494.033 187.881C494.143 187.824 494.28 187.722 494.383 187.565C494.489 187.41 494.536 187.212 494.535 187.059C494.531 186.82 494.46 186.682 494.41 186.587C494.308 186.414 494.227 186.346 494.152 186.27C493.894 186.04 493.604 185.866 493.28 185.686C493.119 185.6 492.958 185.52 492.799 185.451C492.636 185.382 492.492 185.324 492.296 185.283L484.631 183.781L495.728 183.189C496.06 183.177 496.398 183.008 496.598 182.765C496.802 182.522 496.891 182.239 496.892 181.96C496.891 181.705 496.816 181.438 496.636 181.206C496.46 180.971 496.168 180.797 495.871 180.751L477.554 177.629L477.406 178.501L477.471 179.384C477.476 179.384 481.42 179.094 485.376 178.679C487.355 178.472 489.335 178.234 490.846 177.982C491.605 177.854 492.24 177.726 492.734 177.581C492.983 177.508 493.194 177.435 493.408 177.32C493.515 177.26 493.629 177.192 493.757 177.061C493.878 176.937 494.045 176.695 494.046 176.355C494.049 176.081 493.922 175.841 493.806 175.708C493.686 175.569 493.573 175.495 493.47 175.436C493.223 175.3 492.998 175.234 492.713 175.154C491.669 174.882 489.846 174.632 487.609 174.38C480.926 173.635 470.781 172.983 470.773 172.983L470.716 173.866L471.016 174.698C471.024 174.696 473.708 173.729 476.41 172.598C477.762 172.031 479.115 171.427 480.164 170.867C480.689 170.584 481.137 170.318 481.497 170.044C481.678 169.904 481.838 169.765 481.986 169.585C482.123 169.407 482.294 169.172 482.304 168.766C482.309 168.507 482.19 168.216 482.027 168.041C481.865 167.861 481.692 167.767 481.535 167.701C481.168 167.558 480.861 167.549 480.482 167.542C479.762 167.544 478.821 167.66 477.689 167.846C474.31 168.405 469.294 169.627 465.453 170.613C463.853 171.024 462.848 171.498 462.056 171.825C461.254 172.148 460.711 172.332 459.696 172.339C459.266 172.339 458.752 172.3 458.117 172.208L458.052 172.201C458.049 172.201 457.588 172.168 456.719 172.09C450.636 171.549 424.88 168.774 404.515 159.839C391.009 153.924 383.362 143.308 375.722 133.691C375.581 133.514 375.376 133.398 375.153 133.366L353.428 130.302C353.185 130.268 352.937 130.337 352.745 130.493C352.555 130.648 352.437 130.878 352.422 131.123L353.306 131.178L353.183 132.054L374.906 135.118L375.029 134.242L374.336 134.793C381.935 144.34 389.788 155.314 403.805 161.461C427.492 171.834 457.879 173.957 457.927 173.966L457.989 173.084L457.862 173.96C458.562 174.062 459.161 174.109 459.696 174.109C460.963 174.114 461.877 173.816 462.728 173.46C463.587 173.108 464.431 172.705 465.894 172.328C468.439 171.674 471.509 170.916 474.243 170.322C475.61 170.026 476.893 169.771 477.978 169.592C479.059 169.412 479.955 169.312 480.482 169.313C480.617 169.313 480.724 169.32 480.794 169.327L480.865 169.339L480.873 169.342L480.925 169.177L480.859 169.337L480.873 169.342L480.925 169.177L480.859 169.337L481.029 168.926L480.703 169.215L480.859 169.337L481.029 168.926L480.703 169.215L481.21 168.766H480.534C480.528 168.923 480.612 169.123 480.703 169.215L481.21 168.766H480.534H481.12L480.585 168.518C480.565 168.56 480.535 168.643 480.534 168.766H481.12L480.585 168.518L480.793 168.613L480.613 168.469L480.585 168.518L480.793 168.613L480.613 168.469C480.597 168.499 480.374 168.695 480.045 168.895C478.871 169.635 476.422 170.7 474.318 171.542C473.263 171.965 472.286 172.339 471.574 172.606C470.861 172.874 470.418 173.034 470.417 173.034C470.022 173.176 469.782 173.575 469.841 173.99C469.9 174.406 470.241 174.722 470.66 174.75C470.664 174.75 471.939 174.832 473.889 174.971C476.812 175.179 481.242 175.518 485.097 175.897C487.025 176.087 488.81 176.288 490.182 176.486C490.866 176.585 491.449 176.684 491.882 176.777C492.097 176.823 492.277 176.868 492.405 176.906L492.555 176.958L492.592 176.972L492.598 176.975L492.629 176.914L492.596 176.974L492.598 176.975L492.629 176.914L492.596 176.974L492.858 176.51L492.455 176.852L492.594 176.974L492.858 176.51L492.455 176.852L493.041 176.355H492.277C492.274 176.58 492.38 176.77 492.455 176.852L493.041 176.355H492.277H493.018L492.477 175.839C492.414 175.899 492.278 176.079 492.277 176.355H493.018L492.477 175.839L492.843 176.188L492.547 175.777L492.477 175.839L492.843 176.188L492.547 175.777L492.642 175.907L492.562 175.766L492.547 175.777L492.642 175.907L492.562 175.766C492.529 175.794 492.148 175.926 491.646 176.03C489.841 176.425 486.226 176.832 483.111 177.127C481.551 177.276 480.107 177.398 479.054 177.484C478.001 177.57 477.343 177.618 477.341 177.618C476.893 177.652 476.543 178.011 476.522 178.459C476.501 178.907 476.814 179.298 477.257 179.373L495.572 182.495L495.665 181.958L495.237 182.288L495.572 182.495L495.665 181.958L495.237 182.288L495.661 181.96H495.122L495.237 182.288L495.661 181.96H495.122H495.653L495.251 181.617L495.122 181.96H495.653L495.251 181.617L495.663 181.968L495.634 181.422L495.251 181.617L495.663 181.968L495.634 181.422L477.414 182.394C476.969 182.417 476.609 182.77 476.579 183.215C476.547 183.659 476.854 184.06 477.291 184.146L491.953 187.021C492.042 187.043 492.396 187.207 492.644 187.362C492.771 187.437 492.884 187.515 492.932 187.556L492.954 187.573L493.211 187.296L492.905 187.513L492.954 187.573L493.211 187.296L492.905 187.513L493.543 187.059H492.765C492.778 187.363 492.874 187.459 492.905 187.513L493.543 187.059H492.765H493.613L492.905 186.594C492.807 186.737 492.762 186.922 492.765 187.059H493.613L492.905 186.594L493.596 187.048L493.346 186.256C493.244 186.289 493.053 186.372 492.905 186.594L493.596 187.048L493.346 186.256L493.548 186.899L493.54 186.223L493.346 186.256L493.548 186.899L493.54 186.223L493.552 187.108L493.556 186.223L475.5 186.139C475.052 186.138 474.674 186.471 474.618 186.916C474.563 187.362 474.848 187.776 475.284 187.883L487.97 191.018L488.182 190.159L488.06 189.283L488.033 189.285C487.868 189.306 487 189.402 485.379 189.402C481.519 189.402 473.393 188.86 460.385 185.462L460.128 185.434L440.236 186.199H440.232C440.231 186.199 439.932 186.212 439.351 186.227C438.769 186.24 437.915 186.253 436.823 186.253C428.799 186.257 407.963 185.506 389.253 178.641C379.897 175.212 371.087 170.26 364.645 163.17C358.203 156.074 354.086 146.865 354.08 134.698C354.08 133.569 354.115 132.414 354.188 131.233L353.306 131.178L353.183 132.054L353.306 131.178Z" fill="#FAB484" />
    <path d="M409.67 185.738C407.143 185.459 404.061 184.996 401.983 184.269L402.016 184.219C402.367 184.299 402.719 184.379 403.07 184.457C405.302 184.947 407.51 185.372 409.67 185.738Z" fill="#C2C3CD" />
    <path d="M413.689 184.576C410.276 184.085 406.701 183.453 403.068 182.643L414.515 165.502C414.811 165.599 415.109 165.695 415.405 165.789L415.181 169.12L413.689 184.576Z" fill="#C28E72" />
    <path d="M413.544 186.077C412.824 186.031 411.373 185.927 409.67 185.738C407.51 185.372 405.302 184.946 403.07 184.456C402.719 184.378 402.367 184.299 402.016 184.218L403.068 182.643C406.7 183.453 410.275 184.085 413.688 184.576L413.544 186.077ZM415.404 165.789C415.108 165.695 414.81 165.599 414.514 165.502L415.465 164.078C415.484 164.083 415.502 164.09 415.519 164.095L415.404 165.789Z" fill="#C28E72" />
    <path d="M303.154 148.566L295.24 173.793C291.543 186.711 282.571 195.566 269.279 193.596L203.319 182.708L179.018 185.497L177.949 183.841L202.031 168.706L208.991 170.33L262.286 170.302C267.493 170.299 272.139 167.036 273.908 162.139L289.332 122.135L303.154 148.566Z" fill="#FAB484" />
    <path d="M303.155 148.566L302.31 148.302L294.396 173.529L294.389 173.55C292.748 179.287 290.053 184.164 286.446 187.581C282.833 190.996 278.334 192.981 272.904 192.986C271.78 192.986 270.614 192.9 269.409 192.722L269.28 193.597L269.424 192.723L203.463 181.836L203.219 181.829L179.463 184.555L179.179 184.114L202.189 169.651L208.79 171.192L208.993 171.215L262.288 171.188C267.866 171.184 272.845 167.688 274.741 162.441L273.908 162.14L274.734 162.458L289.454 124.278L302.37 148.977L303.155 148.566L302.31 148.302L303.155 148.566L303.939 148.157L290.118 121.726C289.956 121.418 289.629 121.233 289.282 121.253C288.936 121.273 288.632 121.493 288.507 121.817L273.082 161.821L273.076 161.838C271.433 166.385 267.119 169.415 262.286 169.417L209.093 169.445L202.232 167.845C202.002 167.791 201.76 167.832 201.559 167.957L177.479 183.092C177.278 183.218 177.137 183.419 177.085 183.65C177.035 183.881 177.079 184.123 177.207 184.321L178.276 185.977C178.457 186.259 178.786 186.414 179.12 186.376L203.298 183.602L269.136 194.47L269.15 194.472C270.437 194.663 271.688 194.757 272.904 194.757C278.777 194.762 283.771 192.561 287.663 188.865C291.56 185.169 294.381 180.007 296.091 174.038L295.24 173.793L296.084 174.059L303.999 148.832C304.07 148.606 304.048 148.365 303.939 148.157L303.155 148.566Z" fill="#FAB484" />
    <path d="M297.005 165.209L283.17 140.579L283.509 139.698L300.455 154.215L297.005 165.209Z" fill="#C28E72" />
    <path d="M298.141 167.232L297.005 165.209L300.455 154.214L301.771 155.343L301.785 155.717L298.141 167.232ZM283.17 140.579L282.123 138.717L282.751 139.049L283.509 139.698L283.17 140.579Z" fill="#C28E72" />
    <path d="M343.361 114.169C340.05 119.485 329.405 123.841 319.037 108.181C319.037 108.181 302.258 97.4303 290.126 117.344C279.174 135.318 279.051 135.878 279.051 135.878L301.772 155.343L303.348 197.57L368.496 199.694C368.496 199.694 361.559 169.547 362.779 164.666C362.984 163.849 382.789 131.383 382.789 131.383C382.789 131.383 356.809 92.5785 343.361 114.169Z" fill="#4285F4" />
    <path d="M302.871 182.317L363.854 183.951L363.878 183.088L302.895 181.455" fill="white" />
    <path d="M-75.0486 192.883C-90.7176 192.89 -89.6579 217.94 -93.8265 236.754C-98.6598 258.573 -152.202 434.254 -154.481 473.941C-148.523 475.598 -104.171 475.631 -100.406 475.389C-88.4291 435.782 -49.9232 269.574 -48.9785 268.245C-50.4451 303.831 -66.8923 454.682 -63.4148 475.433C-60.2899 477.269 -14.6241 476.682 -11.0144 476.16C-7.09016 427.287 11.816 223.336 -27.6941 193.182C-47.4709 192.737 -60.763 192.877 -75.0486 192.883Z" fill="#F03F50" />
    <path d="M14.9248 179.434C5.9917 181.072 -11.7438 179.114 -19.859 177.31C-25.0847 176.149 -26.2183 167.303 -28.5187 145.078L-29.4026 130.299C-29.7184 125.027 -32.678 120.274 -37.2681 117.663L-44.6158 113.485C-46.5845 122.455 -51.0543 139.085 -51.0543 139.085C-47.7696 180.588 -35.9376 200.644 -15.7789 198.696C-7.99926 197.945 15.1666 194.265 15.1666 194.265L14.9248 179.434Z" fill="#DF6F54" />
    <path d="M12.8901 194.623C13.9326 194.459 14.6672 194.343 14.987 194.293C14.987 194.31 14.987 194.326 14.987 194.343L12.8901 194.623Z" fill="#C2C3CD" />
    <path d="M14.9872 194.343C14.9872 194.326 14.9872 194.31 14.9872 194.293C15.1061 194.275 15.1669 194.265 15.1669 194.265L15.1127 190.907L15.1893 194.316L14.9872 194.343Z" fill="#182847" />
    <path d="M14.8459 179.448L14.8475 179.445V179.448H14.8459Z" fill="#C2C3CD" />
    <path d="M14.8469 179.448V179.445L14.8535 179.43V179.447C14.8518 179.448 14.8502 179.448 14.8469 179.448Z" fill="#182847" />
    <path d="M7.0896 195.397L14.8455 179.448H14.8468C14.8495 179.448 14.8508 179.448 14.8521 179.447L15.1124 190.906L15.1666 194.265C15.1666 194.265 15.1058 194.274 14.9869 194.293C14.6671 194.343 13.9325 194.459 12.89 194.623L7.0896 195.397Z" fill="#AA584D" />
    <path d="M493.892 240.307L555.662 481.87L530.001 481.204L457.737 317.503C455.446 310.563 447.761 310.633 445.304 317.503L403.691 482.207L375.272 481.763C375.272 481.763 392.566 343.456 411.598 237.915L493.892 240.307Z" fill="#36373A" />
    <path d="M493.892 240.307L492.967 240.543L554.424 480.883L530.632 480.266L458.612 317.118L457.737 317.503L458.645 317.203C458.024 315.323 457.017 313.861 455.778 312.87C454.541 311.879 453.074 311.367 451.601 311.369C448.625 311.362 445.727 313.44 444.404 317.182L444.388 317.225L402.95 481.24L375.287 480.808L375.272 481.763L376.22 481.882C376.221 481.875 376.491 479.723 377.001 475.735C380.569 447.827 395.892 330.396 412.539 238.084L411.598 237.915L411.57 238.869L493.865 241.262L493.892 240.307L492.967 240.543L493.892 240.307L493.92 239.351L410.804 236.936L410.657 237.745C391.619 343.325 374.326 481.636 374.325 481.645L374.192 482.702L404.433 483.174L446.23 317.737L445.304 317.503L446.204 317.826C447.345 314.677 449.536 313.286 451.601 313.279C452.637 313.281 453.666 313.629 454.584 314.361C455.5 315.095 456.307 316.223 456.829 317.803L456.844 317.847L529.372 482.143L556.901 482.858L494.64 239.373L493.92 239.351L493.892 240.307Z" fill="#1D3151" />
    <path d="M386.481 482.656L427.727 236.815L426.876 236.673L385.63 482.513" fill="white" />
    <path d="M575.75 61.5082L567.533 83.1361C561.933 97.1033 547.874 111.51 534.88 106.796L493.371 91.7389C488.67 89.4663 483.78 87.8491 479.169 87.4157C478.878 87.3113 478.707 87.2571 478.707 87.2571L467.342 81.6893L442.526 86.3798L433.729 92.936C411.641 97.1667 364.724 112.023 364.724 112.023C374.419 118.887 382.79 131.384 382.79 131.384C382.79 131.384 380.968 134.37 378.432 138.542C385.069 146.905 392.43 155.509 404.161 160.651C406.845 161.829 412.317 163.121 415.66 164.138L407.24 251.436L498.685 252.909C498.685 252.909 512.626 190.797 515.296 151.077L516.924 151.694C538.267 159.185 561.765 151.577 577.913 133.31C591.091 118.405 597.594 70.5919 597.594 70.5919L575.75 61.5082Z" fill="#34A853" />
    <path d="M415.66 164.137C415.613 164.123 415.567 164.108 415.52 164.095C415.502 164.09 415.484 164.083 415.465 164.078C412.108 163.071 406.793 161.805 404.161 160.65C392.429 155.508 385.068 146.904 378.431 138.541C380.967 134.369 382.789 131.383 382.789 131.383L415.66 164.137Z" fill="#1F6532" />
    <path d="M174.033 196.344L219.548 205.762C219.548 205.762 233.414 205.262 276.203 477.015L247.664 478.267L193.531 272.719C192.748 269.742 188.352 270.355 188.415 273.433L198.289 478.515L168.393 476.264C168.393 476.264 132.434 269.071 146.448 236.04C160.461 203.01 174.033 196.344 174.033 196.344Z" fill="#1D3151" />
    <path d="M148.077 232.378C148.108 232.39 152.486 234.249 158.155 234.251C164.019 234.262 171.316 232.217 176.382 224.04C186.201 208.22 188.939 199.474 188.951 199.438L188.127 199.182C188.127 199.182 188.087 199.309 187.994 199.573C187.351 201.427 184.208 209.795 175.648 223.585C170.741 231.475 163.838 233.378 158.155 233.389C155.416 233.389 152.973 232.935 151.218 232.482C150.341 232.256 149.637 232.029 149.153 231.86C148.911 231.775 148.723 231.705 148.599 231.656C148.474 231.609 148.414 231.582 148.414 231.582L148.077 232.378Z" fill="white" />
    <path d="M204.443 203.139C204.444 203.151 204.784 211.469 206.458 220.253C207.296 224.644 208.466 229.154 210.109 232.817C211.754 236.47 213.866 239.323 216.716 240.284C224.875 243.005 229.858 243.333 231.78 243.331C232.371 243.333 232.673 243.301 232.688 243.3L232.598 242.441C232.597 242.441 232.541 242.447 232.405 242.455C232.269 242.462 232.06 242.468 231.78 242.468C229.956 242.468 225.068 242.159 216.99 239.467C214.531 238.658 212.492 236.033 210.896 232.462C208.495 227.121 207.087 219.765 206.293 213.761C205.894 210.758 205.647 208.092 205.5 206.177C205.352 204.263 205.306 203.108 205.305 203.104L204.443 203.139Z" fill="white" />
    <path d="M216.431 239.964L266.414 477.056L267.258 476.878L217.276 239.786" fill="white" />
    <path d="M158.706 233.651L179.942 477.042L180.801 476.968L159.567 233.576L158.706 233.651Z" fill="white" />
    <path d="M143.759 249.546C143.817 238.997 148.795 228.264 154.697 219.229C152.035 223.883 149.25 229.436 146.447 236.04C145.138 239.126 144.266 243.73 143.759 249.546Z" fill="#7F8DA0" />
    <path d="M143.889 252.671C143.795 251.633 143.753 250.59 143.758 249.546C144.266 243.73 145.138 239.126 146.447 236.04C149.25 229.436 152.035 223.883 154.697 219.229C163.368 205.956 174.033 196.343 174.033 196.343L188.103 199.256C188.082 199.319 188.048 199.425 187.995 199.573C187.351 201.426 184.208 209.794 175.649 223.584C170.742 231.475 163.838 233.377 158.155 233.388C155.416 233.388 152.973 232.935 151.218 232.482C150.341 232.256 149.637 232.028 149.153 231.859C148.911 231.775 148.724 231.705 148.6 231.656C148.474 231.608 148.415 231.582 148.415 231.582L148.078 232.377C148.108 232.389 152.487 234.248 158.155 234.251C158.171 234.251 158.185 234.251 158.201 234.251C158.385 234.251 158.571 234.248 158.758 234.244L159.52 242.979L143.889 252.671ZM160.342 242.47L159.622 234.21C165.197 233.886 171.73 231.547 176.382 224.04C186.202 208.219 188.939 199.474 188.951 199.438L188.879 199.415L219.548 205.761L206.319 213.964C206.31 213.895 206.301 213.828 206.293 213.76C205.894 210.757 205.647 208.091 205.5 206.176C205.352 204.262 205.306 203.107 205.305 203.103L204.443 203.139C204.445 203.178 204.651 208.154 205.516 214.461L160.342 242.47Z" fill="#111D2F" />
    <path d="M158.201 234.251C158.185 234.251 158.171 234.251 158.155 234.251C152.486 234.249 148.108 232.39 148.077 232.378L148.414 231.582C148.414 231.582 148.474 231.609 148.599 231.656C148.723 231.705 148.911 231.775 149.153 231.86C149.637 232.029 150.341 232.256 151.218 232.482C152.973 232.935 155.416 233.389 158.155 233.389C163.838 233.378 170.741 231.475 175.648 223.585C184.208 209.795 187.351 201.427 187.994 199.573C188.047 199.425 188.082 199.32 188.103 199.256L188.878 199.416L188.951 199.438C188.939 199.474 186.201 208.22 176.382 224.041C171.73 231.548 165.197 233.887 159.621 234.21L159.566 233.576L158.706 233.651L158.757 234.245C158.571 234.249 158.385 234.251 158.201 234.251Z" fill="#7F8CA0" />
    <path d="M205.516 214.461C204.651 208.154 204.444 203.178 204.443 203.139L205.305 203.103C205.306 203.107 205.352 204.262 205.5 206.176C205.647 208.091 205.894 210.757 206.293 213.761C206.301 213.828 206.31 213.895 206.319 213.964L205.516 214.461Z" fill="#7F8CA0" />
    <path d="M159.52 242.979L158.758 234.245L158.706 233.651L159.567 233.576L159.622 234.21L160.342 242.471L159.52 242.979Z" fill="#7F8CA0" />
    <path d="M183.798 62.3468C184.895 56.9692 188.133 46.8906 196.826 44.6827C205.239 42.5462 211.33 43.2333 220.305 47.5578C232.042 53.2142 239.445 90.7053 239.445 90.7053C239.445 90.7053 223.765 108.006 180.079 91.1374C180.079 91.1374 182.35 69.4579 183.798 62.3468Z" fill="#0D1120" />
    <path d="M177.731 88.9673C179.424 75.5286 182.87 58.0455 195.111 50.2341C196.87 49.1124 195.241 46.2954 193.469 47.4264C180.078 55.9724 176.328 74.2919 174.48 88.9673C174.218 91.0377 177.472 91.0192 177.731 88.9673Z" fill="#0D1120" />
    <path d="M190.937 82.7142C190.937 82.7142 186.762 115.233 186.349 117.847C186.349 117.847 200.445 134.656 214.863 120.201C214.863 120.201 212.423 112.316 207.989 92.012L190.937 82.7142Z" fill="#F8A16A" />
    <path d="M190.938 82.714L190.005 82.595C190.003 82.599 189.743 84.6272 189.345 87.7163C188.75 92.35 187.844 99.362 187.05 105.46C186.258 111.552 185.571 116.758 185.421 117.7C185.379 117.97 185.454 118.243 185.63 118.45C185.663 118.49 187.43 120.596 190.383 122.721C193.332 124.839 197.49 127.002 202.319 127.007C206.472 127.015 211.061 125.358 215.529 120.864C215.775 120.619 215.865 120.255 215.762 119.924C215.762 119.922 215.726 119.807 215.651 119.556C215.131 117.796 212.785 109.56 208.908 91.8123C208.85 91.5454 208.678 91.3168 208.439 91.186L191.388 81.8882C191.115 81.7402 190.787 81.7349 190.51 81.8763C190.232 82.019 190.044 82.2859 190.005 82.595L190.938 82.714L190.487 83.5398L207.539 92.8376L207.99 92.0118L207.07 92.2126C211.51 112.538 213.954 120.447 213.965 120.479L214.863 120.201L214.197 119.537C209.996 123.736 205.972 125.119 202.319 125.127C198.072 125.132 194.246 123.186 191.481 121.193C190.099 120.201 188.987 119.204 188.226 118.458C187.846 118.087 187.552 117.778 187.357 117.564L187.138 117.319L187.085 117.259L187.072 117.243L186.35 117.847L187.279 117.993C187.387 117.308 187.723 114.8 188.173 111.378C189.521 101.126 191.87 82.8342 191.87 82.8342L190.938 82.714L190.487 83.5398L190.938 82.714Z" fill="#F8A16A" />
    <path d="M202.329 127.765C202.329 127.765 200.957 134.659 215.375 120.204C215.375 120.204 214.191 113.675 213.227 109.995L202.329 127.765Z" fill="#0D1120" />
    <path d="M209.095 92.303C207.924 96.5549 200.656 100.103 196.636 99.2503C191.742 98.2118 189.571 89.4887 190.033 85.8883C190.421 82.8599 198.803 81.2308 202.764 82.3235C206.724 83.4162 210.268 88.0499 209.095 92.303Z" fill="#0D1120" />
    <path d="M184.658 66.5065L190.301 67.4922L189.203 73.7854L183.559 72.7997C181.82 72.4958 180.659 70.8416 180.961 69.1041C181.265 67.3653 182.919 66.2026 184.658 66.5065Z" fill="#F8A16A" />
    <path d="M184.658 66.506L184.501 67.4071L189.243 68.2356L188.459 72.7266L183.716 71.8981C182.609 71.7066 181.828 70.7394 181.828 69.6559C181.828 69.5265 181.838 69.3943 181.862 69.2622L181.875 69.1829V69.1037H180.961L181.862 69.2609C182.054 68.1537 183.021 67.3728 184.104 67.3728C184.234 67.3728 184.366 67.3833 184.501 67.4071L184.658 66.506L184.815 65.6049C184.577 65.564 184.339 65.5428 184.104 65.5428C182.141 65.5428 180.411 66.95 180.06 68.9451L180.047 69.023V69.1037H180.961L180.06 68.9451C180.018 69.1843 179.998 69.4221 179.998 69.6559C179.998 71.6194 181.404 73.3502 183.401 73.7004L189.947 74.8433L191.359 66.7478L184.815 65.6049L184.658 66.506Z" fill="#F8A16A" />
    <path d="M184.142 68.1409L186.471 68.5479L186.018 71.1455L183.688 70.7399C182.971 70.6143 182.49 69.9299 182.616 69.2125C182.742 68.495 183.425 68.0154 184.142 68.1409Z" fill="#D15F46" />
    <path d="M184.142 68.14L183.986 69.0319L185.424 69.2829L185.282 70.0982L183.844 69.8471C183.643 69.8141 183.501 69.6344 183.501 69.4402L183.508 69.3702V69.3675C183.541 69.1667 183.719 69.0253 183.914 69.0253L183.986 69.0319L184.142 68.14L184.297 67.2482C184.169 67.2257 184.04 67.2152 183.914 67.2152C182.85 67.2152 181.915 67.9762 181.724 69.057L181.722 69.0742L181.724 69.0557C181.702 69.1852 181.691 69.3133 181.691 69.4402C181.691 70.5051 182.452 71.4393 183.532 71.6308L186.754 72.1924L187.519 67.8111L184.298 67.2482L184.142 68.14Z" fill="#D15F46" />
    <path d="M221.441 79.7121L215.977 77.9918L217.895 71.8981L223.36 73.6171C225.043 74.1469 225.977 75.9412 225.447 77.6232C224.919 79.3065 223.126 80.2406 221.441 79.7121Z" fill="#F8A16A" />
    <path d="M221.441 79.7125L221.716 78.8391L217.125 77.3937L218.492 73.0453L223.086 74.4908C224.059 74.7947 224.68 75.6971 224.681 76.6643C224.681 76.8903 224.647 77.1201 224.576 77.35C224.272 78.3225 223.371 78.9448 222.402 78.9448C222.176 78.9448 221.946 78.9118 221.716 78.8391L221.441 79.7125L221.167 80.5845C221.576 80.7127 221.992 80.7748 222.402 80.7748C224.15 80.7761 225.767 79.6517 226.321 77.8984V77.8971C226.449 77.4901 226.511 77.0739 226.511 76.6643C226.511 74.9163 225.389 73.299 223.635 72.7454L217.297 70.7516L214.83 78.5894L221.167 80.5845L221.441 79.7125Z" fill="#F8A16A" />
    <path d="M222.9 75.3536L220.656 74.6058L219.823 77.1069L222.067 77.8548C222.756 78.086 223.504 77.7121 223.735 77.0211C223.964 76.33 223.591 75.5835 222.9 75.3536Z" fill="#D15F46" />
    <path d="M222.9 75.3533L223.187 74.4945L220.083 73.4599L218.677 77.6787L221.78 78.7133C222.011 78.7913 222.249 78.8282 222.483 78.8282C223.416 78.8296 224.28 78.239 224.593 77.3075L224.594 77.3061C224.671 77.0749 224.708 76.8384 224.708 76.6046C224.709 75.6717 224.118 74.8063 223.186 74.4945L222.9 75.3533L222.614 76.2121C222.788 76.269 222.896 76.4328 222.898 76.6046L222.875 76.7354L222.877 76.734C222.82 76.9085 222.655 77.0168 222.483 77.0181L222.353 76.997L220.967 76.5345L221.229 75.7497L222.614 76.2121L222.9 75.3533Z" fill="#D15F46" />
    <path d="M209.988 53.8723H209.99C220.133 57.0896 224.123 67.6518 220.906 77.7953L220.659 78.5695C217.443 88.7116 206.543 95.2268 198.071 92.3887L198.003 92.3464C191.393 89.7832 182.567 77.3619 185.784 67.2185L186.03 66.4442C189.247 56.3021 199.845 50.655 209.988 53.8723Z" fill="#F8A16A" />
    <path d="M209.988 53.8722V54.7865H209.99V53.8722L209.713 54.7442C213.445 55.9307 216.263 58.1346 218.175 60.9595C220.084 63.7831 221.079 67.2395 221.08 70.9153C221.08 73.0729 220.737 75.3033 220.034 77.5177L219.788 78.292L219.787 78.2933C218.499 82.3615 215.902 85.8364 212.725 88.2848C209.55 90.7357 205.805 92.1442 202.269 92.1416C200.926 92.1416 199.612 91.9407 198.361 91.5206L198.07 92.3887L198.55 91.6091L198.483 91.5681L198.411 91.5245L198.333 91.4941C195.785 90.519 192.624 87.7351 190.194 84.1069C187.75 80.4827 186.01 76.0313 186.015 71.7755C186.015 70.3181 186.216 68.8805 186.656 67.4958L186.902 66.7203C189.387 58.8878 196.474 53.8841 204.198 53.8828C206.016 53.8828 207.87 54.1589 209.712 54.7442L209.847 54.7865H209.988V53.8722L210.266 53.0001C208.244 52.3593 206.203 52.0528 204.198 52.0528C195.68 52.0515 187.881 57.5784 185.158 66.168L184.912 66.9422C184.41 68.5225 184.185 70.149 184.185 71.7755C184.19 76.5281 186.081 81.2675 188.676 85.1296C191.286 88.989 194.577 91.9857 197.673 93.1999L198.003 92.3464L197.523 93.1259L197.591 93.1669L197.679 93.2224L197.78 93.2554C199.23 93.7416 200.743 93.9702 202.269 93.9702C206.289 93.9676 210.387 92.3952 213.842 89.7342C217.296 87.0705 220.117 83.3036 221.531 78.8456L221.551 78.7835L221.778 78.0726V78.0713C222.535 75.6825 222.909 73.2659 222.909 70.9153C222.91 66.9118 221.823 63.0894 219.69 59.9342C217.56 56.779 214.376 54.3003 210.267 53.0001L210.131 52.9566H209.988V53.8722L210.266 53.0001L209.988 53.8722Z" fill="#F8A16A" />
    <path d="M200.061 84.9935L200.803 85.1719C203.429 85.7981 206.066 84.1783 206.692 81.5529L196.44 79.1059C195.814 81.7313 197.434 84.3672 200.061 84.9935Z" fill="white" />
    <path d="M206.123 74.8789C205.944 75.6215 206.256 76.3337 206.82 76.4697C207.385 76.6045 207.986 76.1117 208.164 75.3691C208.343 74.6266 208.031 73.9144 207.467 73.7783C206.902 73.6435 206.301 74.1351 206.123 74.8789Z" fill="#0D1120" />
    <path d="M198.164 72.9567C197.931 73.6834 198.188 74.418 198.741 74.5951C199.293 74.7721 199.93 74.3269 200.164 73.5989C200.397 72.8722 200.14 72.1375 199.587 71.9605C199.035 71.7821 198.398 72.2287 198.164 72.9567Z" fill="#0D1120" />
    <path d="M200.67 78.0739L203.341 78.7992C203.668 78.8891 204.004 78.5205 203.971 78.1069L203.67 74.4206C203.631 73.9515 203.161 73.8009 202.871 74.1629L200.502 77.1239C200.234 77.4582 200.328 77.9801 200.67 78.0739Z" fill="#D66068" />
    <path d="M196.498 69.2878C195.642 69.5586 197.414 67.7009 198.452 67.7458C199.492 67.7921 200.302 68.5571 200.262 69.4556C200.262 69.4556 198.555 68.6364 196.498 69.2878Z" fill="#0D1120" />
    <path d="M211.246 72.7449C211.884 73.3791 211.163 70.915 210.218 70.479C209.273 70.0429 208.203 70.3508 207.827 71.1673C207.827 71.1673 209.717 71.2228 211.246 72.7449Z" fill="#0D1120" />
    <path d="M198.181 52.7487C218.504 65.2691 223.337 73.1782 223.337 73.1782C223.337 73.1782 228.559 48.4836 201.223 47.7662C183.564 47.3024 196.938 51.9837 198.181 52.7487Z" fill="#0D1120" />
    <path d="M200.515 52.4242C200.515 52.4242 192.581 63.6947 190.567 65.6171C188.267 67.8131 184.672 65.2696 184.672 65.2696C184.672 65.2696 185.816 47.6676 200.515 52.4242Z" fill="#0D1120" />
    <path d="M230.368 88.3373H229.708C229.708 89.9968 229.037 91.4925 227.949 92.5812C226.86 93.6686 225.363 94.3399 223.704 94.3399C222.044 94.3399 220.547 93.6686 219.459 92.5812C218.371 91.4925 217.7 89.9968 217.7 88.3373C217.7 86.6764 218.371 85.1808 219.459 84.092C220.547 83.0046 222.044 82.3334 223.704 82.3334C225.363 82.3334 226.86 83.0046 227.949 84.092C229.037 85.1808 229.708 86.6764 229.708 88.3373H230.368H231.029C231.029 84.2915 227.75 81.0135 223.704 81.0121C219.66 81.0135 216.38 84.2915 216.379 88.3373C216.38 92.3817 219.66 95.6611 223.704 95.6611C227.75 95.6611 231.029 92.3817 231.029 88.3373H230.368Z" fill="#F0E034" />
    <path d="M224.014 80.7947C224.014 81.532 223.415 82.1292 222.678 82.1292C221.941 82.1292 221.343 81.532 221.343 80.7947C221.343 80.0574 221.941 79.4602 222.678 79.4602C223.415 79.4602 224.014 80.0574 224.014 80.7947Z" fill="#F0E034" />
    <path d="M185.724 83.4204L185.146 83.102C184.052 85.0905 182 86.2123 179.879 86.2136C178.901 86.2136 177.912 85.9745 176.992 85.4697C175.004 84.3757 173.882 82.3238 173.881 80.2032C173.881 79.2254 174.12 78.2358 174.624 77.3162C175.718 75.3276 177.772 74.2059 179.891 74.2046C180.87 74.2046 181.858 74.4437 182.778 74.9485C184.767 76.0411 185.888 78.0944 185.89 80.215C185.89 81.1928 185.651 82.1824 185.146 83.102L185.724 83.4204L186.303 83.7389C186.918 82.6211 187.211 81.4081 187.211 80.215C187.212 77.6319 185.839 75.1242 183.415 73.791C182.297 73.1766 181.084 72.8833 179.891 72.8833C177.308 72.882 174.8 74.2548 173.467 76.6793C172.853 77.7971 172.559 79.0101 172.559 80.2032C172.558 82.7863 173.932 85.294 176.355 86.6272C177.473 87.2416 178.686 87.5349 179.879 87.5349C182.462 87.5362 184.97 86.1634 186.303 83.7389L185.724 83.4204Z" fill="#F0E034" />
    <path d="M183.792 73.7486C183.436 74.3947 182.625 74.6312 181.979 74.2758C181.333 73.9204 181.098 73.1091 181.452 72.4617C181.807 71.8169 182.618 71.5817 183.264 71.9358C183.911 72.2912 184.147 73.1025 183.792 73.7486Z" fill="#F0E034" />
    <path d="M161.221 136.887L155.651 104.581C155.651 104.581 147.903 104.593 137.402 104.704L143.864 116.018L142.492 118.955C142.492 118.955 153.696 135.295 161.221 136.887Z" fill="#F8A16A" />
    <path d="M161.22 136.887C153.696 135.295 142.491 118.955 142.491 118.955L143.864 116.018L156.112 120.85L161.22 136.887Z" fill="#BD7F60" />
    <path d="M259.068 154.7L244.734 119.429C239.786 111.73 235.248 109.513 229.093 110.366C227.127 110.64 225.479 111.204 224.06 111.967L214.157 113.919C199.837 123.625 187.107 109.449 187.107 109.449C176.15 100.799 151.349 93.8766 151.349 93.8766L155.387 132.517C155.387 132.517 165.48 170.294 165.548 171.569C166.17 183.423 165.41 204.034 165.574 203.719C165.737 203.406 229.297 211.895 229.785 210.952C230.274 210.01 230.362 202.879 231.515 176.927C231.667 173.515 231.729 170.139 231.725 166.82L259.068 154.7Z" fill="#FBBC04" />
    <path d="M197.644 206.238C186.496 197.253 175.4 187.77 167.473 175.698C163.65 169.879 160.564 163.517 158.776 156.773C158.052 154.035 155.296 147.816 159.023 148.062C161.675 148.236 165.795 151.06 168.162 152.205C192.887 164.168 211.912 189.476 217.783 216.414C217.993 217.379 219.473 216.97 219.263 216.006C215.788 200.059 206.911 184.964 196.863 172.252C186.38 158.989 171.947 151.973 156.736 145.411C156.25 145.203 155.539 145.431 155.581 146.075C157.319 172.709 176.982 191.545 196.558 207.324C197.32 207.938 198.413 206.859 197.644 206.238Z" fill="white" />
    <path d="M148.343 98.4014C168.678 131.909 192.681 168.031 233.092 178.181C233.783 178.356 234.233 177.649 233.958 177.054C225.466 158.645 214.661 141.408 201.641 125.859C189.116 110.902 173.49 93.6911 155.364 85.6313C154.47 85.2336 153.688 86.5562 154.59 86.9565C171.944 94.6741 186.996 111.034 199.158 125.292C211.512 139.773 222.021 155.815 230.331 172.938C231.393 175.132 232.57 175.552 230.418 175.898C228.629 176.185 225.052 174.214 223.384 173.575C218.829 171.835 214.44 169.676 210.23 167.221C201.687 162.243 193.921 155.967 186.948 148.973C171.929 133.909 160.643 115.709 149.668 97.6272C149.157 96.7829 147.829 97.5532 148.343 98.4014Z" fill="white" />
    <path d="M219.183 113.058C224.464 137.128 244.563 157.176 270.529 153.884C271.495 153.761 271.507 152.225 270.529 152.349C245.193 155.561 225.812 136.113 220.663 112.649C220.451 111.685 218.971 112.094 219.183 113.058Z" fill="white" />
    <path d="M225.17 149.963C225.17 149.963 234.4 170.627 235.897 177.974C237.982 188.2 246.192 196.3 256.315 198.841C270.701 202.452 282.122 202.741 301.295 201.762L328.615 197.409C350.474 196.084 359.098 191.867 359.098 191.867L344.821 192.923L363.648 186.862C364.152 186.692 362.361 186.289 361.837 186.354L345.59 188.353L364.232 181.137C364.65 180.975 364.485 180.349 364.041 180.415L343.909 183.399C343.909 183.399 361.608 176.139 359.396 175.687C357.185 175.235 335.365 180.851 335.365 180.851C335.365 180.851 346.852 171.896 344.457 171.714C342.902 171.596 334.792 176.571 329.299 180.072C325.759 182.328 321.749 183.86 317.573 184.583L306.804 185.813C305.288 185.595 303.828 185.384 302.416 185.178C283.796 182.456 273.861 180.572 261.544 176.605C251.987 159.912 250.691 146.503 250.691 146.503L225.17 149.963Z" fill="#F8A16A" />
    <path d="M225.17 149.962L224.286 150.359C224.286 150.359 224.429 150.679 224.682 151.256C225.574 153.278 227.824 158.44 230.012 163.89C232.199 169.328 234.329 175.105 234.947 178.168C237.119 188.787 245.609 197.149 256.078 199.781C266.095 202.297 274.732 203.216 285.434 203.215C290.216 203.215 295.414 203.033 301.344 202.73L301.447 202.718L328.767 198.365L328.615 197.408L328.673 198.375C350.641 197.045 359.395 192.801 359.524 192.737C359.941 192.534 360.155 192.062 360.034 191.614C359.912 191.165 359.491 190.865 359.027 190.899L352.85 191.357L363.946 187.785L363.96 187.78C364.058 187.744 364.173 187.705 364.333 187.576C364.411 187.512 364.501 187.419 364.577 187.283C364.655 187.148 364.708 186.966 364.707 186.792C364.704 186.492 364.58 186.28 364.489 186.163C364.307 185.943 364.186 185.894 364.082 185.832C363.904 185.74 363.752 185.691 363.581 185.638C363.073 185.494 362.485 185.383 361.971 185.377L361.718 185.391L353.226 186.436L364.581 182.04C364.84 181.943 365.078 181.755 365.228 181.522C365.378 181.291 365.443 181.032 365.443 180.793C365.44 180.463 365.331 180.151 365.102 179.888C364.879 179.625 364.496 179.433 364.104 179.439L363.896 179.455H363.898L343.766 182.439L343.909 183.399L344.276 184.294C344.281 184.293 348.207 182.682 352.143 180.926C354.113 180.047 356.083 179.132 357.584 178.354C358.337 177.964 358.969 177.61 359.45 177.292C359.693 177.13 359.896 176.982 360.081 176.808C360.174 176.718 360.263 176.623 360.355 176.486C360.441 176.348 360.552 176.154 360.558 175.834C360.559 175.677 360.52 175.495 360.438 175.34C360.316 175.104 360.13 174.957 359.983 174.878C359.833 174.796 359.706 174.761 359.591 174.736C359.401 174.699 359.237 174.691 359.055 174.691C358.504 174.693 357.787 174.781 356.872 174.927C353.697 175.434 348.285 176.677 343.635 177.796C338.99 178.916 335.126 179.91 335.124 179.91L335.365 180.85L335.961 181.614C335.968 181.608 338.33 179.768 340.707 177.722C341.896 176.7 343.088 175.628 344.007 174.69C344.466 174.22 344.857 173.786 345.159 173.381C345.309 173.177 345.439 172.982 345.546 172.77C345.649 172.556 345.748 172.33 345.755 171.985C345.768 171.705 345.625 171.292 345.334 171.058C345.049 170.821 344.761 170.767 344.53 170.747L344.399 170.742C343.964 170.75 343.605 170.862 343.16 171.017C341.649 171.567 339.299 172.852 336.66 174.398C334.031 175.941 331.16 177.737 328.779 179.255C325.351 181.439 321.46 182.926 317.408 183.629L317.573 184.582L317.463 183.619L306.694 184.849L306.805 185.813L306.942 184.852C305.427 184.635 303.967 184.424 302.558 184.218C283.941 181.496 274.093 179.626 261.842 175.682L261.544 176.605L262.385 176.124C257.653 167.858 254.969 160.407 253.468 155.033C252.717 152.346 252.264 150.178 251.998 148.689C251.865 147.942 251.779 147.367 251.726 146.98C251.7 146.787 251.682 146.642 251.671 146.546L251.656 146.408C251.631 146.148 251.499 145.905 251.293 145.742C251.088 145.58 250.821 145.506 250.561 145.541L225.04 149.002C224.739 149.043 224.471 149.225 224.323 149.491C224.175 149.758 224.162 150.08 224.286 150.359L225.17 149.962L225.301 150.923L250.822 147.463L250.692 146.502L249.727 146.596C249.736 146.688 251.055 160.23 260.703 177.087C260.822 177.296 261.019 177.454 261.247 177.528C273.63 181.516 283.649 183.413 302.277 186.136C303.688 186.344 305.149 186.554 306.667 186.772L306.914 186.776L317.683 185.546L317.738 185.538C322.039 184.793 326.169 183.216 329.82 180.89C332.527 179.163 335.873 177.078 338.736 175.434C340.166 174.612 341.476 173.901 342.511 173.404C343.027 173.157 343.475 172.964 343.818 172.84C343.988 172.78 344.133 172.735 344.239 172.709L344.362 172.686L344.399 172.68V172.461L344.383 172.68H344.399V172.461L344.383 172.68L344.425 172.125L344.078 172.535C344.255 172.679 344.379 172.678 344.383 172.68L344.425 172.125L344.078 172.535L344.546 171.985H343.816C343.803 172.106 343.894 172.392 344.078 172.535L344.546 171.985H343.816H344.235L343.831 171.861L343.816 171.985H344.235L343.831 171.861L343.829 171.865C343.811 171.926 343.635 172.209 343.355 172.535C342.364 173.716 340.185 175.648 338.293 177.228C337.346 178.022 336.463 178.737 335.819 179.254C335.174 179.77 334.771 180.084 334.77 180.085C334.406 180.368 334.293 180.864 334.496 181.277C334.698 181.689 335.162 181.903 335.607 181.788C335.61 181.788 336.864 181.466 338.806 180.979C341.719 180.25 346.175 179.157 350.223 178.248C352.246 177.794 354.168 177.385 355.738 177.092C357.296 176.799 358.548 176.626 359.055 176.63L359.175 176.634L359.203 176.636H359.204L359.331 176.013L358.944 176.507C359.098 176.622 359.181 176.628 359.203 176.636L359.331 176.013L358.944 176.507L359.464 175.844L358.715 176.229C358.78 176.355 358.868 176.449 358.944 176.507L359.464 175.844L358.715 176.229L359.481 175.834H358.619C358.617 175.956 358.649 176.104 358.715 176.229L359.481 175.834H358.619H359.357L358.732 175.425C358.706 175.471 358.625 175.585 358.619 175.834H359.357L358.732 175.425L359.004 175.603L358.759 175.389L358.732 175.425L359.004 175.603L358.759 175.389L358.702 175.441C358.546 175.577 358.14 175.844 357.606 176.142C355.717 177.206 352.173 178.812 349.136 180.131C347.615 180.793 346.214 181.385 345.196 181.813C344.177 182.24 343.543 182.5 343.54 182.501C343.086 182.688 342.844 183.181 342.973 183.655C343.104 184.129 343.564 184.429 344.05 184.357L364.184 181.372H364.186L364.104 180.833V181.378L364.186 181.372L364.104 180.833V181.378V180.767L363.647 181.17C363.742 181.287 363.942 181.384 364.104 181.378V180.767L363.647 181.17L364.075 180.793H363.503C363.506 180.932 363.547 181.051 363.647 181.17L364.075 180.793H363.503H364.108L363.604 180.463L363.503 180.793H364.108L363.604 180.463L364.095 180.784L363.881 180.233L363.604 180.463L364.095 180.784L363.881 180.233L345.241 187.448C344.785 187.624 344.531 188.114 344.651 188.589C344.769 189.062 345.225 189.373 345.71 189.314L361.956 187.315L361.944 187.214L361.949 187.316L361.956 187.315L361.944 187.214L361.949 187.316H361.971C362.107 187.312 362.531 187.369 362.836 187.446C362.989 187.483 363.127 187.526 363.173 187.546L363.184 187.55L363.363 187.152L363.095 187.492L363.184 187.55L363.363 187.152L363.095 187.492L363.606 186.844L362.928 187.311L363.095 187.492L363.606 186.844L362.928 187.311L363.683 186.792H362.767C362.769 187.032 362.858 187.213 362.928 187.311L363.683 186.792H362.767H363.698L362.885 186.338C362.815 186.46 362.766 186.629 362.767 186.792H363.698L362.885 186.338L363.662 186.772L363.186 186.019C363.112 186.066 362.992 186.152 362.885 186.338L363.662 186.772L363.186 186.019L363.567 186.621L363.337 185.945L363.186 186.019L363.567 186.621L363.337 185.945L363.649 186.862L363.351 185.939L344.524 192C344.057 192.151 343.777 192.626 343.87 193.109C343.964 193.591 344.403 193.925 344.893 193.89L359.169 192.834L359.098 191.867L358.673 190.996L358.658 191.003C358.256 191.191 349.629 195.163 328.556 196.44L328.462 196.45L301.142 200.804L301.295 201.762L301.245 200.793C295.333 201.094 290.167 201.275 285.434 201.275C274.838 201.274 266.421 200.376 256.55 197.9C246.775 195.45 238.845 187.61 236.847 177.779C236.451 175.846 235.584 173.161 234.501 170.167C231.254 161.203 226.06 149.578 226.055 149.567L225.17 149.962L225.301 150.923L225.17 149.962Z" fill="#F8A16A" />
    <path d="M297.519 202.942L297.527 202.912C298.767 202.858 300.038 202.797 301.345 202.731L301.448 202.719L301.845 202.657C301.816 202.711 301.791 202.763 301.762 202.818L297.519 202.942Z" fill="#622C25" />
    <path d="M301.761 202.817C301.79 202.762 301.815 202.71 301.845 202.656L302.196 202.599L303.199 200.476L304.553 197.609L302.097 202.808L301.761 202.817Z" fill="#522621" />
    <path d="M302.793 184.253C302.715 184.243 302.636 184.231 302.558 184.219C302.406 184.196 302.257 184.175 302.106 184.153L302.131 184.048L302.791 184.195L302.793 184.253Z" fill="#622C25" />
    <path d="M298.006 200.949L301.646 186.044C301.854 186.074 302.066 186.106 302.277 186.136C302.477 186.165 302.676 186.195 302.876 186.224L303.347 197.569L304.574 197.567L304.554 197.609L303.2 200.476L301.194 200.796C300.106 200.851 299.045 200.903 298.006 200.949Z" fill="#BD7F60" />
    <path d="M297.527 202.911L298.005 200.949C299.045 200.903 300.106 200.851 301.193 200.796L303.199 200.476L302.196 202.599L301.845 202.656L301.447 202.718L301.344 202.73C300.037 202.796 298.766 202.857 297.527 202.911ZM302.875 186.224C302.676 186.194 302.476 186.165 302.277 186.136C302.065 186.106 301.854 186.074 301.645 186.044L302.106 184.152C302.257 184.174 302.406 184.195 302.558 184.218C302.636 184.23 302.715 184.242 302.793 184.252L302.875 186.224Z" fill="#BD7F60" />
</svg>
    