<svg width="428" height="440" viewBox="0 0 428 440" fill="none" xmlns="http://www.w3.org/2000/svg">
    <path d="M-103.313 205.708L-138.981 479.051L-106.106 478.378L-64.5668 306.224C-62.2493 299.208 -54.4815 299.278 -51.9962 306.224L-33.3768 479.393L-2.44714 478.943C-2.44714 478.943 5.90065 310.222 -25.0594 194.439L-103.313 205.708Z" fill="#66CDDC" />
    <path d="M93.7257 110.623C93.7257 110.623 94.574 85.5918 97.2707 86.6013C99.9674 87.6094 99.3385 98.5747 99.6437 100.402C100.133 103.319 105.021 95.8819 109.773 88.4458C113.964 81.8843 118.048 75.3229 118.91 75.8726C120.563 76.923 115.757 91.5534 115.757 91.5534C115.757 91.5534 118.769 77.4013 120.507 78.3169C122.245 79.2299 121.445 92.5999 121.445 92.5999C121.445 92.5999 122.379 80.1958 123.305 81.7192C124.231 83.2439 124.435 95.0165 124.435 95.0165C124.435 95.0165 124.316 86.6846 124.337 89.3562C124.481 107.586 109.253 125.899 109.253 125.899C109.253 125.899 72.5047 167.717 49.4538 177.245C22.8737 188.232 -7.40989 182.918 -23.4515 162.436L-57.8799 118.476C-66.3506 104.618 -67.9255 90.6021 -52.7599 80.756C-37.5944 70.9099 -17.7607 79.0106 -9.28871 92.8681L21.6766 129.932C31.3431 142.552 56.5318 137.658 71.0566 127.47L92.5379 112.402C93.1523 111.971 93.583 111.328 93.7257 110.625V110.623Z" fill="#F8A488" />
    <path d="M25.674 182.803L25.6792 182.728C26.2157 182.696 26.7534 182.659 27.2912 182.615C26.7746 182.677 26.2355 182.741 25.674 182.803Z" fill="#C2C3CD" />
    <path d="M25.679 182.728L29.0416 137.694L36.9508 181.046C36.9508 181.046 34.0439 181.805 27.2909 182.616C26.7531 182.66 26.2154 182.697 25.679 182.728Z" fill="#C48177" />
    <path d="M13.8521 116.009C13.8521 116.009 -14.4799 56.7502 -50.2257 76.7939C-51.4796 77.4968 -53.0347 77.2643 -54.393 77.617C-66.5593 79.521 -79.2197 78.2962 -99.4629 77.6382C-109.025 74.1037 -120.589 75.721 -129.386 82.7924L-172.211 113.565C-172.211 113.565 -133.515 166.098 -129.033 170.582L-115.767 158.471C-114.064 198.687 -115.767 235.752 -115.767 235.752L-13.1626 227.734L-16.8582 168.996L-11.2349 176.134C-11.3141 169.793 13.8521 116.009 13.8521 116.009Z" fill="#202124" />
    <path d="M6.37289 105.44L4.8402 109.52C4.72128 109.837 4.88115 110.191 5.19826 110.31C5.51669 110.43 5.87079 110.269 5.9897 109.952L7.52239 105.872C7.64263 105.555 7.48144 105.2 7.16433 105.082C6.84723 104.961 6.49313 105.123 6.37289 105.44ZM3.30619 113.6L1.77353 117.679C1.65461 117.996 1.81448 118.35 2.13159 118.47C2.45002 118.589 2.80412 118.429 2.92303 118.111L4.45572 114.032C4.57596 113.713 4.41473 113.359 4.09763 113.24C3.78052 113.122 3.42642 113.281 3.30619 113.6ZM0.239513 121.759L-1.29314 125.839C-1.41206 126.156 -1.25219 126.51 -0.935084 126.629C-0.616657 126.749 -0.262558 126.588 -0.143642 126.271L1.38902 122.191C1.50925 121.874 1.34806 121.52 1.03096 121.399C0.71385 121.28 0.359749 121.442 0.239513 121.759ZM-2.82716 129.918L-4.35985 133.998C-4.48008 134.315 -4.31886 134.669 -4.00176 134.789C-3.68465 134.908 -3.33055 134.747 -3.21031 134.43L-1.67766 130.35C-1.55742 130.032 -1.71861 129.678 -2.03572 129.559C-2.35282 129.441 -2.70692 129.6 -2.82716 129.918ZM-5.89383 138.078L-7.42652 142.158C-7.54676 142.475 -7.38557 142.829 -7.06846 142.948C-6.75135 143.067 -6.39725 142.907 -6.27702 142.59L-4.74433 138.51C-4.62409 138.193 -4.78528 137.839 -5.10239 137.718C-5.42081 137.599 -5.77359 137.761 -5.89383 138.078ZM-8.9605 146.237L-10.4932 150.317C-10.6134 150.634 -10.4522 150.988 -10.1351 151.108C-9.81803 151.227 -9.46393 151.066 -9.34369 150.749L-7.811 146.669C-7.69076 146.352 -7.85195 145.997 -8.16906 145.878C-8.48749 145.76 -8.84159 145.919 -8.9605 146.237ZM-12.0272 154.397L-13.5599 158.477C-13.6801 158.794 -13.5189 159.148 -13.2018 159.267C-12.8847 159.386 -12.5306 159.226 -12.4104 158.909L-10.8777 154.829C-10.7588 154.512 -10.9186 154.158 -11.2357 154.037C-11.5542 153.918 -11.9083 154.08 -12.0272 154.397ZM-15.0939 162.556L-16.6265 166.636C-16.7468 166.953 -16.5856 167.307 -16.2685 167.427C-15.9514 167.546 -15.5973 167.385 -15.477 167.068L-13.9443 162.988C-13.8254 162.671 -13.9853 162.316 -14.3024 162.198C-14.6209 162.079 -14.975 162.239 -15.0939 162.556Z" fill="white" />
    <path d="M190.188 46.4411C190.188 46.4411 168.886 54.0464 162.173 77.684C155.461 101.32 146.11 122.759 128.813 124.036C111.516 125.312 93.3397 137.521 92.3011 141.284C91.2626 145.048 148.056 226.633 195.399 206.517L201.487 163.518L202.299 196.967C202.299 196.967 203.793 203.231 220.527 192.232C237.261 181.232 259.527 27.0448 190.188 46.4411Z" fill="#7E3A27" />
    <path d="M202.747 45.1731C191.563 42.6244 179.803 45.2511 170.976 52.6938C160.325 61.6745 157.931 75.5373 155.779 88.5624C154.509 96.2417 153.271 104.18 149.814 111.239C145.341 120.376 137.163 123.562 127.443 123.87C112.684 124.335 99.1713 122.708 88.7663 135.176C87.5085 136.683 89.6687 138.866 90.9358 137.347C102.519 123.469 118.013 128.814 133.55 126.405C145.379 124.57 151.798 116.706 155.265 105.682C159.349 92.6993 158.744 78.3239 164.704 65.9092C171.409 51.9459 186.901 44.708 201.932 48.1341C203.856 48.5714 204.676 45.6118 202.747 45.1731Z" fill="#7E3A27" />
    <path d="M208.612 80.8115C208.612 80.8115 212.403 113.525 213.028 116.018C213.028 116.018 203.102 127.158 188.703 119.135C188.703 119.135 190.279 109.429 192.819 89.4064L208.612 80.8115Z" fill="#FAB484" />
    <path d="M208.612 80.8113L207.704 80.9157C207.704 80.917 208.653 89.0957 209.678 97.5888C210.192 101.835 210.725 106.16 211.169 109.582C211.391 111.294 211.59 112.778 211.754 113.92C211.922 115.069 212.042 115.833 212.141 116.24L213.028 116.018L212.346 115.41L212.338 115.419C212.218 115.552 210.87 116.996 208.571 118.39C206.271 119.785 203.035 121.126 199.097 121.126C196.168 121.125 192.836 120.39 189.147 118.337L188.703 119.135L189.604 119.282C189.605 119.27 191.184 109.553 193.724 89.5211L192.819 89.4062L193.255 90.2082L209.048 81.6133L208.612 80.8113L207.704 80.9157L208.612 80.8113L208.175 80.008L192.381 88.6042C192.125 88.7442 191.949 89.0006 191.912 89.2912C190.644 99.2973 189.615 106.724 188.904 111.649C188.548 114.11 188.272 115.947 188.086 117.166C187.898 118.387 187.801 118.987 187.801 118.988C187.74 119.366 187.923 119.747 188.258 119.933C192.194 122.126 195.859 122.955 199.097 122.952C203.598 122.952 207.246 121.372 209.758 119.803C212.272 118.232 213.668 116.669 213.709 116.626C213.91 116.4 213.987 116.089 213.913 115.796C213.856 115.579 213.721 114.775 213.561 113.659C212.993 109.714 211.981 101.467 211.113 94.2169C210.678 90.5914 210.281 87.2129 209.99 84.7421C209.701 82.27 209.52 80.7095 209.518 80.7056C209.484 80.4057 209.3 80.1388 209.032 80C208.764 79.86 208.44 79.864 208.175 80.008L208.612 80.8113Z" fill="#FAB484" />
    <path d="M194.863 59.843C188.561 61.2277 186.336 70.8598 188.637 81.3309L188.813 82.1302C191.115 92.6 199.764 102.606 205.022 101.301L205.239 101.19C209.334 99.83 212.069 88.3653 209.767 77.8956L210.296 76.2836C207.994 65.8138 201.164 58.457 194.863 59.843Z" fill="#0D1120" />
    <path d="M182.055 78.1365L187.324 76.3475L185.33 70.4731L180.061 72.2608C178.438 72.8118 177.57 74.573 178.121 76.1956C178.671 77.8181 180.433 78.6861 182.055 78.1365Z" fill="#FAB484" />
    <path d="M182.055 78.1362L182.34 78.9765L188.45 76.9034L185.885 69.3457L179.774 71.4188C178.113 71.9843 177.066 73.5342 177.067 75.1976C177.067 75.6231 177.136 76.0578 177.28 76.4819V76.4806C177.844 78.1428 179.394 79.1905 181.057 79.1892C181.484 79.1892 181.917 79.1205 182.34 78.9765L182.055 78.1362L181.769 77.2945C181.532 77.3751 181.292 77.4121 181.057 77.4121C180.136 77.4121 179.274 76.8321 178.963 75.9098H178.962C178.881 75.672 178.844 75.4328 178.844 75.1976C178.844 74.2767 179.424 73.4139 180.346 73.1021L184.774 71.5985L186.197 75.7909L181.769 77.2945L182.055 78.1362Z" fill="#FAB484" />
    <path d="M218.155 63.5368L212.804 65.0602L214.501 71.0271L219.853 69.505C221.501 69.036 222.456 67.3196 221.987 65.672C221.518 64.0244 219.803 63.0691 218.155 63.5368Z" fill="#FAB484" />
    <path d="M218.156 63.5372L217.912 62.6837L211.707 64.4489L213.89 72.1255L220.097 70.359C221.85 69.8582 222.996 68.2634 222.996 66.5233C222.996 66.1613 222.946 65.7926 222.843 65.4293C222.342 63.6746 220.746 62.5291 219.006 62.5304C218.644 62.5304 218.275 62.5793 217.913 62.6823L218.156 63.5372L218.399 64.3921C218.603 64.3339 218.805 64.3075 219.006 64.3075C219.967 64.3075 220.858 64.9417 221.133 65.9155C221.191 66.1203 221.219 66.3238 221.219 66.5233C221.219 67.4852 220.583 68.3757 219.611 68.6505L215.113 69.9295L213.902 65.6724L218.399 64.3921L218.156 63.5372Z" fill="#FAB484" />
    <path d="M218.819 65.0646L216.61 65.6922L217.311 68.1564L219.52 67.5274C220.199 67.3345 220.595 66.6263 220.402 65.9459C220.207 65.2654 219.499 64.8704 218.819 65.0646Z" fill="#F27673" />
    <path d="M218.82 65.0651L218.578 64.2142L216.367 64.8419C216.14 64.9066 215.953 65.0559 215.836 65.2633C215.721 65.4695 215.694 65.7086 215.76 65.9359L216.461 68.3987C216.595 68.8691 217.084 69.1413 217.554 69.0078L219.763 68.3789C220.714 68.1067 221.337 67.2426 221.337 66.2966C221.337 66.101 221.309 65.9002 221.254 65.7047C220.981 64.7533 220.117 64.131 219.173 64.131C218.974 64.131 218.773 64.1574 218.577 64.2142H218.578L218.82 65.0651L219.064 65.916L219.173 65.9002C219.342 65.9002 219.503 66.0138 219.552 66.1882H219.55L219.566 66.2966C219.566 66.467 219.453 66.6295 219.278 66.6771L217.92 67.0629L217.703 66.3019L219.063 65.916H219.064L218.82 65.0651Z" fill="#F27673" />
    <path d="M180.544 73.9356L182.706 73.1601L183.571 75.5714L181.408 76.347C180.742 76.5848 180.009 76.2386 179.771 75.5727C179.532 74.9081 179.878 74.1748 180.544 73.9356Z" fill="#F27673" />
    <path d="M180.544 73.9358L180.842 74.7682L182.172 74.2926L182.439 75.0377L181.109 75.5134L180.976 75.5372C180.815 75.5359 180.66 75.4368 180.603 75.2743L180.58 75.1408C180.581 74.9796 180.68 74.825 180.842 74.7682L180.544 73.9358L180.245 73.1021C179.361 73.4205 178.809 74.2516 178.81 75.1408C178.81 75.3839 178.851 75.6323 178.937 75.8715C179.256 76.7554 180.087 77.3077 180.976 77.3064C181.219 77.3077 181.467 77.2654 181.707 77.1795L183.869 76.404C184.091 76.3247 184.27 76.1635 184.37 75.9494C184.472 75.7354 184.484 75.4962 184.403 75.2729L183.539 72.8616C183.374 72.4018 182.868 72.1627 182.408 72.3278L180.245 73.1021L180.544 73.9358Z" fill="#F27673" />
    <path d="M194.926 53.5076H194.925C184.867 55.8832 180.177 65.5866 182.485 75.3614L182.661 76.1093C184.969 85.8854 194.99 92.7388 203.402 90.6129L203.469 90.5785C210.061 88.59 219.573 77.449 217.265 67.6716L217.088 66.9264C214.781 57.1503 204.982 51.1345 194.926 53.5076Z" fill="#FAB484" />
    <path d="M194.926 53.5079V52.6319H194.822L194.723 52.6557C190.348 53.6863 186.899 56.0685 184.573 59.233C182.245 62.3961 181.03 66.3295 181.032 70.4691C181.032 72.1444 181.23 73.8542 181.633 75.5639V75.5626L181.809 76.3105C182.87 80.7988 185.47 84.6768 188.796 87.4422C192.121 90.2063 196.185 91.875 200.229 91.8777C201.367 91.8777 202.504 91.7443 203.616 91.4628L203.711 91.439L203.867 91.3598L203.47 90.5789L203.723 91.4179C206.947 90.4309 210.553 87.6086 213.45 83.8827C216.331 80.1527 218.487 75.4965 218.494 70.769C218.494 69.6671 218.375 68.5625 218.117 67.4711L217.94 66.7246C215.879 57.987 208.101 52.1113 199.335 52.1139C197.818 52.1139 196.273 52.2897 194.724 52.6557L194.926 53.5079V52.6319V53.5079L195.127 54.3601C196.545 54.0258 197.953 53.8659 199.335 53.8659C207.318 53.8699 214.364 59.1973 216.236 67.1276L216.413 67.8741C216.636 68.8254 216.742 69.7926 216.742 70.769C216.748 74.9482 214.781 79.3071 212.065 82.8098C209.364 86.3165 205.895 88.9471 203.217 89.7399L203.142 89.7636L203.004 89.8337L203.402 90.6132L203.187 89.765C202.221 90.0081 201.231 90.1257 200.229 90.1257C196.676 90.1296 192.968 88.6353 189.915 86.0945C186.861 83.5563 184.476 79.9889 183.513 75.9088L183.503 75.8612L183.339 75.1622L183.327 75.112L183.339 75.1609C182.965 73.5807 182.782 72.007 182.782 70.4691C182.784 66.6691 183.895 63.1096 185.984 60.2715C188.075 57.4347 191.136 55.3061 195.126 54.3601L194.925 53.5079V54.3839H194.926H195.028L195.127 54.3601L194.926 53.5079Z" fill="#FAB484" />
    <path d="M201.875 83.6057L202.615 83.4102C205.222 82.7165 206.776 80.0409 206.083 77.4314L195.897 80.136C196.59 82.7456 199.267 84.2981 201.875 83.6057Z" fill="white" />
    <path d="M202.418 71.8256C202.613 72.5641 203.226 73.0438 203.787 72.8958C204.347 72.7478 204.644 72.0291 204.45 71.2905C204.253 70.5506 203.641 70.0709 203.08 70.2202C202.521 70.3682 202.223 71.0856 202.418 71.8256Z" fill="#0D1120" />
    <path d="M194.5 73.9042C194.64 74.656 195.213 75.1805 195.784 75.0748C196.355 74.9691 196.703 74.2755 196.566 73.5237C196.426 72.7719 195.853 72.2473 195.282 72.353C194.711 72.4587 194.362 73.1524 194.5 73.9042Z" fill="#0D1120" />
    <path d="M199.132 77.2226L201.826 76.5963C202.158 76.5197 202.279 76.0374 202.053 75.6886L200.042 72.5849C199.785 72.1898 199.3 72.2797 199.217 72.7369L198.533 76.4668C198.457 76.8883 198.784 77.3019 199.132 77.2226Z" fill="#F27673" />
    <path d="M191.295 71.4633C190.67 72.1094 191.349 69.632 192.284 69.1801C193.221 68.7282 194.298 69.0176 194.689 69.8275C194.689 69.8275 192.797 69.9147 191.295 71.4633Z" fill="#0D1120" />
    <path d="M205.921 67.518C206.781 67.7744 204.978 65.9457 203.94 66.0105C202.901 66.0739 202.105 66.8534 202.16 67.7493C202.16 67.7493 203.851 66.9023 205.921 67.518Z" fill="#0D1120" />
    <path d="M179.879 68.8857L186.836 66.2485L186.799 60.2354L189.491 65.0237C189.491 65.0237 204.371 62.1711 210.318 60.2248L208.211 57.0987C208.211 57.0987 212.123 62.8925 214.81 63.3893C214.81 63.3893 214.402 46.4426 194.477 49.097C180.568 50.9494 177.284 65.2086 179.879 68.8857Z" fill="#7E3A27" />
    <path d="M174.574 197.567C167.431 213.103 163.986 217.306 159.523 236.138C154.346 257.977 155.443 287.389 152.423 309.346C149.335 331.811 149.69 329.92 144.478 354.923C137.994 386.02 116.952 419.534 100.77 449.377C101.974 451.227 127.254 466.021 135.078 470.955C159.657 439.916 178.466 404.776 188.044 365.535C195.31 335.767 197.304 304.72 198.98 276.082C199.18 272.646 204.1 272.572 204.395 276.002C206.847 304.675 196.741 421.662 199.481 470.425C203.662 470.425 235.596 471.57 241.614 471.57C245.603 423.736 245.298 402.985 247.634 351.048C249.952 299.501 255.626 249.473 223.859 197.543C204.643 198.014 190.397 197.882 174.574 197.567Z" fill="#F03F50" />
    <path d="M217.274 198.215C217.309 198.276 217.377 198.51 217.434 198.834C217.658 200.068 217.848 202.662 218.318 205.821C219.028 210.565 220.368 216.626 223.488 221.602C226.6 226.579 231.564 230.462 239.336 230.686L239.361 229.823C234.035 229.66 230.165 227.762 227.274 224.961C222.939 220.759 220.841 214.463 219.744 208.983C219.193 206.244 218.889 203.712 218.668 201.753C218.557 200.771 218.468 199.934 218.376 199.278C218.279 198.615 218.206 198.161 218.043 197.824L217.274 198.215Z" fill="white" />
    <path d="M183.597 197.824C183.485 198.053 183.424 198.321 183.358 198.681C183.12 200.011 182.937 202.56 182.469 205.694C181.771 210.386 180.438 216.345 177.422 221.144C174.397 225.942 169.763 229.589 162.28 229.823L162.305 230.686C167.826 230.523 171.944 228.52 174.969 225.579C179.509 221.166 181.625 214.709 182.744 209.153C183.303 206.373 183.608 203.815 183.83 201.849C183.941 200.866 184.031 200.031 184.119 199.397C184.201 198.769 184.308 198.313 184.366 198.215L183.597 197.824Z" fill="white" />
    <path d="M143.886 460.322L106.885 437.237L106.427 437.969L143.428 461.054" fill="white" />
    <path d="M193.809 338.726C193.641 338.627 193.522 338.628 193.4 338.624C193.018 338.629 192.512 338.767 191.806 339.027C189.368 339.944 184.832 342.469 180.871 347.042C176.912 351.612 173.551 358.242 173.553 367.278C173.552 373.759 175.278 381.47 179.711 390.547L180.486 390.168C176.098 381.183 174.416 373.605 174.416 367.278C174.419 357.201 178.675 350.27 183.2 345.822C185.462 343.601 187.792 342.008 189.68 340.973C190.623 340.457 191.455 340.08 192.109 339.834C192.754 339.588 193.252 339.481 193.4 339.487H193.423L193.468 339.255L193.341 339.452L193.423 339.487L193.468 339.255L193.341 339.452L193.809 338.726Z" fill="white" />
    <path d="M247.676 339.278C247.654 339.292 243.521 341.62 239.371 345.92C235.226 350.217 231.045 356.509 231.043 364.439C231.041 371.914 234.773 380.755 245.554 390.613L246.137 389.976C235.466 380.211 231.908 371.611 231.906 364.439C231.904 356.829 235.93 350.73 239.992 346.519C242.021 344.416 244.053 342.789 245.575 341.692C246.338 341.143 246.971 340.727 247.413 340.446C247.634 340.308 247.807 340.202 247.925 340.133L248.1 340.03L247.676 339.278Z" fill="white" />
    <path d="M166.213 215.229C167.073 213.024 168.016 210.772 169.048 208.484C169.143 208.505 169.233 208.525 169.328 208.546C168.201 210.87 167.177 213.021 166.213 215.229Z" fill="#D8DCE0" />
    <path d="M169.328 208.545C169.233 208.524 169.143 208.504 169.048 208.483C169.891 206.616 170.795 204.724 171.762 202.818L172.097 202.808L174.554 197.609C172.557 201.95 170.85 205.406 169.328 208.545Z" fill="#6C3223" />
    <path d="M157.268 252.884C157.268 252.884 157.992 236.279 166.213 215.229C167.177 213.021 168.201 210.87 169.328 208.546C170.85 205.406 172.557 201.95 174.554 197.609L183.562 197.903C183.472 198.116 183.418 198.361 183.359 198.681C183.121 200.012 182.937 202.56 182.47 205.694C181.772 210.386 180.439 216.345 177.422 221.144C174.398 225.943 169.764 229.59 162.28 229.823L162.306 230.686C167.827 230.524 171.944 228.521 174.97 225.58C179.51 221.166 181.625 214.709 182.744 209.153C183.303 206.373 183.609 203.816 183.83 201.849C183.941 200.866 184.031 200.031 184.12 199.397C184.202 198.77 184.309 198.314 184.367 198.216L183.766 197.909L217.464 199.009C217.592 199.788 217.712 201.004 217.886 202.506L157.268 252.884ZM218.679 201.847C218.676 201.815 218.672 201.785 218.669 201.753C218.558 200.771 218.468 199.935 218.377 199.278C218.365 199.195 218.353 199.114 218.341 199.038L221.92 199.154L218.679 201.847Z" fill="#E43849" />
    <path d="M217.886 202.506C217.712 201.003 217.592 199.788 217.464 199.008L218.341 199.037C218.353 199.114 218.365 199.195 218.377 199.278C218.468 199.935 218.558 200.771 218.669 201.753C218.673 201.784 218.677 201.815 218.679 201.846L217.886 202.506Z" fill="#D7DCE1" />
    <path d="M162.305 230.686L162.28 229.823C169.763 229.589 174.397 225.942 177.422 221.144C180.438 216.345 181.771 210.386 182.469 205.694C182.937 202.56 183.12 200.011 183.358 198.681C183.417 198.361 183.472 198.115 183.562 197.902L183.765 197.909L184.366 198.215C184.308 198.313 184.201 198.769 184.119 199.397C184.031 200.031 183.941 200.866 183.83 201.849C183.608 203.815 183.303 206.373 182.744 209.153C181.625 214.709 179.509 221.166 174.969 225.579C171.944 228.52 167.826 230.523 162.305 230.686Z" fill="#D7DCE1" />
    <path d="M223.306 131.178C219.602 191.065 310.271 187.084 310.271 187.084L330.162 186.318C349.506 191.37 358.183 190.159 358.183 190.159L345.496 187.025L363.552 187.108C364.037 187.103 362.598 186.245 362.124 186.153L347.462 183.278L365.682 182.305C366.091 182.284 366.126 181.692 365.722 181.623L347.406 178.501C347.406 178.501 364.823 177.225 363.033 176.205C361.241 175.185 340.717 173.866 340.717 173.866C340.717 173.866 353.224 169.355 351.197 168.519C349.881 167.975 341.434 169.991 335.673 171.471C331.963 172.425 331.819 173.64 327.989 173.084C327.989 173.084 297.643 170.944 274.16 160.651C260.399 154.619 252.649 143.823 245.029 134.243L223.306 131.178Z" fill="#FAB484" />
    <path d="M223.306 131.178L222.422 131.123C222.348 132.34 222.311 133.532 222.311 134.698C222.303 147.269 226.621 156.984 233.334 164.361C243.409 175.429 258.753 181.3 273.07 184.456C287.393 187.606 300.722 188.022 306.823 188.024C309.036 188.024 310.298 187.968 310.31 187.968H310.305L330.197 187.203L330.162 186.318L329.939 187.175C343.076 190.607 351.353 191.171 355.379 191.171C357.31 191.171 358.263 191.041 358.304 191.036C358.726 190.977 359.044 190.629 359.066 190.205C359.088 189.781 358.807 189.402 358.394 189.3L352.907 187.944L363.547 187.993H363.563C363.671 187.986 363.806 187.99 364.033 187.881C364.143 187.824 364.28 187.722 364.383 187.565C364.489 187.41 364.536 187.212 364.535 187.059C364.531 186.82 364.46 186.682 364.41 186.587C364.308 186.414 364.227 186.346 364.152 186.27C363.894 186.04 363.604 185.866 363.28 185.686C363.119 185.6 362.958 185.52 362.799 185.451C362.636 185.382 362.492 185.324 362.296 185.283L354.631 183.781L365.728 183.189C366.06 183.177 366.398 183.008 366.598 182.765C366.802 182.522 366.891 182.239 366.892 181.96C366.891 181.705 366.816 181.438 366.636 181.206C366.46 180.971 366.168 180.797 365.871 180.751L347.554 177.629L347.406 178.501L347.471 179.384C347.476 179.384 351.42 179.094 355.376 178.679C357.355 178.472 359.335 178.234 360.846 177.982C361.605 177.854 362.24 177.726 362.734 177.581C362.983 177.508 363.194 177.435 363.408 177.32C363.515 177.26 363.629 177.192 363.757 177.061C363.878 176.937 364.045 176.695 364.046 176.355C364.049 176.081 363.922 175.841 363.806 175.708C363.686 175.569 363.573 175.495 363.47 175.436C363.223 175.3 362.998 175.234 362.713 175.154C361.669 174.882 359.846 174.632 357.609 174.38C350.926 173.635 340.781 172.983 340.773 172.983L340.716 173.866L341.016 174.698C341.024 174.696 343.708 173.729 346.41 172.598C347.762 172.031 349.115 171.427 350.164 170.867C350.689 170.584 351.137 170.318 351.497 170.044C351.678 169.904 351.838 169.765 351.986 169.585C352.123 169.407 352.294 169.172 352.304 168.766C352.309 168.507 352.19 168.216 352.027 168.041C351.865 167.861 351.692 167.767 351.535 167.701C351.168 167.558 350.861 167.549 350.482 167.542C349.762 167.544 348.821 167.66 347.689 167.846C344.31 168.405 339.294 169.627 335.453 170.613C333.853 171.024 332.848 171.498 332.056 171.825C331.254 172.148 330.711 172.332 329.696 172.339C329.266 172.339 328.752 172.3 328.117 172.208L328.052 172.201C328.049 172.201 327.588 172.168 326.719 172.09C320.636 171.549 294.88 168.774 274.515 159.839C261.009 153.924 253.362 143.308 245.722 133.691C245.581 133.514 245.376 133.398 245.153 133.366L223.428 130.302C223.185 130.268 222.937 130.337 222.745 130.493C222.555 130.648 222.437 130.878 222.422 131.123L223.306 131.178L223.183 132.054L244.906 135.118L245.029 134.242L244.336 134.793C251.935 144.34 259.788 155.314 273.805 161.461C297.492 171.834 327.879 173.957 327.927 173.966L327.989 173.084L327.862 173.96C328.562 174.062 329.161 174.109 329.696 174.109C330.963 174.114 331.877 173.816 332.728 173.46C333.587 173.108 334.431 172.705 335.894 172.328C338.439 171.674 341.509 170.916 344.243 170.322C345.61 170.026 346.893 169.771 347.978 169.592C349.059 169.412 349.955 169.312 350.482 169.313C350.617 169.313 350.724 169.32 350.794 169.327L350.865 169.339L350.873 169.342L350.925 169.177L350.859 169.337L350.873 169.342L350.925 169.177L350.859 169.337L351.029 168.926L350.703 169.215L350.859 169.337L351.029 168.926L350.703 169.215L351.21 168.766H350.534C350.528 168.923 350.612 169.123 350.703 169.215L351.21 168.766H350.534H351.12L350.585 168.518C350.565 168.56 350.535 168.643 350.534 168.766H351.12L350.585 168.518L350.793 168.613L350.613 168.469L350.585 168.518L350.793 168.613L350.613 168.469C350.597 168.499 350.374 168.695 350.045 168.895C348.871 169.635 346.422 170.7 344.318 171.542C343.263 171.965 342.286 172.339 341.574 172.606C340.861 172.874 340.418 173.034 340.417 173.034C340.022 173.176 339.782 173.575 339.841 173.99C339.9 174.406 340.241 174.722 340.66 174.75C340.664 174.75 341.939 174.832 343.889 174.971C346.812 175.179 351.242 175.518 355.097 175.897C357.025 176.087 358.81 176.288 360.182 176.486C360.866 176.585 361.449 176.684 361.882 176.777C362.097 176.823 362.277 176.868 362.405 176.906L362.555 176.958L362.592 176.972L362.598 176.975L362.629 176.914L362.596 176.974L362.598 176.975L362.629 176.914L362.596 176.974L362.858 176.51L362.455 176.852L362.594 176.974L362.858 176.51L362.455 176.852L363.041 176.355H362.277C362.274 176.58 362.38 176.77 362.455 176.852L363.041 176.355H362.277H363.018L362.477 175.839C362.414 175.899 362.278 176.079 362.277 176.355H363.018L362.477 175.839L362.843 176.188L362.547 175.777L362.477 175.839L362.843 176.188L362.547 175.777L362.642 175.907L362.562 175.766L362.547 175.777L362.642 175.907L362.562 175.766C362.529 175.794 362.148 175.926 361.646 176.03C359.841 176.425 356.226 176.832 353.111 177.127C351.551 177.276 350.107 177.398 349.054 177.484C348.001 177.57 347.343 177.618 347.341 177.618C346.893 177.652 346.543 178.011 346.522 178.459C346.501 178.907 346.814 179.298 347.257 179.373L365.572 182.495L365.665 181.958L365.237 182.288L365.572 182.495L365.665 181.958L365.237 182.288L365.661 181.96H365.122L365.237 182.288L365.661 181.96H365.122H365.653L365.251 181.617L365.122 181.96H365.653L365.251 181.617L365.663 181.968L365.634 181.422L365.251 181.617L365.663 181.968L365.634 181.422L347.414 182.394C346.969 182.417 346.609 182.77 346.579 183.215C346.547 183.659 346.854 184.06 347.291 184.146L361.953 187.021C362.042 187.043 362.396 187.207 362.644 187.362C362.771 187.437 362.884 187.515 362.932 187.556L362.954 187.573L363.211 187.296L362.905 187.513L362.954 187.573L363.211 187.296L362.905 187.513L363.543 187.059H362.765C362.778 187.363 362.874 187.459 362.905 187.513L363.543 187.059H362.765H363.613L362.905 186.594C362.807 186.737 362.762 186.922 362.765 187.059H363.613L362.905 186.594L363.596 187.048L363.346 186.256C363.244 186.289 363.053 186.372 362.905 186.594L363.596 187.048L363.346 186.256L363.548 186.899L363.54 186.223L363.346 186.256L363.548 186.899L363.54 186.223L363.552 187.108L363.556 186.223L345.5 186.139C345.052 186.138 344.674 186.471 344.618 186.916C344.563 187.362 344.848 187.776 345.284 187.883L357.97 191.018L358.182 190.159L358.06 189.283L358.033 189.285C357.868 189.306 357 189.402 355.379 189.402C351.519 189.402 343.393 188.86 330.385 185.462L330.128 185.434L310.236 186.199H310.232C310.231 186.199 309.932 186.212 309.351 186.227C308.769 186.24 307.915 186.253 306.823 186.253C298.799 186.257 277.963 185.506 259.253 178.641C249.897 175.212 241.087 170.26 234.645 163.17C228.203 156.074 224.086 146.865 224.08 134.698C224.08 133.569 224.115 132.414 224.188 131.233L223.306 131.178L223.183 132.054L223.306 131.178Z" fill="#FAB484" />
    <path d="M279.67 185.738C277.143 185.459 274.061 184.996 271.983 184.269L272.016 184.219C272.367 184.299 272.719 184.379 273.07 184.457C275.302 184.947 277.51 185.372 279.67 185.738Z" fill="#C2C3CD" />
    <path d="M283.689 184.576C280.276 184.085 276.701 183.453 273.068 182.643L284.515 165.502C284.811 165.599 285.109 165.695 285.405 165.789L285.181 169.12L283.689 184.576Z" fill="#C28E72" />
    <path d="M283.544 186.077C282.824 186.031 281.373 185.927 279.67 185.738C277.51 185.372 275.302 184.946 273.07 184.456C272.719 184.378 272.367 184.299 272.016 184.218L273.068 182.643C276.7 183.453 280.275 184.085 283.688 184.576L283.544 186.077ZM285.404 165.789C285.108 165.695 284.81 165.599 284.514 165.502L285.465 164.078C285.484 164.083 285.502 164.09 285.519 164.095L285.404 165.789Z" fill="#C28E72" />
    <path d="M173.154 148.566L165.24 173.793C161.543 186.711 152.571 195.566 139.279 193.596L73.3188 182.708L49.0179 185.497L47.949 183.841L72.0305 168.706L78.991 170.33L132.286 170.302C137.493 170.299 142.139 167.036 143.908 162.139L159.332 122.135L173.154 148.566Z" fill="#FAB484" />
    <path d="M173.155 148.566L172.31 148.302L164.396 173.529L164.389 173.55C162.748 179.287 160.053 184.164 156.446 187.581C152.833 190.996 148.334 192.981 142.904 192.986C141.78 192.986 140.614 192.9 139.409 192.722L139.28 193.597L139.424 192.723L73.4631 181.836L73.2186 181.829L49.4634 184.555L49.1794 184.114L72.1894 169.651L78.7904 171.192L78.9926 171.215L132.288 171.188C137.866 171.184 142.845 167.688 144.741 162.441L143.908 162.14L144.734 162.458L159.454 124.278L172.37 148.977L173.155 148.566L172.31 148.302L173.155 148.566L173.939 148.157L160.118 121.726C159.956 121.418 159.629 121.233 159.282 121.253C158.936 121.273 158.632 121.493 158.507 121.817L143.082 161.821L143.076 161.838C141.433 166.385 137.119 169.415 132.286 169.417L79.093 169.445L72.2317 167.845C72.0018 167.791 71.7599 167.832 71.5591 167.957L47.4789 183.092C47.2781 183.218 47.1367 183.419 47.0852 183.65C47.0349 183.881 47.0785 184.123 47.2067 184.321L48.2756 185.977C48.4566 186.259 48.7856 186.414 49.1199 186.376L73.2979 183.602L139.136 194.47L139.15 194.472C140.437 194.663 141.688 194.757 142.904 194.757C148.777 194.762 153.771 192.561 157.663 188.865C161.56 185.169 164.381 180.007 166.091 174.038L165.24 173.793L166.084 174.059L173.999 148.832C174.07 148.606 174.048 148.365 173.939 148.157L173.155 148.566Z" fill="#FAB484" />
    <path d="M167.005 165.209L153.17 140.579L153.509 139.698L170.455 154.215L167.005 165.209Z" fill="#C28E72" />
    <path d="M168.141 167.232L167.005 165.209L170.455 154.214L171.771 155.343L171.785 155.717L168.141 167.232ZM153.17 140.579L152.123 138.717L152.751 139.049L153.509 139.698L153.17 140.579Z" fill="#C28E72" />
    <path d="M213.361 114.169C210.05 119.485 199.405 123.841 189.037 108.181C189.037 108.181 172.258 97.4303 160.126 117.344C149.174 135.318 149.051 135.878 149.051 135.878L171.772 155.343L173.348 197.57L238.496 199.694C238.496 199.694 231.559 169.547 232.779 164.666C232.984 163.849 252.789 131.383 252.789 131.383C252.789 131.383 226.809 92.5785 213.361 114.169Z" fill="#4285F4" />
    <path d="M172.871 182.317L233.854 183.951L233.878 183.088L172.895 181.455" fill="white" />
    <path d="M363.892 240.307L425.662 481.87L400.001 481.204L327.737 317.503C325.446 310.563 317.761 310.633 315.304 317.503L273.691 482.207L245.272 481.763C245.272 481.763 262.566 343.456 281.598 237.915L363.892 240.307Z" fill="#36373A" />
    <path d="M363.892 240.307L362.967 240.543L424.424 480.883L400.632 480.266L328.612 317.118L327.737 317.503L328.645 317.203C328.024 315.323 327.017 313.861 325.778 312.87C324.541 311.879 323.074 311.367 321.601 311.369C318.625 311.362 315.727 313.44 314.404 317.182L314.388 317.225L272.95 481.24L245.287 480.808L245.272 481.763L246.22 481.882C246.221 481.875 246.491 479.723 247.001 475.735C250.569 447.827 265.892 330.396 282.539 238.084L281.598 237.915L281.57 238.869L363.865 241.262L363.892 240.307L362.967 240.543L363.892 240.307L363.92 239.351L280.804 236.936L280.657 237.745C261.619 343.325 244.326 481.636 244.325 481.645L244.192 482.702L274.433 483.174L316.23 317.737L315.304 317.503L316.204 317.826C317.345 314.677 319.536 313.286 321.601 313.279C322.637 313.281 323.666 313.629 324.584 314.361C325.5 315.095 326.307 316.223 326.829 317.803L326.844 317.847L399.372 482.143L426.901 482.858L364.64 239.373L363.92 239.351L363.892 240.307Z" fill="#1D3151" />
    <path d="M346.714 238.355L346.61 238.367L346.319 238.609L346.281 238.789L346.293 238.894C346.319 239.026 346.401 239.329 346.553 239.876C351.21 256.594 417.623 482.578 417.623 482.581L418.451 482.338C418.451 482.338 400.621 421.662 382.789 360.866C373.873 330.468 364.958 300.04 358.271 277.15C354.929 265.706 352.142 256.146 350.192 249.417C349.217 246.053 348.45 243.397 347.928 241.567C347.667 240.652 347.467 239.943 347.332 239.458C347.265 239.215 347.215 239.028 347.182 238.901L347.145 238.757L347.14 238.729L346.83 238.789H347.144L347.14 238.729L346.83 238.789H347.144H346.715L347.031 239.078C347.166 238.909 347.137 238.808 347.144 238.789H346.715L347.031 239.078L346.714 238.787L346.817 239.206L347.031 239.078L346.714 238.787L346.817 239.206L346.714 238.791V239.218L346.817 239.206L346.714 238.791V239.218V238.355Z" fill="white" />
    <path d="M256.481 482.656L297.727 236.815L296.876 236.673L255.63 482.513" fill="white" />
    <path d="M445.75 61.5082L437.533 83.1361C431.933 97.1033 417.874 111.51 404.88 106.796L363.371 91.7389C358.67 89.4663 353.78 87.8491 349.169 87.4157C348.878 87.3113 348.707 87.2571 348.707 87.2571L337.342 81.6893L312.526 86.3798L303.729 92.936C281.641 97.1667 234.724 112.023 234.724 112.023C244.419 118.887 252.79 131.384 252.79 131.384C252.79 131.384 250.968 134.37 248.432 138.542C255.069 146.905 262.43 155.509 274.161 160.651C276.845 161.829 282.317 163.121 285.66 164.138L277.24 251.436L368.685 252.909C368.685 252.909 382.626 190.797 385.296 151.077L386.924 151.694C408.267 159.185 431.765 151.577 447.913 133.31C461.091 118.405 467.594 70.5919 467.594 70.5919L445.75 61.5082Z" fill="#34A853" />
    <path d="M285.66 164.137C285.613 164.123 285.567 164.108 285.52 164.095C285.502 164.09 285.484 164.083 285.465 164.078C282.108 163.071 276.793 161.805 274.161 160.65C262.429 155.508 255.068 146.904 248.431 138.541C250.967 134.369 252.789 131.383 252.789 131.383L285.66 164.137Z" fill="#1F6532" />
    <path d="M368.685 252.909L368.101 252.904L368.1 252.9L368.685 252.909Z" fill="#C2C3CD" />
    <path d="M366.122 252.886L351.157 252.747C351.145 252.707 351.134 252.666 351.123 252.625L366.118 252.867L366.122 252.886ZM350.256 252.739L326.06 252.517L326.232 252.224L350.219 252.611C350.232 252.653 350.244 252.697 350.256 252.739Z" fill="#182847" />
    <path d="M368.101 252.903L366.123 252.886L366.119 252.867L368.099 252.899L368.101 252.903Z" fill="#182847" />
    <path d="M351.158 252.747L350.257 252.739C350.245 252.697 350.233 252.653 350.219 252.611L351.123 252.626C351.134 252.666 351.146 252.707 351.158 252.747Z" fill="#C2C3CD" />
    <path d="M383.678 168.026C384.373 162.153 384.93 156.481 385.288 151.197L385.304 151.168C385 156.188 384.429 161.913 383.678 168.026Z" fill="#C2C3CD" />
    <path d="M368.684 252.909L368.098 252.9L366.118 252.868L351.123 252.626L350.219 252.612L326.231 252.225L385.287 151.197C384.929 156.481 384.373 162.153 383.678 168.027C379.286 203.763 368.698 252.847 368.684 252.909Z" fill="#1F6532" />
    <path d="M336.061 60.0206L339.775 87.0288C339.775 87.0288 304.091 115.793 306.19 92.6627L310.708 60.9693L336.061 60.0206Z" fill="#DF6F54" />
    <path d="M333.693 32.068L336.82 61.9037C336.82 61.9037 307.12 98.7065 309.73 62.7387L316.042 31.2131L333.693 32.068Z" fill="#0D1120" />
    <path d="M302.675 45.0723L307.829 43.6203L309.03 49.7629L303.874 51.2149C302.287 51.6615 300.732 50.6494 300.402 48.9516C300.069 47.2564 301.086 45.5189 302.675 45.0723Z" fill="#DF6F54" />
    <path d="M302.674 45.0719L302.912 45.9122L307.152 44.7178L308.018 49.1388L303.638 50.3729C303.459 50.4231 303.286 50.4456 303.12 50.4456C302.255 50.4416 301.472 49.8338 301.259 48.7847V48.7833C301.228 48.6235 301.212 48.4623 301.212 48.3024C301.206 47.2031 301.948 46.1699 302.911 45.9122L302.674 45.0719L302.438 44.2302C300.63 44.7521 299.47 46.4632 299.464 48.3024C299.464 48.5733 299.49 48.8481 299.544 49.1203L299.543 49.119C299.884 50.9199 301.386 52.1976 303.12 52.1936C303.447 52.1936 303.782 52.1487 304.112 52.0549L310.042 50.3847L308.504 42.5205L302.438 44.2302L302.674 45.0719Z" fill="#DF6F54" />
    <path d="M303.136 46.625L305.264 46.0251L305.76 48.562L303.631 49.1605C302.977 49.3455 302.334 48.928 302.198 48.2277C302.06 47.5274 302.48 46.81 303.136 46.625Z" fill="#B3492F" />
    <path d="M343.384 43.4323L338.132 44.1471L337.698 37.8447L342.951 37.1311C344.568 36.9105 345.976 38.1432 346.095 39.8833C346.214 41.6235 345.001 43.2129 343.384 43.4323Z" fill="#DF6F54" />
    <path d="M343.385 43.4323L343.267 42.5669L338.942 43.1548L338.627 38.6004L343.069 37.9966L343.324 37.9794C344.289 37.9807 345.131 38.7444 345.224 39.9428V39.9441L345.23 40.1212C345.231 40.7343 345.009 41.3196 344.647 41.7622C344.284 42.2062 343.797 42.4955 343.267 42.5669L343.385 43.4323L343.503 44.299C344.516 44.1616 345.389 43.6172 346 42.8681C346.612 42.1189 346.978 41.1531 346.978 40.1212L346.967 39.8239H346.968C346.842 37.8129 345.272 36.23 343.324 36.2313C343.162 36.2313 342.998 36.2419 342.833 36.2657L336.772 37.0889L337.326 45.1394L343.503 44.299L343.385 43.4323Z" fill="#DF6F54" />
    <path d="M343.169 39.1465L340.998 39.4016L341.137 42.0084L343.306 41.7534C343.975 41.6741 344.486 41.0267 344.448 40.3066C344.41 39.5879 343.837 39.0672 343.169 39.1465Z" fill="#B3492F" />
    <path d="M323.454 66.7179L323.342 66.7443C310.955 67.2663 305.691 58.9277 305.486 48.376L305.47 47.5687C305.267 37.017 310.993 20.143 320.77 19.374L320.743 19.2617C330.52 18.4927 340.677 34.2344 340.88 44.7861L340.896 45.5921C341.1 56.1451 337.358 65.8247 323.454 66.7179Z" fill="#DF6F54" />
    <path d="M323.454 66.7175L323.25 65.8679L323.137 65.8957L323.342 66.7439L323.305 65.8719C322.948 65.8864 322.598 65.893 322.253 65.893C316.65 65.8825 312.822 63.9613 310.268 60.8576C307.718 57.7474 306.456 53.3449 306.361 48.3584L306.345 47.5511C306.341 47.3754 306.34 47.197 306.34 47.0173C306.335 41.8815 307.74 35.2421 310.304 29.8883C311.581 27.2101 313.148 24.8556 314.929 23.1564C316.714 21.4533 318.682 20.4148 320.838 20.2443L321.86 20.1651L321.593 19.0565L320.743 19.2613L320.812 20.1321C321.019 20.1162 321.228 20.1082 321.437 20.1082C323.589 20.1056 325.821 20.9724 327.976 22.4918C331.205 24.7657 334.209 28.4918 336.39 32.5851C338.576 36.6744 339.941 41.135 340.007 44.8028L340.023 45.6088C340.027 45.8704 340.03 46.1308 340.03 46.3924C340.032 51.4053 339.066 56.0852 336.552 59.5549C334.036 63.0193 329.989 65.4094 323.397 65.8454L323.322 65.8507L323.25 65.8679L323.454 66.7175L323.51 67.5895C330.47 67.1548 335.149 64.5004 337.97 60.5789C340.792 56.6639 341.775 51.6154 341.778 46.3924C341.778 46.1202 341.775 45.848 341.77 45.5745L341.755 44.7685C341.639 39.3592 339.106 32.8731 335.38 27.6382C333.512 25.0247 331.341 22.7283 328.982 21.0635C326.627 19.4027 324.063 18.3615 321.437 18.3602C321.183 18.3602 320.929 18.3694 320.674 18.3906L319.653 18.4699L319.921 19.5784L320.771 19.3736L320.702 18.5016C318.054 18.709 315.706 19.9933 313.722 21.892C310.741 24.7472 308.49 28.9964 306.946 33.5416C305.41 38.0894 304.593 42.9346 304.592 47.0173C304.592 47.2089 304.593 47.3978 304.597 47.5854L304.613 48.3914C304.716 53.6422 306.033 58.4371 308.915 61.9649C311.794 65.4966 316.249 67.653 322.253 67.6411C322.623 67.6411 322.997 67.6345 323.379 67.6173L323.463 67.6146L323.659 67.5671L323.454 66.7175L323.51 67.5895L323.454 66.7175Z" fill="#DF6F54" />
    <path d="M324.364 59.8312L324.351 59.8326C320.046 60.2184 316.476 57.519 316.375 53.8049L316.362 53.2962L331.961 51.897L331.976 52.407C332.076 56.1211 328.667 59.4454 324.364 59.8312Z" fill="white" />
    <path d="M319.678 44.1251C319.681 44.8954 319.228 45.5216 318.662 45.5243C318.098 45.5256 317.638 44.9033 317.636 44.1317C317.633 43.3614 318.087 42.7351 318.652 42.7325C319.216 42.7311 319.676 43.3548 319.678 44.1251Z" fill="#0D1120" />
    <path d="M328.867 43.1419C328.864 43.9161 328.403 44.5411 327.839 44.5384C327.275 44.5358 326.82 43.9069 326.823 43.1339C326.827 42.361 327.285 41.736 327.851 41.7387C328.415 41.74 328.869 42.3689 328.867 43.1419Z" fill="#0D1120" />
    <path d="M325.539 49.8172L321.913 50.0088C321.465 50.0326 321.139 49.4829 321.297 48.9769L322.71 44.4515C322.889 43.8754 323.534 43.8133 323.805 44.3445L326.018 48.677C326.268 49.1658 326.005 49.7921 325.539 49.8172Z" fill="#B3492F" />
    <path d="M313.85 40.2088C312.846 41.0782 314.164 37.5161 315.602 36.9704C317.042 36.4261 318.591 36.9903 319.062 38.2336C319.062 38.2336 316.264 38.1199 313.85 40.2088Z" fill="#0D1120" />
    <path d="M330.659 37.4609C331.837 38.0793 329.742 34.9108 328.215 34.706C326.69 34.5026 325.311 35.405 325.134 36.7223C325.134 36.7223 327.833 35.9758 330.659 37.4609Z" fill="#0D1120" />
    <path d="M338.173 24.9856C338.055 24.7095 337.929 24.4505 337.803 24.1955C339.059 23.6234 339.81 23.2415 339.81 23.2415C339.81 23.2415 338.334 2.21869 335.937 1.89497C334.996 1.76813 309.229 7.83015 302.728 24.9261C302.552 25.3912 302.585 25.8352 302.774 26.2553C302.613 26.5962 302.464 26.9437 302.333 27.2991C301.364 29.9285 301.232 32.8181 301.618 35.5452C301.8 36.8414 304.155 44.259 305.365 44.3779C305.912 44.4321 308.863 34.8357 310.636 29.5612C313.589 29.943 317.06 29.9681 320.547 29.5017C324.508 28.9705 328.47 27.8118 331.77 26.6345C334.256 29.9853 339.506 36.6868 340.383 36.7211C341.225 36.7542 338.955 26.7997 338.173 24.9856Z" fill="#0D1120" />
    <path d="M44.0331 196.344L89.5483 205.762C89.5483 205.762 103.414 205.262 146.203 477.015L117.664 478.267L63.5311 272.719C62.7476 269.742 58.3517 270.355 58.4152 273.433L68.289 478.515L38.3926 476.264C38.3926 476.264 2.4341 269.071 16.4475 236.04C30.461 203.01 44.0331 196.344 44.0331 196.344Z" fill="#1D3151" />
    <path d="M18.0774 232.378C18.1078 232.39 22.4865 234.249 28.1548 234.251C34.0186 234.262 41.316 232.217 46.3817 224.04C56.2014 208.22 58.9391 199.474 58.951 199.438L58.1266 199.182C58.1266 199.182 58.0869 199.309 57.9944 199.573C57.351 201.427 54.2076 209.795 45.6484 223.585C40.7412 231.475 33.8376 233.378 28.1548 233.389C25.4158 233.389 22.9727 232.935 21.2181 232.482C20.3407 232.256 19.6365 232.029 19.1529 231.86C18.9111 231.775 18.7235 231.705 18.5993 231.656C18.4738 231.609 18.4143 231.582 18.4143 231.582L18.0774 232.378Z" fill="white" />
    <path d="M74.4431 203.139C74.4444 203.151 74.784 211.469 76.4581 220.253C77.2957 224.644 78.4664 229.154 80.1087 232.817C81.7537 236.47 83.8664 239.323 86.7164 240.284C94.8753 243.005 99.8578 243.333 101.78 243.331C102.371 243.333 102.673 243.301 102.688 243.3L102.598 242.441C102.597 242.441 102.541 242.447 102.405 242.455C102.269 242.462 102.06 242.468 101.78 242.468C99.9556 242.468 95.0682 242.159 86.9899 239.467C84.531 238.658 82.4923 236.033 80.8962 232.462C78.4954 227.121 77.087 219.765 76.2929 213.761C75.8939 210.758 75.6468 208.092 75.5001 206.177C75.3522 204.263 75.3059 203.108 75.3046 203.104L74.4431 203.139Z" fill="white" />
    <path d="M86.4314 239.964L136.414 477.056L137.258 476.878L87.2757 239.786" fill="white" />
    <path d="M28.7064 233.651L49.942 477.042L50.8008 476.968L29.5666 233.576L28.7064 233.651Z" fill="white" />
    <path d="M13.7585 249.546C13.8167 238.997 18.7952 228.264 24.6974 219.229C22.035 223.883 19.2498 229.436 16.4474 236.04C15.138 239.126 14.2659 243.73 13.7585 249.546Z" fill="#7F8DA0" />
    <path d="M13.8893 252.671C13.7955 251.633 13.7532 250.59 13.7585 249.546C14.2659 243.73 15.1379 239.126 16.4473 236.04C19.2497 229.436 22.035 223.883 24.6973 219.229C33.3675 205.956 44.0328 196.343 44.0328 196.343L58.1031 199.256C58.0819 199.319 58.0476 199.425 57.9948 199.573C57.3513 201.426 54.208 209.794 45.6487 223.584C40.7415 231.475 33.8379 233.377 28.1551 233.388C25.4161 233.388 22.9731 232.935 21.2184 232.482C20.3411 232.256 19.6369 232.028 19.1533 231.859C18.9115 231.775 18.7238 231.705 18.5996 231.656C18.4741 231.608 18.4147 231.582 18.4147 231.582L18.0777 232.377C18.1081 232.389 22.4868 234.248 28.1551 234.251C28.1709 234.251 28.1855 234.251 28.2014 234.251C28.385 234.251 28.5713 234.248 28.7576 234.244L29.52 242.979L13.8893 252.671ZM30.3418 242.47L29.6217 234.21C35.1975 233.886 41.7299 231.547 46.3821 224.04C56.2018 208.219 58.9395 199.474 58.9514 199.438L58.8787 199.415L89.5481 205.761L76.3195 213.964C76.3102 213.895 76.301 213.828 76.2931 213.76C75.8941 210.757 75.647 208.091 75.5003 206.176C75.3523 204.262 75.3061 203.107 75.3048 203.103L74.4433 203.139C74.4446 203.178 74.6507 208.154 75.5162 214.461L30.3418 242.47Z" fill="#111D2F" />
    <path d="M28.201 234.251C28.1852 234.251 28.1706 234.251 28.1548 234.251C22.4865 234.249 18.1078 232.39 18.0774 232.378L18.4143 231.582C18.4143 231.582 18.4738 231.609 18.5993 231.656C18.7235 231.705 18.9111 231.775 19.1529 231.86C19.6365 232.029 20.3407 232.256 21.2181 232.482C22.9727 232.935 25.4158 233.389 28.1548 233.389C33.8376 233.378 40.7412 231.475 45.6484 223.585C54.2076 209.795 57.351 201.427 57.9944 199.573C58.0473 199.425 58.0816 199.32 58.1027 199.256L58.8783 199.416L58.951 199.438C58.9391 199.474 56.2014 208.22 46.3817 224.041C41.7295 231.548 35.1972 233.887 29.6214 234.21L29.5659 233.576L28.7057 233.651L28.7573 234.245C28.571 234.249 28.3847 234.251 28.201 234.251Z" fill="#7F8CA0" />
    <path d="M75.516 214.461C74.6505 208.154 74.4444 203.178 74.4431 203.139L75.3046 203.103C75.3059 203.107 75.3522 204.262 75.5001 206.176C75.6468 208.091 75.8939 210.757 76.2929 213.761C76.3008 213.828 76.3101 213.895 76.3193 213.964L75.516 214.461Z" fill="#7F8CA0" />
    <path d="M29.5203 242.979L28.758 234.245L28.7064 233.651L29.5666 233.576L29.6221 234.21L30.3422 242.471L29.5203 242.979Z" fill="#7F8CA0" />
    <path d="M53.7983 62.3468C54.8949 56.9692 58.1333 46.8906 66.826 44.6827C75.2386 42.5462 81.3296 43.2333 90.3051 47.5578C102.042 53.2142 109.445 90.7053 109.445 90.7053C109.445 90.7053 93.7655 108.006 50.0789 91.1374C50.0789 91.1374 52.3501 69.4579 53.7983 62.3468Z" fill="#0D1120" />
    <path d="M47.7312 88.9673C49.4237 75.5286 52.8696 58.0455 65.1112 50.2341C66.8698 49.1124 65.2407 46.2954 63.4689 47.4264C50.0778 55.9724 46.328 74.2919 44.4796 88.9673C44.2179 91.0377 47.4722 91.0192 47.7312 88.9673Z" fill="#0D1120" />
    <path d="M60.9369 82.7142C60.9369 82.7142 56.7617 115.233 56.3495 117.847C56.3495 117.847 70.4448 134.656 84.8626 120.201C84.8626 120.201 82.4235 112.316 77.9893 92.012L60.9369 82.7142Z" fill="#F8A16A" />
    <path d="M60.9376 82.714L60.0048 82.595C60.0035 82.599 59.7432 84.6272 59.3455 87.7163C58.7496 92.35 57.8445 99.362 57.0504 105.46C56.2576 111.552 55.5706 116.758 55.4213 117.7C55.379 117.97 55.4543 118.243 55.63 118.45C55.6631 118.49 57.4296 120.596 60.3827 122.721C63.3317 124.839 67.4898 127.002 72.3191 127.007C76.4718 127.015 81.0606 125.358 85.5292 120.864C85.7749 120.619 85.8648 120.255 85.7617 119.924C85.7617 119.922 85.726 119.807 85.6507 119.556C85.1314 117.796 82.7849 109.56 78.9083 91.8123C78.8501 91.5454 78.6784 91.3168 78.4392 91.186L61.3882 81.8882C61.1147 81.7402 60.787 81.7349 60.5095 81.8763C60.2321 82.019 60.0444 82.2859 60.0048 82.595L60.9376 82.714L60.487 83.5398L77.5394 92.8376L77.99 92.0118L77.0704 92.2126C81.5098 112.538 83.9542 120.447 83.9648 120.479L84.8632 120.201L84.1973 119.537C79.9956 123.736 75.9724 125.119 72.3191 125.127C68.0725 125.132 64.2461 123.186 61.4806 121.193C60.0986 120.201 58.9874 119.204 58.2264 118.458C57.8458 118.087 57.5525 117.778 57.3569 117.564L57.1376 117.319L57.0848 117.259L57.0716 117.243L56.3502 117.847L57.279 117.993C57.3873 117.308 57.7229 114.8 58.1735 111.378C59.5212 101.126 61.8704 82.8342 61.8704 82.8342L60.9376 82.714L60.487 83.5398L60.9376 82.714Z" fill="#F8A16A" />
    <path d="M72.3287 127.765C72.3287 127.765 70.9573 134.659 85.375 120.204C85.375 120.204 84.1911 113.675 83.2266 109.995L72.3287 127.765Z" fill="#0D1120" />
    <path d="M79.0946 92.303C77.924 96.5549 70.6556 100.103 66.6363 99.2503C61.7423 98.2118 59.5715 89.4887 60.0326 85.8883C60.421 82.8599 68.8032 81.2308 72.7644 82.3235C76.7242 83.4162 80.2679 88.0499 79.0946 92.303Z" fill="#0D1120" />
    <path d="M54.6582 66.5065L60.3013 67.4922L59.2034 73.7854L53.5589 72.7997C51.8201 72.4958 50.6587 70.8416 50.9613 69.1041C51.2652 67.3653 52.9194 66.2026 54.6582 66.5065Z" fill="#F8A16A" />
    <path d="M54.6579 66.506L54.5007 67.4071L59.2428 68.2356L58.4592 72.7266L53.7159 71.8981C52.6086 71.7066 51.8277 70.7394 51.8277 69.6559C51.8277 69.5265 51.8383 69.3943 51.8621 69.2622L51.8753 69.1829V69.1037H50.961L51.8621 69.2609C52.0537 68.1537 53.0209 67.3728 54.1043 67.3728C54.2338 67.3728 54.3659 67.3833 54.5007 67.4071L54.6579 66.506L54.8152 65.6049C54.5773 65.564 54.3395 65.5428 54.1043 65.5428C52.1409 65.5428 50.4114 66.95 50.0599 68.9451L50.0467 69.023V69.1037H50.961L50.0599 68.9451C50.0176 69.1843 49.9978 69.4221 49.9978 69.6559C49.9978 71.6194 51.4036 73.3502 53.4014 73.7004L59.947 74.8433L61.3594 66.7478L54.8152 65.6049L54.6579 66.506Z" fill="#F8A16A" />
    <path d="M54.142 68.1409L56.4715 68.5479L56.0183 71.1455L53.6875 70.7399C52.9714 70.6143 52.4905 69.9299 52.616 69.2125C52.7415 68.495 53.4246 68.0154 54.142 68.1409Z" fill="#D15F46" />
    <path d="M54.1422 68.14L53.9863 69.0319L55.4239 69.2829L55.2825 70.0982L53.8436 69.8471C53.6428 69.8141 53.5014 69.6344 53.5014 69.4402L53.508 69.3702V69.3675C53.5411 69.1667 53.7194 69.0253 53.9136 69.0253L53.9863 69.0319L54.1422 68.14L54.2968 67.2482C54.1687 67.2257 54.0405 67.2152 53.9136 67.2152C52.85 67.2152 51.9146 67.9762 51.7243 69.057L51.7217 69.0742L51.7243 69.0557C51.7019 69.1852 51.6913 69.3133 51.6913 69.4402C51.6913 70.5051 52.4523 71.4393 53.5318 71.6308L56.7544 72.1924L57.5194 67.8111L54.2982 67.2482L54.1422 68.14Z" fill="#D15F46" />
    <path d="M91.4413 79.7121L85.9766 77.9918L87.8951 71.8981L93.3598 73.6171C95.0431 74.1469 95.9773 75.9412 95.4474 77.6232C94.9189 79.3065 93.126 80.2406 91.4413 79.7121Z" fill="#F8A16A" />
    <path d="M91.4415 79.7125L91.7163 78.8391L87.1249 77.3937L88.4924 73.0453L93.0865 74.4908C94.0589 74.7947 94.6799 75.6971 94.6813 76.6643C94.6813 76.8903 94.6469 77.1201 94.5756 77.35C94.2717 78.3225 93.3706 78.9448 92.4021 78.9448C92.1761 78.9448 91.9462 78.9118 91.7163 78.8391L91.4415 79.7125L91.1667 80.5845C91.5763 80.7127 91.9925 80.7748 92.4021 80.7748C94.1501 80.7761 95.7673 79.6517 96.321 77.8984V77.8971C96.4491 77.4901 96.5112 77.0739 96.5112 76.6643C96.5112 74.9163 95.3895 73.299 93.6348 72.7454L87.2967 70.7516L84.8298 78.5894L91.1667 80.5845L91.4415 79.7125Z" fill="#F8A16A" />
    <path d="M92.9004 75.3536L90.6555 74.6058L89.8231 77.1069L92.0666 77.8548C92.7563 78.086 93.5042 77.7121 93.7354 77.0211C93.964 76.33 93.5914 75.5835 92.9004 75.3536Z" fill="#D15F46" />
    <path d="M92.9003 75.3533L93.187 74.4945L90.0833 73.4599L88.6775 77.6787L91.7798 78.7133C92.0111 78.7913 92.2489 78.8282 92.4828 78.8282C93.4156 78.8296 94.2797 78.239 94.5928 77.3075L94.5942 77.3061C94.6708 77.0749 94.7078 76.8384 94.7078 76.6046C94.7091 75.6717 94.1185 74.8063 93.1857 74.4945L92.9003 75.3533L92.6136 76.2121C92.788 76.269 92.8963 76.4328 92.8976 76.6046L92.8752 76.7354L92.8765 76.734C92.8197 76.9085 92.6545 77.0168 92.4828 77.0181L92.3533 76.997L90.9673 76.5345L91.2289 75.7497L92.6136 76.2121L92.9003 75.3533Z" fill="#D15F46" />
    <path d="M79.9884 53.8723H79.9897C90.1332 57.0896 94.1234 67.6518 90.9061 77.7953L90.659 78.5695C87.443 88.7116 76.5425 95.2268 68.0705 92.3887L68.0031 92.3464C61.3928 89.7832 52.5667 77.3619 55.784 67.2185L56.0297 66.4442C59.247 56.3021 69.845 50.655 79.9884 53.8723Z" fill="#F8A16A" />
    <path d="M79.9882 53.8722V54.7865H79.9896V53.8722L79.7134 54.7442C83.4447 55.9307 86.263 58.1346 88.1748 60.9595C90.0841 63.7831 91.079 67.2395 91.0803 70.9153C91.0803 73.0729 90.7368 75.3033 90.0339 77.5177L89.7881 78.292L89.7868 78.2933C88.4985 82.3615 85.9022 85.8364 82.7246 88.2848C79.5496 90.7357 75.8051 92.1442 72.2694 92.1416C70.9256 92.1416 69.6123 91.9407 68.361 91.5206L68.0703 92.3887L68.5499 91.6091L68.4826 91.5681L68.4112 91.5245L68.3333 91.4941C65.7845 90.519 62.624 87.7351 60.1942 84.1069C57.7499 80.4827 56.0098 76.0313 56.015 71.7755C56.015 70.3181 56.2159 68.8805 56.6558 67.4958L56.9016 66.7203C59.3869 58.8878 66.4742 53.8841 74.1984 53.8828C76.0165 53.8828 77.8702 54.1589 79.7121 54.7442L79.8468 54.7865H79.9882V53.8722L80.2657 53.0001C78.2441 52.3593 76.2028 52.0528 74.1984 52.0528C65.6801 52.0515 57.8807 57.5784 55.1575 66.168L54.9118 66.9422C54.4097 68.5225 54.1851 70.149 54.1851 71.7755C54.1903 76.5281 56.0811 81.2675 58.6761 85.1296C61.2856 88.989 64.5769 91.9857 67.6726 93.1999L68.003 92.3464L67.5233 93.1259L67.5907 93.1669L67.6792 93.2224L67.7796 93.2554C69.2304 93.7416 70.7433 93.9702 72.2694 93.9702C76.2887 93.9676 80.3872 92.3952 83.8424 89.7342C87.2962 87.0705 90.1171 83.3036 91.5309 78.8456L91.5507 78.7835L91.778 78.0726V78.0713C92.535 75.6825 92.909 73.2659 92.909 70.9153C92.9103 66.9118 91.8229 63.0894 89.6903 59.9342C87.5604 56.779 84.3762 54.3003 80.267 53.0001L80.1309 52.9566H79.9882V53.8722L80.2657 53.0001L79.9882 53.8722Z" fill="#F8A16A" />
    <path d="M70.0607 84.9935L70.8033 85.1719C73.4287 85.7981 76.0659 84.1783 76.6922 81.5529L66.4404 79.1059C65.8142 81.7313 67.434 84.3672 70.0607 84.9935Z" fill="white" />
    <path d="M76.1228 74.8789C75.9445 75.6215 76.2563 76.3337 76.8205 76.4697C77.3847 76.6045 77.9858 76.1117 78.1642 75.3691C78.3426 74.6266 78.0308 73.9144 77.4666 73.7783C76.9024 73.6435 76.3012 74.1351 76.1228 74.8789Z" fill="#0D1120" />
    <path d="M68.1644 72.9567C67.9306 73.6834 68.1882 74.418 68.7405 74.5951C69.2928 74.7721 69.9297 74.3269 70.1635 73.5989C70.3974 72.8722 70.1398 72.1375 69.5875 71.9605C69.0352 71.7821 68.3983 72.2287 68.1644 72.9567Z" fill="#0D1120" />
    <path d="M70.6702 78.0739L73.3405 78.7992C73.6682 78.8891 74.0038 78.5205 73.9708 78.1069L73.6695 74.4206C73.6312 73.9515 73.1608 73.8009 72.8715 74.1629L70.5024 77.1239C70.2342 77.4582 70.328 77.9801 70.6702 78.0739Z" fill="#D66068" />
    <path d="M66.4979 69.2878C65.6417 69.5586 67.4135 67.7009 68.452 67.7458C69.4919 67.7921 70.3018 68.5571 70.2622 69.4556C70.2622 69.4556 68.5551 68.6364 66.4979 69.2878Z" fill="#0D1120" />
    <path d="M81.2461 72.7449C81.8843 73.3791 81.1629 70.915 80.2182 70.479C79.2735 70.0429 78.2032 70.3508 77.8267 71.1673C77.8267 71.1673 79.7174 71.2228 81.2461 72.7449Z" fill="#0D1120" />
    <path d="M68.1813 52.7487C88.5038 65.2691 93.337 73.1782 93.337 73.1782C93.337 73.1782 98.5587 48.4836 71.2229 47.7662C53.564 47.3024 66.938 51.9837 68.1813 52.7487Z" fill="#0D1120" />
    <path d="M70.5151 52.4242C70.5151 52.4242 62.5808 63.6947 60.5672 65.6171C58.2668 67.8131 54.6716 65.2696 54.6716 65.2696C54.6716 65.2696 55.8159 47.6676 70.5151 52.4242Z" fill="#0D1120" />
    <path d="M100.368 88.3373H99.7078C99.7078 89.9968 99.0366 91.4925 97.9492 92.5812C96.8605 93.6686 95.3635 94.3399 93.704 94.3399C92.0444 94.3399 90.5474 93.6686 89.4587 92.5812C88.3713 91.4925 87.7001 89.9968 87.7001 88.3373C87.7001 86.6764 88.3713 85.1808 89.4587 84.092C90.5474 83.0046 92.0444 82.3334 93.704 82.3334C95.3635 82.3334 96.8605 83.0046 97.9492 84.092C99.0366 85.1808 99.7078 86.6764 99.7078 88.3373H100.368H101.029C101.029 84.2915 97.7497 81.0135 93.704 81.0121C89.6595 81.0135 86.3801 84.2915 86.3788 88.3373C86.3801 92.3817 89.6595 95.6611 93.704 95.6611C97.7497 95.6611 101.029 92.3817 101.029 88.3373H100.368Z" fill="#F0E034" />
    <path d="M94.0137 80.7947C94.0137 81.532 93.4152 82.1292 92.6779 82.1292C91.9406 82.1292 91.3434 81.532 91.3434 80.7947C91.3434 80.0574 91.9406 79.4602 92.6779 79.4602C93.4152 79.4602 94.0137 80.0574 94.0137 80.7947Z" fill="#F0E034" />
    <path d="M55.7245 83.4204L55.1458 83.102C54.0518 85.0905 51.9998 86.2123 49.8792 86.2136C48.9014 86.2136 47.9118 85.9745 46.9922 85.4697C45.0037 84.3757 43.8819 82.3238 43.8806 80.2032C43.8806 79.2254 44.1197 78.2358 44.6245 77.3162C45.7185 75.3276 47.7717 74.2059 49.8911 74.2046C50.8701 74.2046 51.8585 74.4437 52.7781 74.9485C54.7666 76.0411 55.8883 78.0944 55.8896 80.215C55.8896 81.1928 55.6505 82.1824 55.1458 83.102L55.7245 83.4204L56.3032 83.7389C56.9176 82.6211 57.2109 81.4081 57.2109 80.215C57.2122 77.6319 55.8394 75.1242 53.4149 73.791C52.2971 73.1766 51.0842 72.8833 49.8911 72.8833C47.308 72.882 44.8002 74.2548 43.4671 76.6793C42.8527 77.7971 42.5593 79.0101 42.5593 80.2032C42.558 82.7863 43.9321 85.294 46.3553 86.6272C47.4731 87.2416 48.6861 87.5349 49.8792 87.5349C52.4623 87.5362 54.9701 86.1634 56.3032 83.7389L55.7245 83.4204Z" fill="#F0E034" />
    <path d="M53.7916 73.7486C53.4362 74.3947 52.6249 74.6312 51.9788 74.2758C51.3327 73.9204 51.0975 73.1091 51.4517 72.4617C51.8071 71.8169 52.6183 71.5817 53.2644 71.9358C53.9105 72.2912 54.147 73.1025 53.7916 73.7486Z" fill="#F0E034" />
    <path d="M31.2206 136.887L25.6514 104.581C25.6514 104.581 17.9035 104.593 7.40198 104.704L13.8644 116.018L12.4915 118.955C12.4915 118.955 23.6959 135.295 31.2206 136.887Z" fill="#F8A16A" />
    <path d="M31.2203 136.887C23.6956 135.295 12.4912 118.955 12.4912 118.955L13.864 116.018L26.1122 120.85L31.2203 136.887Z" fill="#BD7F60" />
    <path d="M129.068 154.7L114.734 119.429C109.786 111.73 105.248 109.513 99.0931 110.366C97.1271 110.64 95.4795 111.204 94.0604 111.967L84.1575 113.919C69.8375 123.625 57.107 109.449 57.107 109.449C46.1497 100.799 21.3494 93.8766 21.3494 93.8766L25.3872 132.517C25.3872 132.517 35.4804 170.294 35.5478 171.569C36.1701 183.423 35.4104 204.034 35.5742 203.719C35.7367 203.406 99.2966 211.895 99.7855 210.952C100.274 210.01 100.362 202.879 101.515 176.927C101.667 173.515 101.729 170.139 101.725 166.82L129.068 154.7Z" fill="#FBBC04" />
    <path d="M67.644 206.238C56.4965 197.253 45.4004 187.77 37.4727 175.698C33.6503 169.879 30.5638 163.517 28.7761 156.773C28.052 154.035 25.2959 147.816 29.0232 148.062C31.675 148.236 35.7947 151.06 38.1624 152.205C62.8874 164.168 81.9125 189.476 87.7829 216.414C87.993 217.379 89.4728 216.97 89.2627 216.006C85.7878 200.059 76.9114 184.964 66.8631 172.252C56.3802 158.989 41.9466 151.973 26.7361 145.411C26.2498 145.203 25.539 145.431 25.5813 146.075C27.3187 172.709 46.9819 191.545 66.5579 207.324C67.3203 207.938 68.413 206.859 67.644 206.238Z" fill="white" />
    <path d="M18.3432 98.4014C38.6776 131.909 62.6812 168.031 103.092 178.181C103.783 178.356 104.233 177.649 103.958 177.054C95.466 158.645 84.6606 141.408 71.6408 125.859C59.1164 110.902 43.4897 93.6911 25.3645 85.6313C24.47 85.2336 23.6878 86.5562 24.5902 86.9565C41.9438 94.6741 56.9958 111.034 69.1581 125.292C81.512 139.773 92.0214 155.815 100.331 172.938C101.393 175.132 102.57 175.552 100.418 175.898C98.6291 176.185 95.0524 174.214 93.3837 173.575C88.8292 171.835 84.44 169.676 80.2304 167.221C71.687 162.243 63.9206 155.967 56.9482 148.973C41.9293 133.909 30.643 115.709 19.6685 97.6272C19.1571 96.7829 17.8292 97.5532 18.3432 98.4014Z" fill="white" />
    <path d="M89.1828 113.058C94.464 137.128 114.563 157.176 140.529 153.884C141.495 153.761 141.507 152.225 140.529 152.349C115.193 155.561 95.8117 136.113 90.6627 112.649C90.4513 111.685 88.9714 112.094 89.1828 113.058Z" fill="white" />
    <path d="M95.1696 149.963C95.1696 149.963 104.4 170.627 105.897 177.974C107.982 188.2 116.192 196.3 126.315 198.841C140.701 202.452 152.122 202.741 171.295 201.762L198.615 197.409C220.474 196.084 229.098 191.867 229.098 191.867L214.821 192.923L233.648 186.862C234.152 186.692 232.361 186.289 231.837 186.354L215.59 188.353L234.232 181.137C234.65 180.975 234.485 180.349 234.041 180.415L213.909 183.399C213.909 183.399 231.608 176.139 229.396 175.687C227.185 175.235 205.365 180.851 205.365 180.851C205.365 180.851 216.852 171.896 214.457 171.714C212.902 171.596 204.792 176.571 199.299 180.072C195.759 182.328 191.749 183.86 187.573 184.583L176.804 185.813C175.288 185.595 173.828 185.384 172.416 185.178C153.796 182.456 143.861 180.572 131.544 176.605C121.987 159.912 120.691 146.503 120.691 146.503L95.1696 149.963Z" fill="#F8A16A" />
    <path d="M95.1698 149.962L94.2859 150.359C94.2859 150.359 94.4286 150.679 94.6822 151.256C95.5741 153.278 97.8242 158.44 100.012 163.89C102.199 169.328 104.329 175.105 104.947 178.168C107.119 188.787 115.609 197.149 126.078 199.781C136.095 202.297 144.732 203.216 155.434 203.215C160.216 203.215 165.414 203.033 171.344 202.73L171.447 202.718L198.767 198.365L198.615 197.408L198.673 198.375C220.641 197.045 229.395 192.801 229.524 192.737C229.941 192.534 230.155 192.062 230.034 191.614C229.912 191.165 229.491 190.865 229.027 190.899L222.85 191.357L233.946 187.785L233.96 187.78C234.058 187.744 234.173 187.705 234.333 187.576C234.411 187.512 234.501 187.419 234.577 187.283C234.655 187.148 234.708 186.966 234.707 186.792C234.704 186.492 234.58 186.28 234.489 186.163C234.307 185.943 234.186 185.894 234.082 185.832C233.904 185.74 233.752 185.691 233.581 185.638C233.073 185.494 232.485 185.383 231.971 185.377L231.718 185.391L223.226 186.436L234.581 182.04C234.84 181.943 235.078 181.755 235.228 181.522C235.378 181.291 235.443 181.032 235.443 180.793C235.44 180.463 235.331 180.151 235.102 179.888C234.879 179.625 234.496 179.433 234.104 179.439L233.896 179.455H233.898L213.766 182.439L213.909 183.399L214.276 184.294C214.281 184.293 218.207 182.682 222.143 180.926C224.113 180.047 226.083 179.132 227.584 178.354C228.337 177.964 228.969 177.61 229.45 177.292C229.693 177.13 229.896 176.982 230.081 176.808C230.174 176.718 230.263 176.623 230.355 176.486C230.441 176.348 230.552 176.154 230.558 175.834C230.559 175.677 230.52 175.495 230.438 175.34C230.316 175.104 230.13 174.957 229.983 174.878C229.833 174.796 229.706 174.761 229.591 174.736C229.401 174.699 229.237 174.691 229.055 174.691C228.504 174.693 227.787 174.781 226.872 174.927C223.697 175.434 218.285 176.677 213.635 177.796C208.99 178.916 205.126 179.91 205.124 179.91L205.365 180.85L205.961 181.614C205.968 181.608 208.33 179.768 210.707 177.722C211.896 176.7 213.088 175.628 214.007 174.69C214.466 174.22 214.857 173.786 215.159 173.381C215.309 173.177 215.439 172.982 215.546 172.77C215.649 172.556 215.748 172.33 215.755 171.985C215.768 171.705 215.625 171.292 215.334 171.058C215.049 170.821 214.761 170.767 214.53 170.747L214.399 170.742C213.964 170.75 213.605 170.862 213.16 171.017C211.649 171.567 209.299 172.852 206.66 174.398C204.031 175.941 201.16 177.737 198.779 179.255C195.351 181.439 191.46 182.926 187.408 183.629L187.573 184.582L187.463 183.619L176.694 184.849L176.805 185.813L176.942 184.852C175.427 184.635 173.967 184.424 172.558 184.218C153.941 181.496 144.093 179.626 131.842 175.682L131.544 176.605L132.385 176.124C127.653 167.858 124.969 160.407 123.468 155.033C122.717 152.346 122.264 150.178 121.998 148.689C121.865 147.942 121.779 147.367 121.726 146.98C121.7 146.787 121.682 146.642 121.671 146.546L121.656 146.408C121.631 146.148 121.499 145.905 121.293 145.742C121.088 145.58 120.821 145.506 120.561 145.541L95.0403 149.002C94.739 149.043 94.4708 149.225 94.3229 149.491C94.1749 149.758 94.1617 150.08 94.2859 150.359L95.1698 149.962L95.3006 150.923L120.822 147.463L120.692 146.502L119.727 146.596C119.736 146.688 121.055 160.23 130.703 177.087C130.822 177.296 131.019 177.454 131.247 177.528C143.63 181.516 153.649 183.413 172.277 186.136C173.688 186.344 175.149 186.554 176.667 186.772L176.914 186.776L187.683 185.546L187.738 185.538C192.039 184.793 196.169 183.216 199.82 180.89C202.527 179.163 205.873 177.078 208.736 175.434C210.166 174.612 211.476 173.901 212.511 173.404C213.027 173.157 213.475 172.964 213.818 172.84C213.988 172.78 214.133 172.735 214.239 172.709L214.362 172.686L214.399 172.68V172.461L214.383 172.68H214.399V172.461L214.383 172.68L214.425 172.125L214.078 172.535C214.255 172.679 214.379 172.678 214.383 172.68L214.425 172.125L214.078 172.535L214.546 171.985H213.816C213.803 172.106 213.894 172.392 214.078 172.535L214.546 171.985H213.816H214.235L213.831 171.861L213.816 171.985H214.235L213.831 171.861L213.829 171.865C213.811 171.926 213.635 172.209 213.355 172.535C212.364 173.716 210.185 175.648 208.293 177.228C207.346 178.022 206.463 178.737 205.819 179.254C205.174 179.77 204.771 180.084 204.77 180.085C204.406 180.368 204.293 180.864 204.496 181.277C204.698 181.689 205.162 181.903 205.607 181.788C205.61 181.788 206.864 181.466 208.806 180.979C211.719 180.25 216.175 179.157 220.223 178.248C222.246 177.794 224.168 177.385 225.738 177.092C227.296 176.799 228.548 176.626 229.055 176.63L229.175 176.634L229.203 176.636H229.204L229.331 176.013L228.944 176.507C229.098 176.622 229.181 176.628 229.203 176.636L229.331 176.013L228.944 176.507L229.464 175.844L228.715 176.229C228.78 176.355 228.868 176.449 228.944 176.507L229.464 175.844L228.715 176.229L229.481 175.834H228.619C228.617 175.956 228.649 176.104 228.715 176.229L229.481 175.834H228.619H229.357L228.732 175.425C228.706 175.471 228.625 175.585 228.619 175.834H229.357L228.732 175.425L229.004 175.603L228.759 175.389L228.732 175.425L229.004 175.603L228.759 175.389L228.702 175.441C228.546 175.577 228.14 175.844 227.606 176.142C225.717 177.206 222.173 178.812 219.136 180.131C217.615 180.793 216.214 181.385 215.196 181.813C214.177 182.24 213.543 182.5 213.54 182.501C213.086 182.688 212.844 183.181 212.973 183.655C213.104 184.129 213.564 184.429 214.05 184.357L234.184 181.372H234.186L234.104 180.833V181.378L234.186 181.372L234.104 180.833V181.378V180.767L233.647 181.17C233.742 181.287 233.942 181.384 234.104 181.378V180.767L233.647 181.17L234.075 180.793H233.503C233.506 180.932 233.547 181.051 233.647 181.17L234.075 180.793H233.503H234.108L233.604 180.463L233.503 180.793H234.108L233.604 180.463L234.095 180.784L233.881 180.233L233.604 180.463L234.095 180.784L233.881 180.233L215.241 187.448C214.785 187.624 214.531 188.114 214.651 188.589C214.769 189.062 215.225 189.373 215.71 189.314L231.956 187.315L231.944 187.214L231.949 187.316L231.956 187.315L231.944 187.214L231.949 187.316H231.971C232.107 187.312 232.531 187.369 232.836 187.446C232.989 187.483 233.127 187.526 233.173 187.546L233.184 187.55L233.363 187.152L233.095 187.492L233.184 187.55L233.363 187.152L233.095 187.492L233.606 186.844L232.928 187.311L233.095 187.492L233.606 186.844L232.928 187.311L233.683 186.792H232.767C232.769 187.032 232.858 187.213 232.928 187.311L233.683 186.792H232.767H233.698L232.885 186.338C232.815 186.46 232.766 186.629 232.767 186.792H233.698L232.885 186.338L233.662 186.772L233.186 186.019C233.112 186.066 232.992 186.152 232.885 186.338L233.662 186.772L233.186 186.019L233.567 186.621L233.337 185.945L233.186 186.019L233.567 186.621L233.337 185.945L233.649 186.862L233.351 185.939L214.524 192C214.057 192.151 213.777 192.626 213.87 193.109C213.964 193.591 214.403 193.925 214.893 193.89L229.169 192.834L229.098 191.867L228.673 190.996L228.658 191.003C228.256 191.191 219.629 195.163 198.556 196.44L198.462 196.45L171.142 200.804L171.295 201.762L171.245 200.793C165.333 201.094 160.167 201.275 155.434 201.275C144.838 201.274 136.421 200.376 126.55 197.9C116.775 195.45 108.845 187.61 106.847 177.779C106.451 175.846 105.584 173.161 104.501 170.167C101.254 161.203 96.0603 149.578 96.055 149.567L95.1698 149.962L95.3006 150.923L95.1698 149.962Z" fill="#F8A16A" />
    <path d="M167.519 202.942L167.527 202.912C168.767 202.858 170.038 202.797 171.345 202.731L171.448 202.719L171.845 202.657C171.816 202.711 171.791 202.763 171.762 202.818L167.519 202.942Z" fill="#622C25" />
    <path d="M171.761 202.817C171.79 202.762 171.815 202.71 171.845 202.656L172.196 202.599L173.199 200.476L174.553 197.609L172.097 202.808L171.761 202.817Z" fill="#522621" />
    <path d="M172.793 184.253C172.715 184.243 172.636 184.231 172.558 184.219C172.406 184.196 172.257 184.175 172.106 184.153L172.131 184.048L172.791 184.195L172.793 184.253Z" fill="#622C25" />
    <path d="M168.006 200.949L171.646 186.044C171.854 186.074 172.066 186.106 172.277 186.136C172.477 186.165 172.676 186.195 172.876 186.224L173.347 197.569L174.574 197.567L174.554 197.609L173.2 200.476L171.194 200.796C170.106 200.851 169.045 200.903 168.006 200.949Z" fill="#BD7F60" />
    <path d="M167.527 202.911L168.005 200.949C169.045 200.903 170.106 200.851 171.193 200.796L173.199 200.476L172.196 202.599L171.845 202.656L171.447 202.718L171.344 202.73C170.037 202.796 168.766 202.857 167.527 202.911ZM172.875 186.224C172.676 186.194 172.476 186.165 172.277 186.136C172.065 186.106 171.854 186.074 171.645 186.044L172.106 184.152C172.257 184.174 172.406 184.195 172.558 184.218C172.636 184.23 172.715 184.242 172.793 184.252L172.875 186.224Z" fill="#BD7F60" />
</svg>
    