<svg width="380" height="18" viewBox="0 0 380 18" fill="none" xmlns="http://www.w3.org/2000/svg">
    <line y1="8.5" x2="166" y2="8.5" stroke="#BABBBE" />
    <path d="M185.768 14.224C184.807 14.224 183.934 13.9907 183.15 13.524C182.366 13.0573 181.75 12.4273 181.302 11.634C180.854 10.8313 180.63 9.94933 180.63 8.988C180.63 8.036 180.854 7.15867 181.302 6.356C181.75 5.55333 182.366 4.91867 183.15 4.452C183.934 3.98533 184.807 3.752 185.768 3.752C186.729 3.752 187.602 3.98533 188.386 4.452C189.17 4.91867 189.786 5.55333 190.234 6.356C190.691 7.15867 190.92 8.036 190.92 8.988C190.92 9.94933 190.696 10.8313 190.248 11.634C189.8 12.4273 189.179 13.0573 188.386 13.524C187.602 13.9907 186.729 14.224 185.768 14.224ZM185.768 13.09C186.487 13.09 187.145 12.9173 187.742 12.572C188.349 12.2173 188.825 11.732 189.17 11.116C189.525 10.4907 189.702 9.78133 189.702 8.988C189.702 8.19467 189.525 7.49 189.17 6.874C188.825 6.24867 188.349 5.76333 187.742 5.418C187.145 5.06333 186.487 4.886 185.768 4.886C185.049 4.886 184.391 5.06333 183.794 5.418C183.197 5.76333 182.721 6.24867 182.366 6.874C182.011 7.49933 181.834 8.204 181.834 8.988C181.834 9.772 182.011 10.4767 182.366 11.102C182.721 11.7273 183.197 12.2173 183.794 12.572C184.391 12.9173 185.049 13.09 185.768 13.09ZM192.673 3.976H196.061C196.611 3.976 197.125 4.102 197.601 4.354C198.077 4.606 198.455 4.96067 198.735 5.418C199.024 5.866 199.169 6.37467 199.169 6.944C199.169 7.41067 199.061 7.84467 198.847 8.246C198.641 8.64733 198.352 8.98333 197.979 9.254C197.615 9.52467 197.209 9.70667 196.761 9.8L196.733 9.842L199.561 13.944V14H198.161L195.431 9.912H193.849V14H192.673V3.976ZM195.991 8.806C196.336 8.806 196.658 8.72667 196.957 8.568C197.265 8.40933 197.507 8.19 197.685 7.91C197.871 7.62067 197.965 7.29867 197.965 6.944C197.965 6.636 197.885 6.342 197.727 6.062C197.568 5.782 197.344 5.55333 197.055 5.376C196.775 5.19867 196.448 5.11 196.075 5.11H193.849V8.806H195.991Z" fill="#222222" />
    <line x1="214" y1="8.5" x2="380" y2="8.5" stroke="#BABBBE" />
</svg>
    