<svg width="28" height="28" viewBox="0 0 28 28" fill="none" xmlns="http://www.w3.org/2000/svg">
    <path d="M21.875 6.125H6.125C4.67525 6.125 3.5 7.30025 3.5 8.75V21C3.5 22.4497 4.67525 23.625 6.125 23.625H21.875C23.3247 23.625 24.5 22.4497 24.5 21V8.75C24.5 7.30025 23.3247 6.125 21.875 6.125Z" stroke="#143048" stroke-width="2" stroke-linecap="round" stroke-linejoin="round"/>
    <path d="M17.9375 15.75H10.0625C8.85438 15.75 7.875 16.7294 7.875 17.9375C7.875 19.1456 8.85438 20.125 10.0625 20.125H17.9375C19.1456 20.125 20.125 19.1456 20.125 17.9375C20.125 16.7294 19.1456 15.75 17.9375 15.75Z" stroke="#143048" stroke-width="2" stroke-linecap="round" stroke-linejoin="round"/>
    <path d="M16.1875 15.75V20.125" stroke="#143048" stroke-width="2" stroke-linecap="round" stroke-linejoin="round"/>
    <path d="M11.8125 15.75V20.125" stroke="#143048" stroke-width="2" stroke-linecap="round" stroke-linejoin="round"/>
    <path d="M14 6.125V1.75" stroke="#143048" stroke-width="2" stroke-linecap="round" stroke-linejoin="round"/>
    <path d="M9.1875 13.125C9.91237 13.125 10.5 12.5374 10.5 11.8125C10.5 11.0876 9.91237 10.5 9.1875 10.5C8.46263 10.5 7.875 11.0876 7.875 11.8125C7.875 12.5374 8.46263 13.125 9.1875 13.125Z" fill="#143048"/>
    <path d="M18.8125 13.125C19.5374 13.125 20.125 12.5374 20.125 11.8125C20.125 11.0876 19.5374 10.5 18.8125 10.5C18.0876 10.5 17.5 11.0876 17.5 11.8125C17.5 12.5374 18.0876 13.125 18.8125 13.125Z" fill="#143048"/>
    </svg>
    