<svg width="28" height="28" viewBox="0 0 28 28" fill="none" xmlns="http://www.w3.org/2000/svg">
    <path d="M14 24.5C19.799 24.5 24.5 19.799 24.5 14C24.5 8.20101 19.799 3.5 14 3.5C8.20101 3.5 3.5 8.20101 3.5 14C3.5 19.799 8.20101 24.5 14 24.5Z" stroke="#143048" stroke-width="2" stroke-miterlimit="10" />
    <path d="M4.10156 10.5H23.8984" stroke="#143048" stroke-width="2" stroke-linecap="round" stroke-linejoin="round" />
    <path d="M4.10156 17.5H23.8984" stroke="#143048" stroke-width="2" stroke-linecap="round" stroke-linejoin="round" />
    <path d="M14 24.2159C16.4162 24.2159 18.375 19.6422 18.375 14.0003C18.375 8.35836 16.4162 3.78467 14 3.78467C11.5838 3.78467 9.625 8.35836 9.625 14.0003C9.625 19.6422 11.5838 24.2159 14 24.2159Z" stroke="#143048" stroke-width="2" stroke-miterlimit="10" />
</svg>
    